<?xml version="1.0" encoding="utf-8"?>
<!-- Generator: Adobe Illustrator 24.2.0, SVG Export Plug-In . SVG Version: 6.00 Build 0)  -->
<svg version="1.1" id="Layer_1" xmlns="http://www.w3.org/2000/svg" xmlns:xlink="http://www.w3.org/1999/xlink" x="0px" y="0px"
	 viewBox="0 0 4500 4500" style="enable-background:new 0 0 4500 4500;" xml:space="preserve">
<style type="text/css">
	.st0{fill-rule:evenodd;clip-rule:evenodd;fill:#FFFFFF;}
	.st1{fill:none;}
</style>
<path class="st0" d="M1925.28,1054.8c0,0.4,0,0.8,0,1.2c6.29-0.01,9.36,4.68,13.92,4.8c0,0.4,0,0.8,0,1.2
	c5.75-0.01,7.35,4.68,13.92,4.8c0,0.4,0,0.8,0,1.2c4.97-0.11,8.47,4.74,14.16,4.8c0,0.4,0,0.8,0,1.2c4.08,0.67,9.9,2.95,13.2,5.04
	c-0.41,0.3-0.63,0.32-0.96,0.72c4.91-0.02,9.04,2.76,12.72,4.32c-0.32,0.16-0.64,0.32-0.96,0.48c1.55,0.11,1.7,0.29,2.4,1.2
	c0.63-0.81,0.1-0.71,1.44-0.96c0,0.4,0,0.8,0,1.2c4.38,0.55,12.66,4.68,18,7.2c-0.24,0.16-0.48,0.32-0.72,0.48
	c4.92,0.58,8.63,2.84,12,5.04c1.54,1.01,3.48,0.23,5.04,1.2c1.78,1.11,3.96,2.77,6.72,2.88c0,0.4,0,0.8,0,1.2
	c8.73,0.01,10.87,6.87,18.96,6.96c0.03,6.12-3.77,8.88-3.84,15.12c-0.4,0-0.8,0-1.2,0c-0.07,2.65-1.1,7.87-2.64,9.36
	c-0.05,0.71,1.25,0.46,0.72,1.68c-1.14,2.65-1.67,7.23-2.64,10.08c-0.18,0.53,1.56,2.4,0.72,3.84c-2.23,3.82-0.93,13.39-0.96,18.96
	c0.32-0.08,0.64-0.16,0.96-0.24c0.04,4.4-0.19,11.1,1.92,13.92c0.08,1.68,0.16,3.36,0.24,5.04c1.01,1.94,1.68,2.9,1.68,6.24
	c0.4,0,0.8,0,1.2,0c-0.02,6.57,4.35,10.17,4.8,15.84c0.4,0,0.8,0,1.2,0c0.07,2.09,0.59,1.77,0.96,3.36
	c-0.32,0.16-0.64,0.32-0.96,0.48c0.64,0.08,1.28,0.16,1.92,0.24c0.24,3.4,2.59,4.57,2.88,7.92c0.4,0.08,0.8,0.16,1.2,0.24
	c-0.41,0.3-0.63,0.32-0.96,0.72c1.43,0.36,1.97,1.27,2.16,2.88c0.24-0.24,0.48-0.48,0.72-0.72c0.19,3.04,2.31,4.19,2.88,6.96
	c0.4,0,0.8,0,1.2,0c1.17,4.12,6.74,11.85,9.84,14.16c-0.24,0.24-0.48,0.48-0.72,0.72c1.19,0.18,7.69,7.13,7.68,9.12
	c0.4,0,0.8,0,1.2,0c0.96,2.92,4.14,3.98,6,6c0.08,0.64,0.16,1.28,0.24,1.92c0.57,0.69,2.02,0.57,2.64,1.2
	c0.32,0.96,0.64,1.92,0.96,2.88c2.73,3.16,6.67,5.32,9.36,8.88c0.24-0.24,0.48-0.48,0.72-0.72c0.44,2.53,9.56,9.7,12,11.04
	c-0.24,0.24-0.48,0.48-0.72,0.72c0.56,0,1.12,0,1.68,0c0,0.4,0,0.8,0,1.2c3.1,0.87,4.31,3.8,6.24,5.76c1.15,1.17,3.55,1.08,4.8,2.16
	c3.71,3.2,7.56,6.6,11.28,9.84c2.12,1.85,8.1,3.12,8.64,6.24c0.72,0,1.44,0,2.16,0c0.4,1.39,3.48,3.47,4.8,3.84
	c2.73,0.58,12.53-4.32,15.6-5.52c11.28-4.41,23.88-6.79,36.48-9.6c31.88-7.1,75.71-4.37,104.16,3.6c8.97,2.51,18.09,5.01,26.4,8.4
	c2.76,1.12,7.26,4.17,10.08,2.64c-0.24-0.08-0.48-0.16-0.72-0.24c1.57-1.18,3.8-2.73,6-3.12c0.82-3.89,14.95-8.05,15.84-13.2
	c2.63-0.22,4.09-2.16,5.28-3.84c0.16,0.24,0.32,0.48,0.48,0.72c0.22-1.65,0.46-1.77,2.4-1.68c0-0.4,0-0.8,0-1.2
	c1.67-0.45,2.35-1.47,3.12-2.88c0.44,0.19,0.18,0.38,0.48,0c1.45-0.42,10.03-7.16,10.32-9.12c0.64,0,1.28,0,1.92,0
	c0-0.64,0-1.28,0-1.92c1.72-0.45,2.56-1.42,3.36-2.88c0.16,0.24,0.32,0.48,0.48,0.72c0.1-0.53,12.86-13.69,13.92-14.4
	c-0.24-0.08-0.48-0.16-0.72-0.24c1.35-0.63,1.82-0.13,1.92-2.16c0.64-0.08,1.28-0.16,1.92-0.24c0.31-1.56,8.83-11.57,10.08-12
	c0-0.56,0-1.12,0-1.68c0.4,0,0.8,0,1.2,0c0.38-1.9,8.02-12.01,9.6-13.68c-0.24-0.08-0.48-0.16-0.72-0.24
	c0.62-0.48,0.72-0.58,1.2-1.2c0.16,0.24,0.32,0.48,0.48,0.72c0.08-0.88,0.16-1.76,0.24-2.64c0.4,0,0.8,0,1.2,0
	c0.72-3.92,4.43-5.75,4.8-10.08c0.4,0,0.8,0,1.2,0c0.33-4.81,4.39-7.2,4.8-12c0.4,0,0.8,0,1.2,0c-0.01-0.34,7.31-24.79,7.68-25.2
	c-0.24-0.16-0.48-0.32-0.72-0.48c2.77-2.37,0.61-7.45,1.92-11.52c1.91-5.94,1.43-28.83-1.92-33.6c0-1.68,0-3.36,0-5.04l-0.96-3.84
	c-0.4-0.08-0.8-0.16-1.2-0.24c0-1.2,0-2.4,0-3.6c-1.45-2.35-4.79-9.39-4.8-14.4c7.43-0.14,12.47-7.03,18.96-6.96c0-0.4,0-0.8,0-1.2
	c2.76-0.1,4.42-1.67,6-2.88c0.95-0.72,7.72-1.36,8.88-2.16c0.37-0.26,0.59-1.62,0.96-1.92c0.96-0.08,1.92-0.16,2.88-0.24
	c2.87-1.9,9.22-3.88,13.2-6.72c0.72,0,1.44,0,2.16,0c1.62-0.52,3.54-1.98,4.8-2.88c0.96-0.08,1.92-0.16,2.88-0.24
	c3.14-2.33,9-5.54,13.2-5.76c0-0.4,0-0.8,0-1.2c5.17-0.03,10.39-3.68,14.16-6c0.64,0,1.28,0,1.92,0c1.58-0.51,3.64-1.85,4.8-2.88
	c0.32,0.24,0.64,0.48,0.96,0.72c1.87-0.9,3.4-2.6,6.24-2.64c0-0.4,0-0.8,0-1.2c4.34-0.1,7.97-4.71,13.92-4.8c0-0.4,0-0.8,0-1.2
	c5.54-0.31,7.88-4.78,13.92-4.8c0-0.4,0-0.8,0-1.2c3-0.07,2.33-0.85,5.28-0.96c1.34,4.76,4.29,12.33,6.96,16.08
	c0.08,1.28,0.16,2.56,0.24,3.84c1.4,2.49,2.63,6.99,3.84,8.88c0,0.8,0,1.6,0,2.4c0.77,2.45,2.46,9.68,4.08,11.28
	c-0.88,0.22-0.49-0.01-0.96,0.48c2.13,0.85,1.2,5.12,1.92,8.16c0.1,0.42,1.29,4.2,1.92,5.04c0,1.92,0,3.84,0,5.76
	c0.54,2.74,1.64,11.96,3.12,13.92c0.08,3.68,0.16,7.36,0.24,11.04c0.3-0.41,0.32-0.63,0.72-0.96c0.07,10.6,1.76,34.54-0.96,41.76
	c0.75,0.58,0.61,0.07,0.96,1.2c-0.89,1.13-1.14,3.85-1.92,5.04c1.19,0.36,0.93,0.25,0.96,1.68c-0.32,0.08-0.64,0.16-0.96,0.24
	c1.19,0.36,0.93,0.25,0.96,1.68c-2.02,0.7-1.36,8.57-2.16,11.04c-0.24,0.75-0.54,2.26-0.96,3.6c0,1.68,0,3.36,0,5.04
	c-1.79,2.94-2.93,9.65-2.88,12.96c-0.4,0-0.8,0-1.2,0c0,8.15-4.63,13.36-4.8,21.12c-0.4,0-0.8,0-1.2,0c0,3.79-8.94,25.9-10.8,27.36
	c1.09,1.11,0.12,0.19,0,2.64c-0.4,0-0.8,0-1.2,0c-0.05,2.33-1.35,4.13-2.64,5.28c0.24,0.24,0.48,0.48,0.72,0.72
	c-1.4,0.5-2.85,4.17-2.88,6c-0.4,0-0.8,0-1.2,0c-0.08,0.64-0.16,1.28-0.24,1.92c-0.16-0.24-0.32-0.48-0.48-0.72
	c-0.59,4.32-3.81,5.59-4.08,9.84c-0.4,0-0.8,0-1.2,0c-0.19,4.07-4.35,6.46-4.8,9.84c-0.4,0-0.8,0-1.2,0
	c-0.17,2.08-10.08,17.68-12,18c-0.31,2.36-3.7,7.76-6,8.16c-0.48,2.77-2.53,2.91-3.6,4.8c0.9,0.48,0.51,0.02,0.72,1.2
	c-1.64,0.09-1.89,0.15-1.92,1.92c-0.4,0-0.8,0-1.2,0c-0.57,2.04-3.77,6.52-6,6.96c-0.31,1.84-8.35,11.73-9.84,12.96
	c-0.64,0.08-1.28,0.16-1.92,0.24c-0.08,0.64-0.16,1.28-0.24,1.92c-1.24,1.5-3.5,2.39-4.8,3.84c-0.95,1.07-1.13,3.11-2.16,4.08
	c-2.78,2.63-5.12,3.46-7.2,6.96c-0.16-0.24-0.32-0.48-0.48-0.72c-1.71,4.85-8.74,6.99-11.52,11.76c-0.16-0.24-0.32-0.48-0.48-0.72
	c-0.73,3.47-13.99,11.72-16.56,15.84c-0.16-0.32-0.32-0.64-0.48-0.96c-0.63,2.6-7.67,7.1-10.08,8.4c0.88,0.22,0.49-0.01,0.96,0.48
	c-0.4,0-0.8,0-1.2,0c0,0.32,0,0.64,0,0.96c5.41,4.72,9.17,12.66,13.2,18.72c10.63,16,20.22,33.01,28.32,51.6
	c8.73,20.04,15.89,41.23,22.8,63.84c4.05,13.27,5.65,27.59,8.64,41.76c2.71,12.84,1.87,26.58,4.32,40.08
	c0.16,5.68,0.32,11.36,0.48,17.04c1.31,8.06,1.18,20.53-0.24,28.32c-0.08,3.2-0.16,6.4-0.24,9.6c-0.8,8-1.6,16-2.4,24
	c-4.09,21.09-5.44,40.67-11.04,59.52c-15.71,52.82-37.11,98.94-66.48,136.08c0.08,0.08,0.16,0.16,0.24,0.24
	c3.28-1.31,8.01-3.82,11.28-6c0.96-0.08,1.92-0.16,2.88-0.24c1.59-1.02,2.39-2.52,5.04-2.64c0-0.4,0-0.8,0-1.2
	c1.8,0,3.52-0.67,4.8-1.44c-0.24-0.08-0.48-0.16-0.72-0.24c0-0.08,0-0.16,0-0.24c2.79-0.14,11.89-5.23,13.2-6.96
	c0.24,0.24,0.48,0.48,0.72,0.72c0.14-0.61,0.57-0.92,1.2-1.68c0.24,0.24,0.48,0.48,0.72,0.72c0.52-1.13,1.4-1.67,3.12-1.68
	c0.18-0.67,18.37-11.63,20.16-12c0-0.4,0-0.8,0-1.2c2.46,0,2.89-0.41,4.56-1.44c-0.24-0.08-0.48-0.16-0.72-0.24
	c1.28-0.56,2.56-1.12,3.84-1.68c-0.24-0.08-0.48-0.16-0.72-0.24c0-0.08,0-0.16,0-0.24c2.71-0.16,3.1-2.06,4.8-3.12
	c0.96-0.16,1.92-0.32,2.88-0.48c-0.24-0.08-0.48-0.16-0.72-0.24c1.8-1.01,3.47-2.74,6-3.12c0-0.4,0-0.8,0-1.2c0.64,0,1.28,0,1.92,0
	c0.2-0.69,14.54-10.78,17.04-10.8c0-0.4,0-0.8,0-1.2c2.97-0.8,6.37-3.57,8.4-6c0.22,0.88-0.01,0.49,0.48,0.96
	c0.79-2.38,3.42-2.33,5.04-3.84c1.38-1.29,16.95-13.38,20.16-13.92c0-0.4,0-0.8,0-1.2c2.46-0.67,15.58-10.45,15.84-12
	c2.29-0.24,7.26-3.94,8.88-5.28c-0.24-0.16-0.48-0.32-0.72-0.48c0.56-0.08,1.12-0.16,1.68-0.24c-0.24-0.24-0.48-0.48-0.72-0.72
	c0-0.08,0-0.16,0-0.24c2.09-0.04,2.3-0.72,3.12-1.92c0.24,0.24,0.48,0.48,0.72,0.72c0.36-1.35,1.6-2.42,3.12-2.64c0-0.4,0-0.8,0-1.2
	c2.11-0.55,14.63-10.32,14.88-12c3.04-0.66,3.85-3.56,6.96-4.08c0.08-0.64,0.16-1.28,0.24-1.92c0.64,0,1.28,0,1.92,0
	c0.56-1.89,3.97-4.45,6-4.8c0-0.4,0-0.8,0-1.2c1.23-0.35,1.53-1.02,2.16-1.92c0.24,0.24,0.48,0.48,0.72,0.72c0-0.56,0-1.12,0-1.68
	c3.26-0.38,3.05-2.84,6-3.36c0-0.56,0-1.12,0-1.68c6.09-0.59,13.25-13.76,19.2-14.88c0.08-0.4,0.16-0.8,0.24-1.2
	c0.16,0.32,0.32,0.64,0.48,0.96c0.37-2.86,4.51-5.93,6.72-6.96c0.08,0.32,0.16,0.64,0.24,0.96c0.27-1.23,0.24-0.81,0.96-1.44
	c-0.24-0.08-0.48-0.16-0.72-0.24c1.21-0.79,2.78-1.11,2.88-3.12c0.4,0,0.8,0,1.2,0c0.49-1.71,15.71-15.17,18.72-17.52
	c-0.24-0.08-0.48-0.16-0.72-0.24c1.7-1,1.1-0.86,2.4-2.4c0.08,0.32,0.16,0.64,0.24,0.96c0.36-1.21,7.63-7.96,9.12-8.16
	c-0.41-0.3-0.63-0.32-0.96-0.72c1.99-0.39,3.41-2.55,4.32-4.08c0.16,0.32,0.32,0.64,0.48,0.96c0.52-4.07,6.83-7.33,9.36-9.84
	c3.45-3.42,6.21-7.84,9.84-11.04c0.74-0.65,2.19-0.51,2.88-1.2c1.56-1.57,2.76-5.17,4.32-6.72c2.49-2.46,4.42-2.8,6.24-6
	c0.16,0.24,0.32,0.48,0.48,0.72c0.72-4.08,14.87-15.86,18-19.92c1.58-2.06,2.29-5.22,5.28-5.76c0-0.72,0-1.44,0-2.16
	c4.64-0.93,7.71-10.99,12-12c0-0.64,0-1.28,0-1.92c2.9-0.54,1.96-2.86,4.8-3.36c-0.41-0.3-0.63-0.32-0.96-0.72
	c1.7-0.54,12.24-13.99,12.96-15.6c0.08-0.48,0.16-0.96,0.24-1.44c0.56-0.08,1.12-0.16,1.68-0.24c0-0.08,0-0.16,0-0.24
	c-0.24-0.08-0.48-0.16-0.72-0.24c1.7-1.24,2.19-1.97,3.12-4.08c0.24,0.24,0.48,0.48,0.72,0.72c-0.21-1.39,0.43-2.69,2.16-2.88
	c0.31-2.09,3.82-7.54,6-7.92c0.18-1.19,0.65-2.14,1.2-3.12c0.16,0.32,0.32,0.64,0.48,0.96c0.37-1.83,2.38-5.39,4.32-5.76
	c0.21-2.44,2.67-3.65,1.92-4.8c1.06-0.77,1.46-1.25,2.16-2.4c0.3,0.41,0.32,0.63,0.72,0.96c-0.14-2.2,2.21-4.88,3.36-6.96
	c0.16,0.32,0.32,0.64,0.48,0.96c0.24-2.55,3.16-7.2,5.04-8.16c-0.24-0.16-0.48-0.32-0.72-0.48c0.59-0.32,2.06-0.29,1.68-0.96
	c1.86-4.79,7.7-8.76,8.16-14.16c0.4,0,0.8,0,1.2,0c0.41-2.43,7.41-13.82,9.12-16.08c0.24,0.24,0.48,0.48,0.72,0.72
	c0-0.08,0-0.16,0-0.24c-0.08-1.52,0.41-3.22,1.92-3.84c-0.24-0.16-0.48-0.32-0.72-0.48c0.64-0.52,0.94-1.06,1.68-1.44
	c-0.24-0.16-0.48-0.32-0.72-0.48c2.27-1.72,2.1-4.2,3.84-6.48c3.82-5,6.25-10.85,9.36-17.76c0.16,0.24,0.32,0.48,0.48,0.72
	c0.51-3.84,2.99-4.52,3.12-8.64c0.4,0,0.8,0,1.2,0c0.09-2.86,5.07-13.74,6.72-15.6c-0.24-0.08-0.48-0.16-0.72-0.24
	c1.05-0.89,1.5-2.68,2.64-3.36c-0.24-0.24-0.48-0.48-0.72-0.72c1.91-1.73,1.76-5.07,3.84-6.72c-0.32-0.08-0.64-0.16-0.96-0.24
	c0.08-0.4,0.16-0.8,0.24-1.2c2.78-1.04,0.48-2.68,1.92-5.04c3.46-5.69,5.83-14.23,7.92-20.88c0.89-2.82,0.76-7.56,2.88-8.4
	c-0.85-0.65-0.8-0.2-0.96-1.68c1.89-0.57,0.42-1.22,1.92-2.16c-0.43-0.79-0.41-4.32,0.48-6.24c0.08,0,0.16,0,0.24,0
	c0.08,0.4,0.16,0.8,0.24,1.2c0.16-1.92,0.32-3.84,0.48-5.76c0.16,0.24,0.32,0.48,0.48,0.72c0.16-1.92,0.32-3.84,0.48-5.76
	c0.16,0.24,0.32,0.48,0.48,0.72c0.14-1.66,0.1-4.3,0.96-5.28c-0.24-0.08-0.48-0.16-0.72-0.24c1.84-1.54-0.39-4.08,0.96-6.24
	c2.98-4.79,3.21-26.81,3.12-32.88c49.11,0,98.24,0,147.36,0c0.11,16.91-0.21,35.58-3.12,46.08c-0.81,2.92,0.18,12.06-0.96,13.92
	c-1.73,2.83-2.38,8.54-3.12,12c0,1.68,0,3.36,0,5.04c-1.95,3.2-3.82,12.24-3.84,17.04c-0.4,0-0.8,0-1.2,0
	c0.06,8.72-4.81,12.17-4.8,22.08c-0.4,0-0.8,0-1.2,0c-0.06,3.87-1.84,5.16-1.92,9.12c-0.32-0.08-0.64-0.16-0.96-0.24
	c0.1,3.15-1.12,7.21-2.88,8.64c0.88,0.22,0.49-0.01,0.96,0.48c-0.4,0-0.8,0-1.2,0c-0.01,4.81-2.66,9.68-4.56,12.96
	c-1.44,2.49-1.46,6.14-2.64,8.88c-0.16-0.24-0.32-0.48-0.48-0.72c-0.58,4.61-3.04,8.71-5.04,12c-1.21,1.99-1.39,5.75-2.4,7.92
	c-0.16-0.32-0.32-0.64-0.48-0.96c-0.23,2.3-1.02,2.62-1.2,4.8c-0.4,0-0.8,0-1.2,0c0.06,4.69-4.58,7.25-4.8,12.96c-0.4,0-0.8,0-1.2,0
	c-0.23,4.86-4.39,7.24-4.8,12c-0.4,0-0.8,0-1.2,0c-0.06,3.31-2.28,5.15-3.6,7.2c-1.33,2.07-1.76,4.1-3.12,6.24
	c-0.08,0.88-0.16,1.76-0.24,2.64c-2.8,3.86-9.25,12.46-9.84,17.04c-0.4,0-0.8,0-1.2,0c-0.38,3.21-3.22,7.21-5.04,10.08
	c-0.3-0.41-0.32-0.63-0.72-0.96c-0.04,0.81-4.05,10.44-6.24,10.8c-0.23,1.92-0.62,0.78,0,2.16c-1.45,0.45-1.69,1.73-2.64,1.92
	c0.24,0.32,0.48,0.64,0.72,0.96c-1.56,0.57-8.72,11.59-8.88,13.92c-0.4,0-0.8,0-1.2,0c-0.4,2.09-10.57,16.73-12,17.04
	c-0.61,3.55-9.08,14.56-11.76,16.56c0.88,0.22,0.49-0.01,0.96,0.48c-0.64,0.08-1.28,0.16-1.92,0.24c0.53,0.94-0.12,0.59-0.24,2.88
	c-0.64,0.08-1.28,0.16-1.92,0.24c-0.07,1.76-1.58,4.25-3.12,4.56c-0.28,1.54-1.32,3.01-2.16,4.08c-0.16-0.24-0.32-0.48-0.48-0.72
	c-0.56,2.38-2,1.89-2.16,4.8c-0.4,0-0.8,0-1.2,0c-0.55,1.88-3.89,6.54-6,6.96c-0.18,1.2-0.64,1.97-1.2,2.88
	c-0.16-0.24-0.32-0.48-0.48-0.72c-0.36,2.14-6.24,9.45-7.92,10.08c0.24,0.24,0.48,0.48,0.72,0.72c-1.56,0.53-1.37,1.52-3.12,1.92
	c0,0.72,0,1.44,0,2.16c-3.21,0.47-4.27,4.81-6,6.96c-2.69,3.36-16.67,16.09-16.8,19.92c-0.64,0.08-1.28,0.16-1.92,0.24
	c-0.16,0.64-0.32,1.28-0.48,1.92c-0.16-0.32-0.32-0.64-0.48-0.96c-0.5,3.51-3.69,3.56-5.28,5.76c-0.55,0.77-0.48,2.17-1.2,3.12
	c-0.16-0.24-0.32-0.48-0.48-0.72c-0.28,1.74-1.66,3.31-3.36,3.6c-0.04,0.28-5.66,7.2-6.72,7.44c0.24,0.24,0.48,0.48,0.72,0.72
	c-1.62,0.46-4.46,3.29-4.8,5.04c-1.51,0.31-1.3,0.84-2.88,1.2c0.24,0.24,0.48,0.48,0.72,0.72c-1.14,0.34-0.62,0.22-1.2,0.96
	c-0.16-0.24-0.32-0.48-0.48-0.72c-0.46,2.07-1.7,1.89-2.16,3.84c-0.4,0-0.8,0-1.2,0c-1.61,4.92-7.64,7.46-10.08,12
	c-0.3-0.41-0.32-0.63-0.72-0.96c-0.07,2.31-2.12,2.88-3.36,4.8c-0.16-0.24-0.32-0.48-0.48-0.72c-0.48,0.96-0.96,1.92-1.44,2.88
	c-0.16-0.32-0.32-0.64-0.48-0.96c-0.3,1.19-1.04,1.86-1.68,2.88c-0.16-0.24-0.32-0.48-0.48-0.72c-0.35,1.81-1.44,2.41-2.4,3.6
	c-0.16-0.24-0.32-0.48-0.48-0.72c-0.55,2.95-7.56,8.21-9.6,10.8c-0.16-0.24-0.32-0.48-0.48-0.72c-0.6,1.68-2.75,3.3-4.08,4.32
	c0.7,0.13,1.18-0.19,0.72,0.48c-1.05,0.15-5.57,3.99-5.76,5.04c-0.4,0-0.8,0-1.2,0c-0.89,2.64-4.14,3.16-4.8,6c-0.4,0-0.8,0-1.2,0
	c-1.06,3.24-5.37,4.87-7.2,7.92c-0.16-0.24-0.32-0.48-0.48-0.72c-0.37,1.01,0.04,0.59-0.96,0.96c0.24,0.24,0.48,0.48,0.72,0.72
	c-2.57,0.17-2.01,1.41-4.08,1.92c0,0.4,0,0.8,0,1.2c-1.69,0.51-3.13,2.52-4.08,3.84c-0.24-0.24-0.48-0.48-0.72-0.72
	c0,0.08,0,0.16,0,0.24c0,0.48,0,0.96,0,1.44c-0.64,0.16-1.28,0.32-1.92,0.48c0.24,0.24,0.48,0.48,0.72,0.72
	c-4.68,1.43-9.39,10.52-13.92,10.8c0,0.4,0,0.8,0,1.2c-1.94,0.56-3.24,2.4-4.32,3.84c-0.16-0.24-0.32-0.48-0.48-0.72
	c-0.97,2.88-12.44,11.58-15.6,14.88c-0.08-0.32-0.16-0.64-0.24-0.96c-0.6,1.66-12.36,11.38-14.4,11.76c0,0.4,0,0.8,0,1.2
	c-1.48,0.2-1.91,0.74-2.88,1.44c0.88,0.22,0.49-0.01,0.96,0.48c-2.57,0.29-5.62,3.5-7.68,5.28c0.24,0.24,0.48,0.48,0.72,0.72
	c-4.73,0.23-5.66,5.25-9.84,6.24c0.24,0.24,0.48,0.48,0.72,0.72c-1.85,0.19-3.54,1.35-3.84,3.12c-4.91,0.96-13.83,10.6-18.96,13.44
	c0.88,0.22,0.49-0.01,0.96,0.48c-1.51,0.31-1.3,0.84-2.88,1.2c0.24,0.24,0.48,0.48,0.72,0.72c-2.3,0.1-3.33,1.39-4.8,2.4
	c0.52,0.36,1.04,0.04,0.72,0.72c-2.5,0.02-20.22,13.82-23.28,17.04c-0.22-0.88,0.01-0.49-0.48-0.96
	c-0.53,1.46-17.77,13.75-19.92,14.16c0.24,0.24,0.48,0.48,0.72,0.72c-3.09,0.09-3.38,2.51-6,2.88c0,0.4,0,0.8,0,1.2
	c-3.65,0.6-5.3,4.07-8.88,4.8c-0.28,1.8-8.63,6.12-9.84,6.24c-0.25,1.2,0.08,0.8-0.96,1.2c0.24,0.24,0.48,0.48,0.72,0.72
	c-2.4,0.03-7.57,2.92-7.92,5.04c-2.35,0.2-2.47,1.3-4.8,0.96c-0.33,2.69-4.5,4.87-6.96,5.28c0.24,0.24,0.48,0.48,0.72,0.72
	c-6.46,0.44-11.73,8.57-18,9.84c-0.08,0.4-0.16,0.8-0.24,1.2c-0.16-0.32-0.32-0.64-0.48-0.96c-0.44,1.41-5.1,3.8-6,3.12
	c-0.56,2.35-4.1,3.1-5.52,4.8c-0.53-0.49-0.32-0.6-0.72,0c-1.28,0.4-2.56,0.8-3.84,1.2c-0.08,0.56-0.16,1.12-0.24,1.68
	c-0.58,0.53-3.89,0.96-4.8,1.44c0.52,0.36,1.04,0.04,0.72,0.72c-4.1,0.27-6.83,3.99-10.8,4.8c0,0.4,0,0.8,0,1.2
	c-3.04,0.03-3.48,1.53-5.04,2.88c-1.59,1.37-5.76,1.25-6.96,2.16c-2.58,1.95-6.99,5.64-11.04,5.76c0,0.4,0,0.8,0,1.2
	c-2.44,0.04-2.82,0.8-4.8,1.2c0.24,0.24,0.48,0.48,0.72,0.72c-5.84,0.17-8.94,4.92-13.68,5.28c0,0.08,0,0.16,0,0.24
	c0.7,0.13,1.18-0.19,0.72,0.48c-7.96,0.33-15.95,8.8-23.04,8.88c0,0.4,0,0.8,0,1.2c-2.79,0.11-5.26,1.65-6.96,2.88
	c-1.28,0.08-2.56,0.16-3.84,0.24c-4.43,2.51-9.28,4.86-14.4,5.76c-0.43-0.86,0.13-0.28-0.72-0.72c-0.57,1.51-16.54,5.91-17.76,6.72
	c-0.32-0.16-0.64-0.32-0.96-0.48c0.52,0.71-1.82,0.43-2.16,0.48c-0.32,0.08-0.64,0.16-0.96,0.24c0.24,0.24,0.48,0.48,0.72,0.72
	c-4.66-0.05-12.53,2-15.84,3.36c0.88,1.52,1.76,3.04,2.64,4.56c5.82,0.02,9.05-0.94,15.12-0.96c0-0.4,0-0.8,0-1.2
	c7.91,0.06,14.82-0.9,21.36-1.92c0,0.32,0,0.64,0,0.96c1.4-1.2,18.48-1.92,18.48-1.92c0.08,0,0.16,0,0.24,0c1.6,0,3.2,0,4.8,0
	c1.73-1,5.8-0.96,11.76-0.96c1.76,0,3.52,0,5.28,0c0-0.32,0-0.64,0-0.96c0.24,0,0.48,0,0.72,0c0.85,0.03,0.15,0.66,1.2,0.72
	c1.26,0.07,0.79-1,1.68-0.48c0,0.16,0,0.32,0,0.48c1.12,0.52,1.15-0.66,1.92-0.48c0,0,19.7,0.53,21.36-0.48
	c0.72-0.44-0.14-0.81,1.44-0.96c0.41,0.99,0.81,0.16,3.12,0c0.08,0.32,0.16,0.64,0.24,0.96c0.44-1.35,1.89-1.1,3.6-0.96
	c0.05,0.1,16.61,0,20.64,0c16.08,0,32.16,0,48.24,0c5.27,0,15.26-1.38,18.72,0.96c0.63-2.11,3.3-0.63,4.08,0
	c0.85-2.38,4.72-0.27,6,0c0.36-1.18,0.07-0.84,1.44-0.96c0.88,2.3,10.96,1.2,14.16,1.2c7.13,0,11.46,0.28,14.64,0.96
	c5.76,0,11.52,0,17.28,0c7.2,2.54,27.44,0.49,34.8,2.88c4.18,1.36,10.01-1.28,12.96,0.96c0,0,12.42,0.97,12.96,1.2
	c2.48,0,4.96,0,7.44,0c3.53,0,14.77,1.3,15.6,1.92c3.04,0,6.08,0,9.12,0c4.48,2.36,16.41,0.26,19.44,2.88c0-0.32,0-0.64,0-0.96
	c0.48,0,0.96,0,1.44,0c0,0.32,0,0.64,0,0.96c2.64,0,5.28,0,7.92,0c2.62,1.63,6.58-0.14,9.12,1.2c4.13,2.18,16.72,1.25,18,1.92
	c0,0.32,0,0.64,0,0.96c1.68,1.24,11.43-0.63,13.44,1.92c0.36-1.18,0.07-0.84,1.44-0.96c1.26,2.03,5.97-0.7,8.16,0.96
	c5.39,4.08,20.87,0.52,26.4,5.04c0.72-0.94,0.85-1.02,2.64-0.96c0.96,1.54,10.37,1.5,12.48,2.88c0.36-1.18,0.07-0.84,1.44-0.96
	c0,0.4,0,0.8,0,1.2c3-0.05,10.48,0.18,12.96,1.2c-0.24,0.16-0.48,0.32-0.72,0.48c4.19,0.46,7.53,0.23,10.56,1.92
	c0.22-0.79-0.2-0.61,1.2-0.72c0.96,1.6,8.47,0.51,10.56,2.88c0.31-1.07-0.16-0.48,0.72-0.96c0.64,1.66,15.78,2.59,17.76,3.36
	c-0.24,0.16-0.48,0.32-0.72,0.48c2,0.08,4,0.16,6,0.24c3.23,2.43,28.18,4.27,30.24,6.96c0.31-1.07-0.16-0.48,0.72-0.96
	c0.31,0.56,13.98,3.58,15.6,4.08c1.36,0,2.72,0,4.08,0c2.55,1.28,10.01,1.31,13.92,3.84c1.44,0,2.88,0,4.32,0c0,0.32,0,0.64,0,0.96
	c1.6,0.08,3.2,0.16,4.8,0.24c0,0.32,0,0.64,0,0.96c1.61,1.05,7.5,0.03,8.88,0.96c2.1,1.42,5.29,2.11,8.16,2.88c0.96,0,1.92,0,2.88,0
	c0.4,0.26,0.26,0.98,0.96,1.2c1.04,0,2.08,0,3.12,0c2.01,1.01,13.58,4.86,19.92,4.8c0,0.4,0,0.8,0,1.2c3,0.01,5.13,0.87,6.96,1.92
	c1.36,0,2.72,0,4.08,0c0,0.32,0,0.64,0,0.96c1.04,0,2.08,0,3.12,0c0,0.32,0,0.64,0,0.96c1.28,0,2.56,0,3.84,0
	c0.76,0.45,2.16,1.9,3.12,2.16c1.28,0,2.56,0,3.84,0c0,0.32,0,0.64,0,0.96c1.04,0,2.08,0,3.12,0c0,0.32,0,0.64,0,0.96
	c1.04,0,2.08,0,3.12,0c2.59,1.31,6.14,2.77,9.84,2.88c0,0.4,0,0.8,0,1.2c6.66,0.25,11.36,4.61,18,4.8c0,0.4,0,0.8,0,1.2
	c7.07,0.02,10.59,4.82,17.04,4.8c0,0.4,0,0.8,0,1.2c2.03,0.2,6.73,1.66,9.12,3.6c10.19,1.56,22.32,10.26,32.88,13.44
	c0.16,0.56,0.32,1.12,0.48,1.68c0.63-0.59,0.24-0.52,1.44-0.72c0.84,2.51,7.92,4.46,10.32,6c7.22,4.64,15.98,9.19,22.08,15.6
	c0.24-0.24,0.48-0.48,0.72-0.72c0.7,3.45,4.74,3.2,5.04,6.96c-3.26,3.59-8.82,10.5-12.96,12.72c0.88,0.22,0.49-0.01,0.96,0.48
	c-1.3,0.4-1.64,1.36-2.88,1.2c0.24,0.32,0.48,0.64,0.72,0.96c-1.44,0.4-4.65,3.06-4.8,4.8c-0.4,0-0.8,0-1.2,0c0,0.4,0,0.8,0,1.2
	c-0.56,0.08-1.12,0.16-1.68,0.24c0.24,0.24,0.48,0.48,0.72,0.72c-1.96,0.32-3.12,2.5-4.08,3.84c-0.24-0.24-0.48-0.48-0.72-0.72
	c-0.16,0.64-0.32,1.28-0.48,1.92c-0.16-0.32-0.32-0.64-0.48-0.96c-0.15,1.9-4.26,5.59-5.28,5.76c0,0.4,0,0.8,0,1.2
	c-2.08,0.61-10.04,10.22-12.72,12.24c0.24,0.24,0.48,0.48,0.72,0.72c-2.51,0.77-3.58,3.03-5.76,4.32c0.52,0.36,1.04,0.04,0.72,0.72
	c-1.14,0.34-0.62,0.22-1.2,0.96c-0.16-0.24-0.32-0.48-0.48-0.72c-0.32,1.45-18.18,19.97-19.92,20.88c0.24,0.24,0.48,0.48,0.72,0.72
	c-2.01,0.68-1.9,2.6-4.08,3.12c-0.51,3.29-7.81,12.06-11.04,12c-1.04-3.25-13.28-7.67-17.04-9.36c0.24-0.16,0.48-0.32,0.72-0.48
	c-3.36-0.36-6.68-2.4-8.88-4.08c-1.62-1.24-4.41,0.05-6-1.2c-0.34-0.27-0.58-1.43-0.96-1.68c-1.04-0.08-2.08-0.16-3.12-0.24
	c0-0.32,0-0.64,0-0.96c-0.72,0-1.44,0-2.16,0c0-0.32,0-0.64,0-0.96c-0.96,0-1.92,0-2.88,0c-2.77-2.15-7.75-2.65-10.32-5.04
	c-0.31,1.07,0.16,0.48-0.72,0.96c-0.18-0.71-21.04-7.93-24.72-7.92c0-0.4,0-0.8,0-1.2c-4.43,0.04-3.09-1.28-6.48-1.68
	c-0.58,0.61-9.23-2.07-10.56-3.12c-1.28,0-2.56,0-3.84,0c-0.57-0.31-2.56-2-3.6-1.92c-3.37,0.25-14.88-3.69-19.44-5.28
	c-0.62-0.21-3.6-0.72-3.6-0.72c-0.12,0.01,0.28,1.12-0.48,0.72c-3.13-1.62-8.42-2.84-12-3.84c-1.04,0-2.08,0-3.12,0
	c-4.92-3.01-26.72-6.93-31.92-6.96c0-0.4,0-0.8,0-1.2c-7.94,0.08-19.9-4.76-30-4.8c0-0.4,0-0.8,0-1.2
	c-3.87,0.04-14.43-1.63-16.08-2.88c-1.55-1.18-8.98,0.11-11.04-0.96c-1.17-0.61-4.86-1.82-6-2.16c-4.82-1.43-14.48-0.36-17.76-2.88
	c-1.76,0-3.52,0-5.28,0c-3.2-1.61-12.47-0.81-13.92-2.4c0.64-0.08,1.28-0.16,1.92-0.24c-3.97-1.5-19.69-0.99-21.84-2.88
	c0.32,0,0.64,0,0.96,0c0-0.08,0-0.16,0-0.24c-2.98,0.19-11.83-0.47-15.12-2.16c-2.64,0-5.28,0-7.92,0c-0.36-0.21-0.3-0.99-0.96-1.2
	c-5.46-1.75-8.08,0.8-12.72-1.68c-0.23,0.83-0.67,0.84-2.4,0.72c-1.51-2.63-13.61-0.26-16.8-1.92c-1.96-1.02-7.78,0.03-9.36-0.96
	c-2.35-1.46-6.81,0.43-9.6-0.96c-6.13-3.05-14.93-1.17-21.12-3.12c-4-1.26-8.04,1.07-10.08-0.48c0.4-0.08,0.8-0.16,1.2-0.24
	c-5.12-0.15-18.41-0.12-21.6-2.16c-0.39,1.26-1.05,1.09-2.64,0.96c-0.77-2.06-11.21-0.45-13.44-1.92c-0.13,0.7,0.19,1.18-0.48,0.72
	c-0.63-1.83-8.54-1.05-11.04-0.96c-2.18-2.41-26.73-0.73-34.08-1.92c-1.06-0.17-0.45-0.62-1.68-0.72c-1.4-0.11-1.11,0.37-1.68,0.72
	c-0.84,0.51-0.54-0.51-0.72-0.72c-0.29-0.34-13.46,0.26-13.92-0.96c0,0-8.59,0.87-8.88,0.72c-1.58-0.79-3.74-0.96-6.48-0.96
	c-3,0-14.86,0.66-15.6-0.96c-0.34-0.73-0.48,0.96-0.48,0.96c-1.65,0.94-11.09-0.36-12-0.72c-0.24-0.08-0.48-0.16-0.72-0.24
	c-0.48,0.63-0.15,0.55-0.96,0.96c-1.58-2.52-10.95,0.32-12,0c-7.97-2.43-35.21-1.06-37.2,0c-0.81,0.43-0.57-0.39-0.72-0.72
	c-0.25-0.15-3.68,1.48-4.8,0.24c0.32,0,0.64,0,0.96,0c-0.48-0.16-0.96-0.32-1.44-0.48c-0.94,1.69-3.08,0.96-4.08,0
	c-0.32,0.08-0.64,0.16-0.96,0.24c0,0.08,0,0.16,0,0.24c0.88,0.22,0.49-0.01,0.96,0.48c-9.39,0.01-23.45-0.38-25.92,0.96
	c-2.24,0-4.48,0-6.72,0c-5.31,0-13.16,0.35-14.4,0.96c-3.04,0-6.08,0-9.12,0c-2.98,0.54-11.07,0.4-13.68,1.92
	c-1.22,0.71-4.84-0.86-5.28-0.72c-3.98,1.29-8.04,1.93-13.2,1.92c2.12,39.14-0.52,77.88-9.12,109.2c-3.2,10.4-6.4,20.8-9.6,31.2
	c-2.32,5.76-4.64,11.52-6.96,17.28c3.32,0.06,6.93,1.59,8.88,2.88c1.36,0.08,2.72,0.16,4.08,0.24c2.83,1.57,12.46,4.78,16.8,4.8
	c0,0.4,0,0.8,0,1.2c6.53,0.03,10.37,4.61,17.04,4.8c0,0.4,0,0.8,0,1.2c2.06,0.33,5.14,1.26,6.96,2.16
	c-0.24,0.16-0.48,0.32-0.72,0.48c8.52,1.02,13.35,7.62,21.84,8.16c0,0.4,0,0.8,0,1.2c1.89-0.04,9.04,3.21,9.12,4.56
	c1.42-1.22,1.66,0.03,3.84,0.24c0.08,0.64,0.16,1.28,0.24,1.92c3.44,0,13.43,4.74,13.92,6.96c0.67-0.63,0.53-0.65,1.92-0.72
	c0.49,1.96,3.08,2.29,3.84,1.92c0.16,0.56,0.32,1.12,0.48,1.68c0.63-0.59,0.24-0.52,1.44-0.72c1.9,2.8,14.39,8.61,18.24,10.32
	c-0.32,0.16-0.64,0.32-0.96,0.48c2.59,0.19,10.37,4.83,12.96,6.48c-0.41,0.3-0.63,0.32-0.96,0.72c2.78-0.38,7.58,2.9,9.12,4.8
	c0.78-1.25,3.67,2.21,4.8,3.12c0.72,0.08,1.44,0.16,2.16,0.24c3.18,2.11,9.47,6.83,14.88,9.12c-0.32,0.16-0.64,0.32-0.96,0.48
	c2.02,0.26,1.84,0.97,3.84,1.2c0,0.4,0,0.8,0,1.2c4.22,0.66,10.67,6.13,13.2,8.64c1.28,0.4,2.56,0.8,3.84,1.2
	c0.08,0.64,0.16,1.28,0.24,1.92c0.88,0.08,1.76,0.16,2.64,0.24c2.19,1.6,4.83,3.73,7.2,5.76c2.03,1.74,8.39,3.37,8.88,6.24
	c3.92,0.68,5.53,4.42,9.12,4.8c0,0.4,0,0.8,0,1.2c1.31,0.39,2.62,1.42,3.84,2.16c-0.24,0.16-0.48,0.32-0.72,0.48
	c2.08,0.32,3.3,1.75,4.32,3.12c1.18-1.33,4.46,2.26,5.76,3.84c0.44-0.67,11.45,8.11,14.64,9.6c-0.24,0.16-0.48,0.32-0.72,0.48
	c5.41,1.1,8.36,8.44,13.68,9.12c0,0.4,0,0.8,0,1.2c0.4,0,0.8,0,1.2,0c1.35,3.69,13.13,8.58,13.92,12c3.1,0.54,5.37,3.5,7.92,5.04
	c-0.24,0.24-0.48,0.48-0.72,0.72c2.37,0.43,7.17,3.98,7.68,6.24c0.48,0,0.96,0,1.44,0c1.09,2.61,4.77,3.46,6.72,5.28
	c-0.88,0.22-0.49-0.01-0.96,0.48c1.89,0.23,7.85,5.04,8.16,6.96c0.24-0.24,0.48-0.48,0.72-0.72c0.48,2.84,3.27,2.33,5.04,3.84
	c1.17,1,1.67,3.12,2.88,4.08c0.94,0.75,2.16,0,2.16,0c1.14,0.95,1.14,2.75,2.16,3.84c2.08,2.21,6.99,2.73,7.68,6.24
	c0.4,0,0.8,0,1.2,0c0.43,1.42,4.52,4.51,6,4.8c0,0.4,0,0.8,0,1.2c0.97,0.3,5.02,3.47,6,4.32c-0.32,0.08-0.64,0.16-0.96,0.24
	c1.44,0.3,2.84,1.56,3.12,3.12c0.24-0.24,0.48-0.48,0.72-0.72c0.34,1.14,0.22,0.62,0.96,1.2c-0.24,0.16-0.48,0.32-0.72,0.48
	c1.75,0.28,3.54,1.62,3.84,3.36c2.46,0.38,11.75,9.5,13.44,11.76c0.13-0.7-0.19-1.18,0.48-0.72c0.08,0.56,0.16,1.12,0.24,1.68
	c0.24-0.24,0.48-0.48,0.72-0.72c0.34,1.14,0.22,0.62,0.96,1.2c-0.24,0.16-0.48,0.32-0.72,0.48c1.57,0.3,15.57,13.76,15.84,15.12
	c0.4,0,0.8,0,1.2,0c1.54,4.85,10.86,8.31,12.96,13.92c0.24-0.24,0.48-0.48,0.72-0.72c0.47,1.35,1.82,2.44,2.64,3.84
	c0.22-0.88-0.01-0.49,0.48-0.96c0.58,1.74,1.74,1.69,2.16,3.84c0.24-0.24,0.48-0.48,0.72-0.72c0.45,2.67,5.48,5.23,7.2,6.96
	c0,0.56,0,1.12,0,1.68c1.13,1.62,4.35,3.05,6,4.32c1.45,1.11,1.71,3.57,2.88,5.04c1.51,1.9,4.35,3,6,4.8c1.53,1.68,3.29,5.76,6,6
	c0.08,0.64,0.16,1.28,0.24,1.92c1.55,0.57,12.32,11.83,12.72,13.44c-0.73,0.3-0.29,0-0.72,0.48c0.56,0,1.12,0,1.68,0
	c0,0.4,0,0.8,0,1.2c0.4,0,0.8,0,1.2,0c0.34,1.14,0.22,0.62,0.96,1.2c-0.41,0.3-0.63,0.32-0.96,0.72c1.97,0.16,2.81,1.07,3.12,2.88
	c0.24-0.24,0.48-0.48,0.72-0.72c0.21,1.82,0.71,1.68,2.16,2.16c0,0.32,0,0.64,0,0.96c-1.07,0.31-0.48-0.16-0.96,0.72
	c2.37,0.34,4.12,3.01,5.76,4.32c-0.24,0.24-0.48,0.48-0.72,0.72c3.69-0.25,9.13,13.11,13.92,14.16c0,0.64,0,1.28,0,1.92
	c1.52,0.44,2.66,2.41,3.12,3.84c0.24-0.24,0.48-0.48,0.72-0.72c0.32,0.96,0.64,1.92,0.96,2.88c0.4,0,0.8,0,1.2,0
	c0.35,1.23,1.02,1.53,1.92,2.16c-0.24,0.24-0.48,0.48-0.72,0.72c1.67,0.6,1.55,2.03,2.64,3.12c0.9,0.89,3.33,2.23,4.08,3.12
	c0.88,1.05,0.41,2.74,1.2,3.84c1.12-0.35,8.58,10.62,10.8,12.24c-0.24,0.16-0.48,0.32-0.72,0.48c1.06,0.41,0.66,0.4,1.2,1.2
	c0.22-0.88-0.01-0.49,0.48-0.96c0.34,2.03,1.57,3.41,3.12,4.32c-0.32,0.16-0.64,0.32-0.96,0.48c3.16,0.76,8.58,12.84,12.96,15.6
	c-0.32,0.16-0.64,0.32-0.96,0.48c1.27,0.36,1.95,1.46,2.16,2.88c0.24-0.24,0.48-0.48,0.72-0.72c0.51,2.43,2.39,3.56,2.88,6
	c0.4,0,0.8,0,1.2,0c0.68,2.43,10.29,16.67,12,17.04c0.12,5.61,9.91,12.99,10.8,18.96c0.4,0,0.8,0,1.2,0c0,0.72,0,1.44,0,2.16
	c2.08,0.34,5.53,9.13,7.92,11.04c-0.24,0.24-0.48,0.48-0.72,0.72c1.01,0.54,1.71,1.67,2.64,2.4c-0.59,0.63-0.52,0.24-0.72,1.44
	c1.12,0.39,1.52,1.07,1.68,2.4c0.57,0.08,5.76,7.47,6,9.84c0.4,0,0.8,0,1.2,0c0.29,6.31,6.26,9.68,7.2,15.84
	c0.24-0.24,0.48-0.48,0.72-0.72c0.23,3.35,2.59,4.53,2.88,7.92c0.4,0,0.8,0,1.2,0c0.19,2.96,4.67,11.48,6.24,14.88
	c0.3-0.41,0.32-0.63,0.72-0.96c0.04,5.68,3.78,5.77,3.84,11.04c0.4,0,0.8,0,1.2,0c0.14,4.21,5.05,9.24,4.08,12
	c3.82,1.91,6.79,20.68,10.8,24.24c-0.24,0.24-0.48,0.48-0.72,0.72c1.21,0.41,2.72,5.6,2.64,8.16c0.4,0.08,0.8,0.16,1.2,0.24
	c-0.32,0.16-0.64,0.32-0.96,0.48c2.17,0.82,3.06,7.37,3.84,10.32c2.25,8.49,7.94,18.93,7.92,28.8c0.4,0,0.8,0,1.2,0
	c-0.1,2.32,0.12,3.39,0.96,4.56c-0.32,0.08-0.64,0.16-0.96,0.24c2.38,1.16,0.63,6.31,1.92,8.4c2.7,4.38,1.03,8.64,2.88,14.88
	c2.83,9.57,2.52,19.66,5.04,30.48c0.89,3.83,0.47,14.68,0.24,14.88c0,0.16,0,0.32,0,0.48c1.07,3.27,2.04,16.32,0.72,20.4
	c-49.04,0-98.08,0-147.12,0c0.05-10.25-0.27-27.56-3.12-33.12c0-2.32,0-4.64,0-6.96c-0.56-0.91-1.29-3.39-1.92-4.32
	c0.32-0.08,0.64-0.16,0.96-0.24c-1.18-1.08-1.92-6.73-2.88-8.4c0-1.36,0-2.72,0-4.08c-1.33-2.34-1.81-6.37-3.12-8.64
	c0-1.12,0-2.24,0-3.36c-1.83-3.16-3.78-8.51-3.84-12.96c-0.4,0-0.8,0-1.2,0c-0.06-3.1-1.44-4.34-0.96-6.72
	c-0.32,0.24-0.64,0.48-0.96,0.72c-0.07-4.37-2.67-7.96-4.08-11.28c0.32-0.08,0.64-0.16,0.96-0.24c-1.29-0.98-2.54-2.71-2.88-4.56
	c0.32-0.16,0.64-0.32,0.96-0.48c-1.39-1.03-1.9-1.85-2.16-4.08c-0.24,0.24-0.48,0.48-0.72,0.72c-0.06-2.56-0.83-2.62-0.96-5.04
	c-0.4,0-0.8,0-1.2,0c0-0.96,0-1.92,0-2.88c-1.13-0.31-1.74-1.14-1.92-2.4c0.32-0.16,0.64-0.32,0.96-0.48
	c-2.06-0.76-7.07-13.05-8.88-15.6c0.24-0.08,0.48-0.16,0.72-0.24c-1.72-1.73-9.74-16.78-10.08-19.2c-0.24,0.24-0.48,0.48-0.72,0.72
	c-0.29-6.31-6.24-8.95-7.2-14.64c-0.24,0.24-0.48,0.48-0.72,0.72c-0.24-4.63-4.77-8.1-6.96-11.04c0-0.64,0-1.28,0-1.92
	c-0.4-0.08-0.8-0.16-1.2-0.24c-0.67-1.09-0.23-1.95-0.96-2.88c-0.32,0-0.64,0-0.96,0c-0.08-0.88-0.16-1.76-0.24-2.64
	c-2.62-3.43-6.04-7.02-7.68-10.8c0.24-0.08,0.48-0.16,0.72-0.24c-1.39-0.23-2-0.76-2.64-1.68c0.24-0.08,0.48-0.16,0.72-0.24
	c-1.88-1.59-5.21-5.77-5.76-8.4c-0.4,0-0.8,0-1.2,0c0-0.56,0-1.12,0-1.68c-1.86-0.72-4.44-5.06-4.8-7.2c-0.4,0-0.8,0-1.2,0
	c-0.91-3.2-8.32-12.26-10.32-14.88c-0.22,0.88,0.01,0.49-0.48,0.96c0-0.72,0-1.44,0-2.16c-0.4,0-0.8,0-1.2,0
	c-1.34-4.11-5.5-6.78-7.92-9.84c-0.43-0.55-1.53-3.56-1.92-4.08c-0.38-0.51-1.73-0.5-2.16-0.96c-1.9-2.06-4.93-7.18-6.24-9.84
	c-0.24,0.24-0.48,0.48-0.72,0.72c-0.08-0.56-0.16-1.12-0.24-1.68c-0.24,0.24-0.48,0.48-0.72,0.72c-0.41-2.7-2.35-2.52-2.88-5.04
	c-0.4,0-0.8,0-1.2,0c-1.18-4.33-6.24-6.81-8.88-10.32c0.73-0.3,0.29,0,0.72-0.48c-1.44-0.4-2.61-1.12-2.64-3.12c-0.4,0-0.8,0-1.2,0
	c0-0.56,0-1.12,0-1.68c-2.12-0.51-8.8-8.32-9.12-10.08c-0.24,0.24-0.48,0.48-0.72,0.72c-0.28-2.37-0.76-1.3-2.16-2.4
	c0.32-0.08,0.64-0.16,0.96-0.24c-2.38-1.6-4.03-5.58-6.96-6.24c-0.89-4.89-9.95-7.84-10.8-13.2c-0.4,0-0.8,0-1.2,0
	c-0.89-2.64-4.14-3.16-4.8-6c-0.4,0-0.8,0-1.2,0c-0.44-2.4-3.92-4.56-5.28-6.72c-0.24,0.24-0.48,0.48-0.72,0.72
	c-0.9-2.84-4.21-3.64-4.8-6c-0.4,0-0.8,0-1.2,0c-0.69-2.16-3.1-3.66-4.32-5.76c-0.22,0.88,0.01,0.49-0.48,0.96c0-0.4,0-0.8,0-1.2
	c-0.4,0-0.8,0-1.2,0c-0.92-2.83-4.13-3.11-4.8-6c-0.4,0-0.8,0-1.2,0c-0.89-2.64-4.14-3.16-4.8-6c-0.4,0-0.8,0-1.2,0
	c-0.74-2.05-2.55-1.24-3.12-3.6c-0.24,0.24-0.48,0.48-0.72,0.72c-0.49-2.67-4.47-4.52-6-6.48c0.24-0.08,0.48-0.16,0.72-0.24
	c-1.59-0.34-1.37-0.86-2.88-1.2c0-0.4,0-0.8,0-1.2c-4.33-1.28-7.39-9.04-12-9.84c0-0.64,0-1.28,0-1.92
	c-4.22-0.53-8.12-6.61-10.8-9.12c-0.83-0.78-2.17-0.23-3.12-0.96c-0.08-0.64-0.16-1.28-0.24-1.92c-0.82-1.08-5.96-4.98-7.68-5.04
	c-0.08-0.64-0.16-1.28-0.24-1.92c-3.06-0.46-9.75-8.59-13.92-10.32c-0.08-0.56-0.16-1.12-0.24-1.68c-0.24,0.24-0.48,0.48-0.72,0.72
	c-1.57-4.61-11.95-7.68-12.96-12c-1.92-0.13-0.55-0.45-1.92,0c-1.33-4.03-7.21-5.7-10.08-8.4c0.32,0,0.64,0,0.96,0
	c-1.47-0.75-3.46-1.85-3.84-3.6c-3.35-0.3-14.19-10.87-18.96-13.2c0.24-0.16,0.48-0.32,0.72-0.48c-2.95-0.59-2.57-2.86-5.76-3.12
	c0-0.4,0-0.8,0-1.2c-3.47-0.76-4.41-4.32-8.16-4.8c-0.08-0.64-0.16-1.28-0.24-1.92c-0.54,0.29-1.22,0.31-2.64-0.48
	c0.24-0.16,0.48-0.32,0.72-0.48c-1.64-0.5-5.45-2.39-5.76-4.32c-1.81-0.3-3.4-1.34-5.04-2.16c0.24-0.16,0.48-0.32,0.72-0.48
	c-1.27-0.43-3.67-1.74-4.8-2.64c0.32-0.08,0.64-0.16,0.96-0.24c-2.33-1.3-6.53-4.84-7.92-4.32c-0.26-0.94-0.9-2.03-1.44-2.88
	c-0.63,0.59-0.24,0.52-1.44,0.72c-0.42-1.39-1.48-1.79-2.4-2.64c-0.24,0.24-0.48,0.48-0.72,0.72c-0.44-1.77-2.27-2.77-3.84-2.88
	c0-0.4,0-0.8,0-1.2c-1.87-0.29-3.37-1.34-5.04-2.16c0.24-0.16,0.48-0.32,0.72-0.48c-1.55-0.22-4.53-1.8-4.8-3.36
	c-0.64,0-1.28,0-1.92,0c-0.58-2.97-5.3-3.2-6.96-5.28c0.73-0.3,0.29,0,0.72-0.48c-4.73-0.65-6.12-4.64-10.8-5.04c0-0.4,0-0.8,0-1.2
	c-1.07-0.3-1.73-0.99-2.4-1.68c-0.24,0.24-0.48,0.48-0.72,0.72c-0.57-1.69-7.41-5.29-9.84-6.24c0.24-0.16,0.48-0.32,0.72-0.48
	c-1.66-0.22-9.95-4.9-9.84-6c-0.32,0.24-0.64,0.48-0.96,0.72c-0.45-1.3-0.79-0.75-1.92-1.2c0.24-0.16,0.48-0.32,0.72-0.48
	c-1.51-0.31-1.37-0.79-2.64-1.2c4.56,6.72,9.12,13.44,13.68,20.16c5.68,9.84,11.36,19.68,17.04,29.52
	c17.32,29.65,28.16,64.62,38.88,100.56c20.64,69.17,21.83,176.18,3.36,248.64c-33.78,132.51-106.79,238.05-223.2,287.52
	c-20.93,8.9-43.54,14.41-68.64,19.44c-12.16,2.44-25.21,1.2-38.4,3.36c-4.16-0.08-8.32-0.16-12.48-0.24
	c-5.04-0.16-10.08-0.32-15.12-0.48c-10.29-1.68-20.83-2.01-30.24-4.08c-11.07-2.44-21.28-4.01-31.44-7.2
	c-39.13-12.27-71.15-30.17-100.56-51.84c-64.85-47.78-115.07-121.93-142.08-207.36c-6.07-19.19-10.25-38.65-14.88-59.76
	c-3.29-14.98-4.24-31.36-6.96-47.52c-0.48-8-0.96-16-1.44-24c-1.37-8.67-1.95-27.9-0.48-36.96c0-2.72,0-5.44,0-8.16
	c0.64-9.84,1.28-19.68,1.92-29.52c3.88-23.03,5.21-45.25,10.56-66.24c16.17-63.45,39.09-115.98,71.28-162.72
	c-0.24-0.08-0.48-0.16-0.72-0.24c-0.26,0.96-0.83,1.56-1.44,2.16c-0.08-0.32-0.16-0.64-0.24-0.96c-0.42,1.23-4.2,3.6-5.52,3.84
	c-0.43-0.86,0.13-0.28-0.72-0.72c-0.1,1.05,0.01,0.52-0.96,1.2c0.88,0.22,0.49-0.01,0.96,0.48c-2.25-0.01-2.49,0.65-3.36,1.92
	c-0.24-0.24-0.48-0.48-0.72-0.72c-0.24,1.1-10.49,7.06-11.76,6.96c0,0.08,0,0.16,0,0.24c0.24,0.24,0.48,0.48,0.72,0.72
	c-1.94,0.5-4.39,3.8-7.92,3.84c0,0.4,0,0.8,0,1.2c-3.07,0.88-8.3,4.32-10.8,6.24c0.24,0.24,0.48,0.48,0.72,0.72
	c-2.24-0.02-2.85,0.55-4.08,1.44c0.88,0.22,0.49-0.01,0.96,0.48c-0.88,0.08-1.76,0.16-2.64,0.24c0.24,0.24,0.48,0.48,0.72,0.72
	c-0.96,0.32-1.92,0.64-2.88,0.96c-0.17,0.77-7.15,6-9.12,6c0,0.4,0,0.8,0,1.2c-2.48,0.3-2.42,1.78-3.84,2.88
	c-1.28,0.99-2.06,0.83-3.12,1.92c-0.24-0.24-0.48-0.48-0.72-0.72c-0.32,0.64-0.64,1.28-0.96,1.92c-0.72,0-1.44,0-2.16,0
	c-2,1.76-2.82,4.36-6.24,4.8c0,0.4,0,0.8,0,1.2c-0.56,0-1.12,0-1.68,0c-0.74,2.06-15.28,12.62-18,13.2
	c0.24,0.24,0.48,0.48,0.72,0.72c-1.98,0.62-2.93,2.4-5.04,2.88c0,0.4,0,0.8,0,1.2c-6.68,1.12-9.31,9.49-15.84,10.8
	c0,0.4,0,0.8,0,1.2c-1.52,0.43-2.54,1.73-3.36,2.88c-0.83-0.5-2.88,1.42-4.56,2.4c0.52,0.36,1.04,0.04,0.72,0.72
	c-3.32,1.02-4.34,4.12-7.92,4.8c0,0.4,0,0.8,0,1.2c-1.69,0.38-2.76,1.27-2.88,2.88c-0.96,0.08-1.92,0.16-2.88,0.24
	c0.24,0.24,0.48,0.48,0.72,0.72c-3.02,0.92-4.99,5.5-8.64,6.24c-0.08,0.64-0.16,1.28-0.24,1.92c-4.78,0.67-4.86,5.48-9.84,6.24
	c0.24,0.24,0.48,0.48,0.72,0.72c-1.44,0.4-4.65,3.06-4.8,4.8c-0.72,0.08-1.44,0.16-2.16,0.24c-0.39,1.27-1.4,1.93-2.16,2.88
	c-0.16-0.24-0.32-0.48-0.48-0.72c-0.42,1.91-9.51,9.18-11.52,11.76c-0.16-0.24-0.32-0.48-0.48-0.72c-0.16,0.56-0.32,1.12-0.48,1.68
	c-1.08-0.26-0.76-0.37-1.68-0.72c-0.6,2.97-3.77,4.81-6,6.24c0.88,0.22,0.49-0.01,0.96,0.48c-2.52,0.49-9.03,6.98-10.32,9.12
	c-0.16-0.32-0.32-0.64-0.48-0.96c-0.64,4.09-5.72,5.69-8.16,8.16c-6.36,6.41-13.9,12.55-19.44,19.68c-0.16-0.24-0.32-0.48-0.48-0.72
	c-1,4.46-12.54,11.92-15.36,16.8c-0.24-0.24-0.48-0.48-0.72-0.72c-0.36,1.94-4.07,6.57-6,6.96c0.24,0.24,0.48,0.48,0.72,0.72
	c-2.11,0.28-2.32,1.34-3.12,2.88c-0.16-0.24-0.32-0.48-0.48-0.72c-0.48,0.96-0.96,1.92-1.44,2.88c-0.24-0.24-0.48-0.48-0.72-0.72
	c0,0.56,0,1.12,0,1.68c-0.4,0-0.8,0-1.2,0c-1.06,3.22-4.96,4.63-6.96,6.96c-0.72,0.84-0.26,2.22-0.96,3.12
	c-0.97,1.25-2.87,1.81-4.08,2.88c-1.74,1.55-2.7,4.09-4.08,6c-0.24-0.24-0.48-0.48-0.72-0.72c0,0.56,0,1.12,0,1.68
	c-0.4,0-0.8,0-1.2,0c-1.18,3.7-9.91,11.09-12.72,14.16c-0.72,0.78-0.5,2.04-1.2,2.88c-0.32,0.38-1.63,0.57-1.92,0.96
	c0,0.64,0,1.28,0,1.92c-0.96,0.48-1.92,0.96-2.88,1.44c-1.22,1.42-1.49,3.31-2.64,4.8c-0.08-0.32-0.16-0.64-0.24-0.96
	c-0.39,2.6-6.92,8.5-8.64,11.76c-0.16-0.24-0.32-0.48-0.48-0.72c-0.27,1.76-1.62,3.58-2.64,4.8c-0.08-0.24-0.16-0.48-0.24-0.72
	c-0.3,0.99-1.11,2.45-2.4,2.64c-0.39,2-3.07,5.63-4.32,7.2c-0.08-0.32-0.16-0.64-0.24-0.96c-0.53,1.56-1.79,3.06-2.64,4.8
	c-0.16-0.24-0.32-0.48-0.48-0.72c-1.21,5.45-8.45,7.96-9.12,13.68c-0.4,0-0.8,0-1.2,0c0,0.48,0,0.96,0,1.44
	c-0.68,0.19-1.53,1.46-2.64,2.16c0.59,0.63,0.52,0.24,0.72,1.44c-3.85,0.8-10.38,15.31-12.96,18.96c-0.99,1.41-3.08,2.65-4.08,4.08
	c-1.68,2.41-1.83,7.18-5.04,7.92c-0.19,1.98-1.33,3.35-2.16,5.04c-0.16-0.24-0.32-0.48-0.48-0.72c-0.95,5.74-7.83,9.85-8.16,15.84
	c-0.4,0-0.8,0-1.2,0c-0.02,0.94-10.1,21.08-11.76,22.32c0.52,0.36,1.04,0.04,0.72,0.72c-1.1,0.44-1.83,2.3-2.64,3.12
	c0.24,0.24,0.48,0.48,0.72,0.72c-1.75,0.6-3.8,5.93-3.84,8.16c-0.4,0-0.8,0-1.2,0c-0.04,1.93-0.71,2.44-1.68,3.36
	c0.59,0.63,0.52,0.24,0.72,1.44c-2.1,0.62-4.1,8.18-5.28,11.04c-0.16-0.24-0.32-0.48-0.48-0.72c-0.71,5.98-3.9,7.8-4.08,13.68
	c-0.4,0-0.8,0-1.2,0c-0.12,3.67-2.26,8.34-3.84,11.04c0,1.04,0,2.08,0,3.12c-2.78,4.69-3.21,12.19-6,17.04c0,1.6,0,3.2,0,4.8
	c-2.08,3.59-2.02,9.61-4.08,13.2c-1.83,3.2-0.49,16.1-2.88,18.24c0.49,0.55,0.61,0.41,0.96,1.2c-1.49,1.89-0.6,7.12-1.92,9.12
	c0.59,0.28,1.56,0.18,0.96,1.44c-1.67,3.54-1.03,8.7-1.2,13.92c-49.04,0-98.08,0-147.12,0c-0.12-26.65,1.52-52.1,6.72-71.04
	c-0.9-0.48-0.51-0.02-0.72-1.2c3.32-1.34,0.16-5.92,1.92-8.88c0.32,0,0.64,0,0.96,0c0-1.44,0-2.88,0-4.32
	c0.22-0.35,0.98-0.07,1.2-0.72c0-1.36,0-2.72,0-4.08c1.1-1.84,2.48-6.27,2.88-7.92c0.08-1.36,0.16-2.72,0.24-4.08
	c0.16,0.32,0.32,0.64,0.48,0.96c0.3-3.4,1.16-3.85,1.2-7.92c0.4,0,0.8,0,1.2,0c0.01-3.66,7.92-30.51,10.56-33.36
	c-0.24-0.16-0.48-0.32-0.72-0.48c4.23-3.17,3.07-10.86,6.72-14.64c-0.24-0.08-0.48-0.16-0.72-0.24c1.24-1.47,6.9-14.18,6.96-17.28
	c0.4,0,0.8,0,1.2,0c0.23-1.92,2.13-6.93,3.12-9.12c0.16,0.32,0.32,0.64,0.48,0.96c0.06-2.03,0.54-3.6,2.16-4.08
	c-0.41-0.3-0.63-0.32-0.96-0.72c0.4,0,0.8,0,1.2,0c0.36-8.01,10.11-16.04,10.8-24c0.4,0,0.8,0,1.2,0c0-0.72,0-1.44,0-2.16
	c1.55-0.51,4.7-7.09,4.8-8.88c0.4,0,0.8,0,1.2,0c0-1.72,0.56-2.59,1.68-3.12c-0.24-0.24-0.48-0.48-0.72-0.72
	c1.83-1.32,3.79-4.37,3.84-7.2c1.85-0.36,0.79-0.99,1.92-0.24c0.07-3.26,2.87-7.7,5.04-9.12c-0.41-0.3-0.63-0.32-0.96-0.72
	c2.4-0.48,2.56-2.67,3.36-4.8c0.16,0.24,0.32,0.48,0.48,0.72c0.16-0.96,0.32-1.92,0.48-2.88c0.3,0.41,0.32,0.63,0.72,0.96
	c0.05-1.84,0.8-1.59,0.96-3.84c0.4,0,0.8,0,1.2,0c0.17-1.18,0.65-2.19,1.2-3.12c0.16,0.32,0.32,0.64,0.48,0.96
	c0.45-4,3.84-7.44,5.52-10.8c0.16,0.24,0.32,0.48,0.48,0.72c0.39-2.57,2.07-4.24,4.08-5.28c-0.81-0.63-0.71-0.1-0.96-1.44
	c0.4,0,0.8,0,1.2,0c0.57-2.91,6.52-10.74,8.64-12.48c-0.24-0.16-0.48-0.32-0.72-0.48c1.32-1.14,2.22-3.63,4.08-4.08
	c0-0.72,0-1.44,0-2.16c1.86-0.55,2.29-2.26,3.12-3.84c0.16,0.24,0.32,0.48,0.48,0.72c0.32-1.96,2.54-5.22,4.08-6
	c-0.24-0.16-0.48-0.32-0.72-0.48c1.7-1.37,2.77-4.77,5.04-5.28c0.37-2.25,3.69-7.47,6-7.92c0-0.72,0-1.44,0-2.16
	c2.69-0.9,3.2-4.33,5.76-5.28c-0.41-0.3-0.63-0.32-0.96-0.72c0.4,0,0.8,0,1.2,0c0.49-2.98,10.24-14.35,12.72-16.32
	c-0.24-0.16-0.48-0.32-0.72-0.48c2.16-1.65,3.62-3.87,5.76-5.52c-0.52-0.36-1.04-0.04-0.72-0.72c2.17-0.66,3.07-2.93,4.08-4.8
	c0.24,0.24,0.48,0.48,0.72,0.72c0.09-1.82,6.5-9.51,8.16-9.84c0-0.64,0-1.28,0-1.92c2.99-0.6,2.9-4.31,6-5.04c0-0.4,0-0.8,0-1.2
	c1.29-0.62,1.51-1.82,2.64-1.92c-0.24-0.24-0.48-0.48-0.72-0.72c2.91-2.19,5.3-4.96,7.2-8.16c0.16,0.24,0.32,0.48,0.48,0.72
	c0.22-1.56,0.84-2.4,2.4-2.64c0-0.4,0-0.8,0-1.2c2.31-0.76,5.08-5.74,7.68-7.44c-0.24-0.08-0.48-0.16-0.72-0.24
	c1.37-0.97,3.46-2.42,3.84-4.32c0.4,0,0.8,0,1.2,0c0-0.4,0-0.8,0-1.2c1.59-0.61,3.5-2.97,3.84-4.8c0.64,0,1.28,0,1.92,0
	c0.41-1.88,9.54-11.98,12-12.24c-0.32-0.16-0.64-0.32-0.96-0.48c2.71-2.87,4.99-4.88,7.44-8.16c0.16,0.24,0.32,0.48,0.48,0.72
	c0.39-1.84,2.59-3.28,3.84-4.32c-0.24-0.08-0.48-0.16-0.72-0.24c5.06-2.84,7.45-9.52,12.96-11.52c0-0.56,0-1.12,0-1.68
	c0.4,0,0.8,0,1.2,0c0.78-2.77,4.76-4.66,6.96-6.24c-0.74-2.14,4.64-4.51,6-5.76c4.75-4.34,8.6-9.33,13.68-13.44
	c-0.24-0.08-0.48-0.16-0.72-0.24c0.62-0.48,0.72-0.58,1.2-1.2c0.16,0.32,0.32,0.64,0.48,0.96c0.34-1.62,2.67-3.33,4.08-3.12
	c-0.24-0.24-0.48-0.48-0.72-0.72c1.96-1.47,3.79-3.34,5.28-5.28c0.16,0.32,0.32,0.64,0.48,0.96c0.27-2.3,3.04-4.48,5.28-4.8
	c0-0.4,0-0.8,0-1.2c3.05-1,10.38-9.52,12.96-12c0.56-0.08,1.12-0.16,1.68-0.24c0.08-0.56,0.16-1.12,0.24-1.68
	c1.04-0.32,2.08-0.64,3.12-0.96c1.52-1.28,2.28-3.81,3.84-5.04c2.18-1.72,3.75-1.68,5.28-4.08c0.16,0.32,0.32,0.64,0.48,0.96
	c0.35-1.17-0.08-0.73,1.2-0.96c0.08-0.64,0.16-1.28,0.24-1.92c3.03-0.45,5.65-3.94,7.2-6c0.16,0.24,0.32,0.48,0.48,0.72
	c0.46-1.95,14.5-12.67,17.04-14.16c-0.24-0.08-0.48-0.16-0.72-0.24c0.62-0.48,0.72-0.58,1.2-1.2c0.98,0.67,0.01,0.14,1.68,0
	c0-0.4,0-0.8,0-1.2c4.45-1.21,11.04-10.71,14.88-10.8c0-0.4,0-0.8,0-1.2c4.3-0.75,8.14-6.32,11.04-8.88
	c1.04-0.32,2.08-0.64,3.12-0.96c1.88-1.57,3.21-3.01,5.76-4.56c-0.24-0.08-0.48-0.16-0.72-0.24c2.17-1.21,3.99-2.29,5.76-3.84
	c-0.24-0.08-0.48-0.16-0.72-0.24c0-0.08,0-0.16,0-0.24c4.33-0.22,12.41-10.3,14.64-9.12c0.08-0.64,0.16-1.28,0.24-1.92
	c0.96,0,1.92,0,2.88,0c0-0.64,0-1.28,0-1.92c3.88-0.46,4.07-4.24,7.92-4.08c-0.24-0.24-0.48-0.48-0.72-0.72
	c3.75-2.18,12.09-9.56,15.84-10.08c0.42-1.65,5.88-5.54,8.16-6c0-0.4,0-0.8,0-1.2c4.5-0.19,8.37-4.92,11.76-6.24
	c-0.52-0.36-1.04-0.04-0.72-0.72c1.63-0.12,2.39-0.59,3.6-1.44c-0.24-0.08-0.48-0.16-0.72-0.24c0,0,12.41-8.38,13.68-7.44
	c0.08-0.64,0.16-1.28,0.24-1.92c4.67-0.92,7.8-4.57,11.04-6.96c2.39-1.76,6.54-2.27,8.88-4.08c4.42-3.42,9.73-6.52,14.16-9.84
	c1.25-0.93,5.2-1.3,6-1.92c0-0.4,0-0.8,0-1.2c1.89-1.69,4.78-1.4,6.96-2.88c3.9-2.65,9.01-6.84,14.16-7.92c0-0.4,0-0.8,0-1.2
	c4.47-0.1,8-5.06,10.8-4.08c0.52-0.92,1.25-0.74,1.92-1.44c-0.24-0.08-0.48-0.16-0.72-0.24c0-0.08,0-0.16,0-0.24
	c4.68-0.31,7.47-4.15,12-4.8c0-0.4,0-0.8,0-1.2c4.87-0.34,7.99-4.51,12.96-4.8c0-0.4,0-0.8,0-1.2c2.79-0.07,4.37-1.77,6-2.88
	c1.09-0.74,4.57-0.39,5.76-1.2c1.87-1.27,3.55-2.09,6.24-3.84c1.24-0.8,7.29-1.16,8.88-2.16c2.79-1.75,5.87-3.72,10.08-4.08
	c-0.41-0.3-0.63-0.32-0.96-0.72c4.22-0.01,4.96-1.81,8.88-1.92c0-0.4,0-0.8,0-1.2c8.75,0,18.2-6.94,26.88-6.96c0-0.08,0-0.16,0-0.24
	c-8.23-19.15-14.36-39.65-19.92-61.92c-2.84-11.34-3.42-23.43-5.52-35.52c-0.48-9.2-0.96-18.4-1.44-27.6
	c-0.08-4.96-0.16-9.92-0.24-14.88c0.98-6.06,1.08-14.63,0.24-19.68c-3.48,0.05-17.41-0.08-20.16-1.68c-1.84-1.07-3.29,1-3.84,0.72
	c0-0.32,0-0.64,0-0.96c-0.24,0-0.48,0-0.72,0c-4.72,0-9.44,0-14.16,0c-1.64-0.85-4.06-0.96-6.96-0.96c-2.48,0-4.96,0-7.44,0
	c-4.31-1.57-31.76-1.94-43.92-0.96c-0.73-1.85-8.21-0.96-11.04-0.96c-11.86,0-23.59,0.77-33.84,0.96c-0.08-0.32-0.16-0.64-0.24-0.96
	c-1.44,1.77-13.18,0.96-16.8,0.96c-10.76,0-15.47,0.96-24.72,0.96c-4.68,0-12.89-1.29-16.56,0.48c0.73,0.3,0.29,0,0.72,0.48
	c-6.24-0.01-16.34-1.34-20.88,0.96c-2.08,0-4.16,0-6.24,0c-3.85,0-7.64,0.43-8.88,0.96c-4,0-8,0-12,0c-1.4,0.38-1.77,1.19-4.32,1.2
	c-0.87-1.8-10.27,1.79-13.2,0.96c-0.81-0.23-6.94-0.05-8.64,0.96c-0.16,0-0.32,0-0.48,0c-2.16,0.47-6.43-0.86-10.32,0
	c-3.24,0.72-9.93,1.9-13.44,1.92c-4.67,0.02-12.93,1.25-13.44,0.24c-0.52,1.31-11.42,2.51-13.92,1.92c0.24,0.32,0.48,0.64,0.72,0.96
	c-10.97-0.08-17.3,1.35-26.88,2.16c0,0.08,0,0.16,0,0.24c0.88,0.22,0.49-0.01,0.96,0.48c-3.67-0.1-28.92,2.2-31.2,4.08
	c-2.32,0-4.64,0-6.96,0c-3.27,0.61-12.61,1.79-13.92,2.88c-2,0-4,0-6,0c-0.65,0.2-0.53,0.96-0.96,1.2c-1.52,0-3.04,0-4.56,0
	c-1.75,0.03-6.76,0.81-8.4,1.92c-2,0-4,0-6,0c-2.52,1.54-15.73,1.27-18.48,4.08c-4.92-0.05-7.94-0.06-11.04,1.92
	c-0.08-0.32-0.16-0.64-0.24-0.96c-1.8,2.15-7.25,1-10.32,1.92c-4.51,1.35-9.25,1.13-11.76,3.12c-2,0.16-4,0.32-6,0.48
	c0.73,0.3,0.29,0,0.72,0.48c-8.51,0.03-14.9,3.8-24,3.84c0,0.4,0,0.8,0,1.2c-4.78-0.08-10.7,0.99-13.92,2.88c-1.36,0-2.72,0-4.08,0
	c-0.69,0.44-3.77,0.85-5.76,1.92c-1.04,0-2.08,0-3.12,0c-4.16,2.75-11.97,2.19-16.08,5.04c-1.92,0.08-3.84,0.16-5.76,0.24
	c-1.23,0.62-3.3,1.74-4.8,1.92c-0.08-0.32-0.16-0.64-0.24-0.96c-0.52,1.45-17.15,5.77-20.16,5.76c0,0.4,0,0.8,0,1.2
	c-6.23-0.02-8.63,2.32-14.88,3.12c0.24,0.24,0.48,0.48,0.72,0.72c-3.01,0.05-3.59,0.94-6.96,0.96c0,0.4,0,0.8,0,1.2
	c-4.53,0-19.51,5.22-21.84,6.96c-1.16,0.87-5,0.18-6.96,1.2c-2.93,1.53-2.36,2.66-6.24,2.64c0,0.4,0,0.8,0,1.2
	c-6.95-0.06-9.21,4.58-14.88,4.8c0,0.4,0,0.8,0,1.2c-4.72-0.04-11.64,4.14-13.44,6c-0.22-0.88,0.01-0.49-0.48-0.96
	c-0.68,1.72-5.87,3.75-7.92,4.08c0.24,0.24,0.48,0.48,0.72,0.72c-1.91-0.03-2.64,0.54-2.88,2.16c-2.01,0.21-3.06,1.64-5.28,0.72
	c0.24-0.16,0.48-0.32,0.72-0.48c-1.49-0.37-3.87-3.67-4.8-4.8c0.32-0.08,0.64-0.16,0.96-0.24c-2.58-1.68-3.87-6.5-6.96-7.2
	c-0.72-3.3-4.08-4.1-4.8-7.2c-0.4,0-0.8,0-1.2,0c-0.61-1.93-2.7-2.86-3.84-4.32c0.73-0.3,0.29,0,0.72-0.48c-0.56,0-1.12,0-1.68,0
	c0-0.4,0-0.8,0-1.2c-0.4,0-0.8,0-1.2,0c-0.61-1.93-2.7-2.86-3.84-4.32c0.24-0.08,0.48-0.16,0.72-0.24
	c-1.35-0.18-1.44-0.04-1.68-1.44c-0.4,0-0.8,0-1.2,0c-0.83-2.5-4.17-3.45-4.8-6c-0.4,0-0.8,0-1.2,0c-0.27-1.47-5.02-6.1-6.24-7.68
	c-0.24,0.24-0.48,0.48-0.72,0.72c-0.09-1.19-0.03-1.4-0.48-1.92c-0.48,0-0.96,0-1.44,0c-0.58-3.59-12.46-13.97-15.36-17.76
	c-0.24,0.24-0.48,0.48-0.72,0.72c-0.73-2.34-3.34-3.57-5.04-5.04c-2.05-1.77-3.1-4.82-5.04-6.72c-0.64-0.08-1.28-0.16-1.92-0.24
	c-0.84-0.69-0.5-1.99-1.2-2.88c-1.5-1.9-4.4-2.79-5.76-4.08c-0.74-0.7-0.22-2.01-1.2-2.88c-0.56-0.08-1.12-0.16-1.68-0.24
	c0-0.64,0-1.28,0-1.92c-0.4,0-0.8,0-1.2,0c0-0.72,0-1.44,0-2.16c0.4,0,0.8,0,1.2,0c0.54-1.68,2.17-2.46,3.12-4.08
	c1.53,0.66,14.88-12.5,19.2-12.96c0.3,0.73,0,0.29,0.48,0.72c0-0.56,0-1.12,0-1.68c3.15-0.06,2.24-1.08,4.8-1.2
	c0.08-0.64,0.16-1.28,0.24-1.92c4.06-0.04,6.79-2.91,9.12-4.8c0.54-0.44,14.16-5.96,14.88-6c0-0.4,0-0.8,0-1.2
	c2.4,0.06,3.39-0.51,4.8-1.44c-0.24-0.08-0.48-0.16-0.72-0.24c0-0.08,0-0.16,0-0.24c4.64-0.06,5.38-2.78,10.08-2.88
	c0-0.4,0-0.8,0-1.2c5.53-0.18,9.33-4.38,14.88-4.8c0.08-0.4,0.16-0.8,0.24-1.2c0.3,0.41,0.32,0.63,0.72,0.96
	c0.31-0.84,12.42-5.85,16.08-5.76c0-0.4,0-0.8,0-1.2c7.51,0.07,10.78-4.84,18-4.8c0-0.4,0-0.8,0-1.2c1.49,0.14,1.03,0.12,1.68,0.96
	c1.22-3.57,8.27-2.02,11.28-3.84c3.4-2.05,22.62-7.98,28.08-7.92c0-0.4,0-0.8,0-1.2c4.42,0.03,21.56-4.06,23.76-6
	c1.36,0,2.72,0,4.08,0c2.03-1.25,5.93-1.51,7.92-2.88c1.36,0,2.72,0,4.08,0c3.63-2.24,9.84-1.29,13.2-4.08c1.28,0,2.56,0,3.84,0
	c3.18-0.8,12.22-1.97,14.16-3.84c0.24,0.24,0.48,0.48,0.72,0.72c1.49-1.62,12.5-3.12,14.16-2.88c-0.08-0.32-0.16-0.64-0.24-0.96
	c5.03,0.04,24.19-3.4,26.16-5.04c1.44,0,2.88,0,4.32,0c1.12-0.34,4.9-1.09,5.76-1.92c0.12-0.12,3.97,0.61,6,0
	c2.56-0.76,9.97-1.56,11.76-3.12c0.35-0.3,10.34-0.65,12.24-1.92c1.68,0,3.36,0,5.04,0c6.59-1.65,12.7-2.89,18.96-2.88
	c0-0.4,0-0.8,0-1.2c6.06,0.01,18.92-1.18,21.84-2.88c1.76,0,3.52,0,5.28,0c0.76-0.23,3.6-0.96,3.6-0.96c3.2-1.64,9.05,0.18,12-2.16
	c0.76-0.6,14.04-0.16,15.36-0.96c4.09-2.49,10.46-0.55,15.84-1.92c8.51-2.16,18.73-2.56,28.08-3.36c-0.41-0.3-0.63-0.32-0.96-0.72
	c3.86,0.07,8.05,0.04,10.56-0.96c0.08,0.32,0.16,0.64,0.24,0.96c0.36-1.19,0.25-0.93,1.68-0.96c0.08,0.24,0.16,0.48,0.24,0.72
	c-0.18-0.87,0.29-0.7,0.96-0.72c3.02-0.08,5.88-0.47,6.96-0.96c2.96,0,5.92,0,8.88,0c0.16,0,0.32,0,0.48,0
	c4.64-3.34,18.96,0.67,24.72-3.12c1.48-0.97,10.66-0.1,12.72-0.96c0.08,0.32,0.16,0.64,0.24,0.96c0.63-0.81,0.1-0.71,1.44-0.96
	c0.83,0.95,13.16-0.91,16.32-0.96c0.1,0.91-0.27,0.3,0.24,0.96c0.75-2.06,6-0.54,8.4-0.96c0.81-0.14,1.52-0.73,1.92-0.96
	c1.92-1.09,10.92,1.02,15.12,0c7.31-1.77,25.82-1.92,42-1.92c5.48,0,12.77-2.93,16.8-0.24c0.49-1.34,15.03-0.96,20.64-0.96
	c15.68,0,31.36,0,47.04,0c6.6,0,16.42-1.13,21.36,0.96c1.09-2.81,3.4,0.59,4.8,0c0-0.32,0-0.64,0-0.96c1.2,0,2.4,0,3.6,0
	c1.33,2.87,14.26-0.09,18,1.2c9.02,3.12,26.47-0.25,38.88,2.88c6.41,1.62,16.99-1.16,21.6,1.92c0.31-1.07-0.16-0.48,0.72-0.96
	c1.22,2.03,6.57,0.2,8.16,1.92c0.36-1.18,0.07-0.84,1.44-0.96c0,0.4,0,0.8,0,1.2c2.88,0,5.76,0,8.64,0
	c0.64-1.52,1.28-3.04,1.92-4.56c-8.82-1.11-17.77-6.13-26.64-6.24c0-0.4,0-0.8,0-1.2c-4.6-0.01-17.59-5.13-20.16-6.96
	c-0.96,0-1.92,0-2.88,0c-2.48-1.54-6.44-3.7-10.08-3.84c0-0.4,0-0.8,0-1.2c-5.52-0.03-16.08-8.05-18.96-6.96
	c-1-2.94-14.1-5.61-17.04-8.4c0.32,0,0.64,0,0.96,0c-3.78-1.86-6.88-3.05-10.8-4.8c0.24-0.16,0.48-0.32,0.72-0.48
	c-3.02-0.42-3.85-1.92-6.72-2.16c0-0.4,0-0.8,0-1.2c-4.74-0.7-6.75-4.6-11.04-4.8c0-0.4,0-0.8,0-1.2c-5.06-0.2-6.21-4.43-11.04-4.8
	c0-0.4,0-0.8,0-1.2c-5.12-0.08-5.87-4.54-11.04-4.8c0-0.4,0-0.8,0-1.2c-2.17-0.6-6.5-2.71-7.92-4.32c0.24-0.08,0.48-0.16,0.72-0.24
	c-4.48-0.71-15.19-8.59-18.72-11.28c-0.98-0.75-2.14,0.01-2.16,0c-1.57-1.26-1.93-3.02-4.8-3.12c-0.08-0.64-0.16-1.28-0.24-1.92
	c-3.24,0.27-7.74-3.8-10.8-5.28c0.24-0.16,0.48-0.32,0.72-0.48c-1.92-0.23-4.48-1.44-4.8-3.36c-1.35-0.18-17.81-11.01-18-12
	c-2.26-0.36-3.69-1.98-6-3.12c0.24-0.16,0.48-0.32,0.72-0.48c-1.39-0.25-2.32-0.81-3.6-1.44c0.24-0.24,0.48-0.48,0.72-0.72
	c-3.87-0.73-4.83-4.41-8.88-5.04c0-0.4,0-0.8,0-1.2c-4.54-0.57-12.24-10.63-17.04-10.8c0-0.4,0-0.8,0-1.2
	c-3.01-0.97-4.37-4.4-7.92-4.8c0-0.4,0-0.8,0-1.2c-2.43-0.75-4.45-2.85-6.96-4.08c0.24-0.24,0.48-0.48,0.72-0.72
	c-3.77-0.46-5.49-5.71-9.84-6c0-0.4,0-0.8,0-1.2c-1.41-0.43-2.3-1.42-3.84-2.16c0.24-0.16,0.48-0.32,0.72-0.48
	c-2.42-0.78-3.36-2.68-5.04-4.08c-1.46-1.22-2.85-1.46-4.08-2.88c-0.24,0.24-0.48,0.48-0.72,0.72c-1.2-0.99-1.71-3.07-2.88-4.08
	c-1.16-1-2.92-0.92-4.08-1.92c-2.62-2.26-4.46-4.7-7.92-6.24c0.24-0.24,0.48-0.48,0.72-0.72c-1.13-0.17-9.4-5.92-9.84-8.16
	c-0.4,0-0.8,0-1.2,0c-1.21-2.54-4.87-3.04-6-5.76c-0.24,0.24-0.48,0.48-0.72,0.72c-0.08-0.56-0.16-1.12-0.24-1.68
	c-0.24,0.24-0.48,0.48-0.72,0.72c-0.66-1.92-10.71-10.66-12.96-10.8c0-0.4,0-0.8,0-1.2c-0.4,0-0.8,0-1.2,0
	c-1.02-3.07-5.04-3.91-6.24-6.72c-0.24,0.24-0.48,0.48-0.72,0.72c-0.33-1.11-0.42-0.7-0.96-1.44c0.24-0.08,0.48-0.16,0.72-0.24
	c-1.85-0.32-4.46-2.5-4.8-4.32c-0.64,0-1.28,0-1.92,0c-0.08-0.56-0.16-1.12-0.24-1.68c-0.24,0.24-0.48,0.48-0.72,0.72
	c-0.08-0.56-0.16-1.12-0.24-1.68c-0.67,0.34-1.03,0.45-1.92-0.72c0.32,0,0.64,0,0.96,0c-1.65-0.86-1.54-0.75-2.4-2.4
	c-0.22,0.88,0.01,0.49-0.48,0.96c-0.51-2.87-10.84-9.34-12.96-12c-0.08-0.64-0.16-1.28-0.24-1.92c-1.1-1.1-4.56-2.16-4.56-2.16
	c-0.08,0-0.16,0-0.24,0c-0.53-3.88-5.66-5.54-7.92-7.92c-3.68-3.87-7.37-7.6-11.04-10.8c-0.77-0.67-4.14-3.89-3.12-4.08
	c-2.88-2.09-6.89-4.85-8.88-7.68c0.24-0.08,0.48-0.16,0.72-0.24c-1.05-0.22-14.45-13.51-14.64-14.4c-0.4,0-0.8,0-1.2,0
	c0-0.56,0-1.12,0-1.68c-2.29-0.37-14-13.6-15.36-16.08c-0.22,0.88,0.01,0.49-0.48,0.96c-0.53-2.45-3.65-3.74-5.04-5.52
	c0.73-0.3,0.29,0,0.72-0.48c-1.72-0.28-2.43-1.43-2.64-3.12c-0.4,0-0.8,0-1.2,0c-0.87-2.97-6.13-6.25-7.92-7.92
	c0-0.72,0-1.44,0-2.16c-1.12-1.59-3.79-2.36-5.04-3.84c0-0.64,0-1.28,0-1.92c-0.64-0.08-1.28-0.16-1.92-0.24
	c-1.78-1.6-0.64-4.66-4.08-4.8c0-0.4,0-0.8,0-1.2c-1.49-0.47-3.78-2.73-3.84-4.8c-0.4,0-0.8,0-1.2,0c-0.08-0.64-0.16-1.28-0.24-1.92
	c-2.17-0.39-4.23-3.14-4.56-5.28c-0.4,0-0.8,0-1.2,0c-0.61-2.08-2.77-2.37-3.84-3.84c-0.78-1.08-0.03-2.29-0.96-3.12
	c-0.57-0.51-1.68-0.4-2.16-0.96c-0.08-0.56-0.16-1.12-0.24-1.68c-0.56-0.08-1.12-0.16-1.68-0.24c0-0.72,0-1.44,0-2.16
	c-0.66-0.86-2.39-1.12-3.12-1.92c0-0.56,0-1.12,0-1.68c-1.13-1.11-2.85-2.15-3.84-3.36c-0.08-0.64-0.16-1.28-0.24-1.92
	c-0.63,0.26-10.2-11.36-11.76-13.44c0.24-0.08,0.48-0.16,0.72-0.24c-1.07-0.42-1.5-1.08-1.68-2.4c-0.73-0.13-6-6.05-6-7.92
	c-0.4,0-0.8,0-1.2,0c0-0.56,0-1.12,0-1.68c-0.64-0.16-1.28-0.32-1.92-0.48c-0.12-2.11-0.78-1.84-1.2-3.6
	c-0.24,0.24-0.48,0.48-0.72,0.72c-0.2-2.04-0.82-1.16-0.96-2.88c-0.4,0-0.8,0-1.2,0c-0.33-4.04-5.51-8.42-7.92-11.52
	c0.24-0.08,0.48-0.16,0.72-0.24c-1.42-1.29-3.47-2.76-3.6-5.28c-0.4,0-0.8,0-1.2,0c-0.97-3.2-4.09-5.08-4.8-8.16c-0.4,0-0.8,0-1.2,0
	c0-0.88,0-1.76,0-2.64c-0.64-0.08-1.28-0.16-1.92-0.24c-0.47-6.58-8.44-9.32-8.88-16.08c-0.4,0-0.8,0-1.2,0
	c-0.23-2.42-1.58-2.63-2.88-4.32c0.24-0.08,0.48-0.16,0.72-0.24c-1.11-1.09-2.33-2.48-2.64-4.32c-0.4,0-0.8,0-1.2,0
	c-0.07-2.26-0.77-2.04-1.2-3.84c-0.24,0.24-0.48,0.48-0.72,0.72c-0.24-3.37-2.6-3.75-2.88-6.96c-0.4,0-0.8,0-1.2,0
	c-0.21-1.94-0.9-1.95-1.2-3.84c-0.08,0-0.16,0-0.24,0c-0.22,0.88,0.01,0.49-0.48,0.96c-0.08-0.96-0.16-1.92-0.24-2.88
	c-0.24,0.24-0.48,0.48-0.72,0.72c-0.08-1.73-0.72-3.28-1.44-4.8c-0.22,0.88,0.01,0.49-0.48,0.96c0-0.4,0-0.8,0-1.2
	c-0.4,0-0.8,0-1.2,0c0-0.4,0-0.8,0-1.2c0.32-0.08,0.64-0.16,0.96-0.24c-2.32-1.51-5.22-5.82-5.76-9.36c-0.4,0-0.8,0-1.2,0
	c-0.22-4.55-4.41-6.69-4.8-11.04c-0.4,0-0.8,0-1.2,0c-0.23-4.86-4.39-7.24-4.8-12c-0.4,0-0.8,0-1.2,0c-0.2-4.63-3.92-7.58-4.8-12
	c-0.4,0-0.8,0-1.2,0c-0.12-3.19-4.74-12.79-6.24-15.84c-0.24,0.24-0.48,0.48-0.72,0.72c0.03-3.38-7.09-19.89-8.88-21.84
	c-0.34-0.37-0.13-5.24-1.2-6.96c-3.37-5.41-4.06-13.17-7.92-18.24c0-1.28,0-2.56,0-3.84c-0.99-1.62-1.73-4.49-2.88-6
	c0-1.04,0-2.08,0-3.12c-0.43-1.81-1.88-5.61-3.12-7.44c0.32,0,0.64,0,0.96,0c-1.08-0.88-1.05-2.55-1.2-4.32
	c-0.5-0.31-3.68-11.58-3.6-15.12c-0.87-0.15-0.73-0.1-1.2-0.48c1.18-0.36,0.84-0.07,0.96-1.44c-2.63-1.05-1.51-9.94-2.88-12.24
	c-1.34-2.25-0.86-9.09-2.88-12c0-2,0-4,0-6c-0.25-0.4-0.97-0.18-1.2-0.96c-0.8-2.77,0.28-5.18-0.96-6.96
	c-0.16-3.28-0.32-6.56-0.48-9.84c-0.22,0.88,0.01,0.49-0.48,0.96c-0.05-10.94-1.04-22.39-0.96-37.2c49.04,0,98.08,0,147.12,0
	c0,4.32,0,8.64,0,12.96c0.4,0.08,0.8,0.16,1.2,0.24c-0.85,0.65-0.8,0.2-0.96,1.68c0.62,0.26,1.91,10.73,1.92,11.28
	c-0.32,0.08-0.64,0.16-0.96,0.24c1.57,1.29,3.12,19.44,3.12,19.44c0.89,0.28,0.84,2.25,0.96,3.84c0.24-0.24,0.48-0.48,0.72-0.72
	c-0.01,6.64,1.7,8.12,2.4,13.68c0.24-0.24,0.48-0.48,0.72-0.72c-0.02,4.29,1.58,6.99,2.16,10.8c0.24-0.24,0.48-0.48,0.72-0.72
	c-0.13,7.05,5.09,13.43,6,20.88c0.4,0,0.8,0,1.2,0c0.1,3.47,2.13,4.7,1.2,6.72c1.44,0.78,6.62,13.57,6.96,16.08
	c0.24-0.24,0.48-0.48,0.72-0.72c0.09,3.24,1.67,4.05,1.92,6.96c0.4,0,0.8,0,1.2,0c0.57,8.3,10.13,16.14,10.8,24c0.4,0,0.8,0,1.2,0
	c0.25,2.3,1.34,3.67,2.16,5.76c0.24-0.24,0.48-0.48,0.72-0.72c0.07,2.88,1.44,3.62,1.92,6c0.4,0,0.8,0,1.2,0
	c0.2,3.44,3.7,8.07,6,10.32c-0.88,0.22-0.49-0.01-0.96,0.48c1.55,0.54,5.43,7.3,5.76,9.12c0.4,0.08,0.8,0.16,1.2,0.24
	c-0.41,0.3-0.63,0.32-0.96,0.72c4.41,1.48,4.06,10.21,8.88,11.04c0.18,4.75,10.04,15.38,12.48,20.88c0.22-0.88-0.01-0.49,0.48-0.96
	c0.26,1.48,0.94,1.72,1.92,2.4c-0.67,0.98-0.14,0.01,0,1.68c0.4,0,0.8,0,1.2,0c0,0.64,0,1.28,0,1.92c3.05,1.13,3.09,4.72,5.04,6.96
	c0.99,1.14,2.87,1.95,3.84,3.12c0.72,0.87,0.27,2.2,0.96,3.12c2.08,2.76,6.41,8.04,9.12,10.08c-0.41,0.3-0.63,0.32-0.96,0.72
	c0.64,0.08,1.28,0.16,1.92,0.24c0.43,5.78,7.69,7.64,8.88,12.96c0.4,0,0.8,0,1.2,0c1.36,4.81,9.23,8.98,10.08,13.68
	c0.24-0.24,0.48-0.48,0.72-0.72c0.25,2.18,1.71,3.09,3.12,4.08c-0.24,0.24-0.48,0.48-0.72,0.72c2.42,0.52,10.01,9.7,11.28,12
	c0.13-0.7-0.19-1.18,0.48-0.72c0.56,2.17,2.75,5.32,5.04,5.76c0.31,1.51,0.84,1.3,1.2,2.88c0.24-0.24,0.48-0.48,0.72-0.72
	c0.75,2.3,2.78,2.12,2.88,5.04c0.4,0,0.8,0,1.2,0c0.89,2.64,4.14,3.16,4.8,6c0.4,0,0.8,0,1.2,0c0,0.56,0,1.12,0,1.68
	c1.27,0.24,1.81,0.8,2.16,1.92c0.24-0.24,0.48-0.48,0.72-0.72c1.56,5.37,13.6,14.61,18,18.96c1.7,1.68,2.66,4.02,4.32,5.76
	c2.92,3.05,7.36,4.66,8.88,9.12c0.24-0.24,0.48-0.48,0.72-0.72c0.82,2.8,11.08,11.58,14.16,13.2c-0.24,0.16-0.48,0.32-0.72,0.48
	c1.89,0.33,4.22,2.47,4.56,4.32c0.4,0,0.8,0,1.2,0c0.89,2.64,4.14,3.16,4.8,6c0.4,0,0.8,0,1.2,0c2.14,4.69,11.17,7.9,13.2,12.72
	c0.24-0.24,0.48-0.48,0.72-0.72c1.24,3.73,7.28,4.94,8.16,8.64c0.64,0.08,1.28,0.16,1.92,0.24c0,0.64,0,1.28,0,1.92
	c1.48,0.01,6.04,3.59,6,4.8c0.32-0.24,0.64-0.48,0.96-0.72c0.96,3.04,4.58,4.54,6.96,6.24c-0.32,0.16-0.64,0.32-0.96,0.48
	c1.7,0.22,9.52,6.83,9.84,8.4c1.84,0.32,21.76,16.37,22.32,17.76c0.24-0.24,0.48-0.48,0.72-0.72c1.26,3.65,6.39,3.56,7.2,7.68
	c2.17-0.01,4.96,1.88,6.96,3.6c-0.88,0.22-0.49-0.01-0.96,0.48c2.14,0.56,17.65,12.54,17.76,13.2c0.4,0,0.8,0,1.2,0
	c0.38,1.32,15.02,11.16,15.36,11.04c0.16,0,0.32,0,0.48,0c0.08,0.56,0.16,1.12,0.24,1.68c1.53-0.78,4.83,3.68,7.92,4.08
	c0,0.4,0,0.8,0,1.2c5.38,1.69,12.69,8.36,17.04,11.76c0.64,0.08,1.28,0.16,1.92,0.24c0.89,0.67,1.95,2.26,2.88,2.88
	c0.72,0,1.44,0,2.16,0c3.4,2.41,7,7.3,12,7.92c0,0.4,0,0.8,0,1.2c3.54,0.63,9.08,5.39,12.96,7.2c-0.24,0.16-0.48,0.32-0.72,0.48
	c3.53,0.66,7.15,3.81,10.56,5.52c-0.24,0.16-0.48,0.32-0.72,0.48c3.57,0.46,4.77,2.39,6.96,4.08c2.31,1.79,5.11,2.13,7.92,3.36
	c-0.24,0.16-0.48,0.32-0.72,0.48c2.02,0.14,3.29,0.49,3.6,2.4c6.6,0.96,15.62,10.46,23.04,10.8c0,0.4,0,0.8,0,1.2
	c6.16,0.4,10.17,6.03,16.08,6.96c-0.24-0.24-0.48-0.48-0.72-0.72c-3.04-4.16-6.08-8.32-9.12-12.48
	c-5.92-9.44-11.84-18.88-17.76-28.32c-15.87-26.91-27.11-57.61-36.96-90.48c-6.09-20.31-8.22-42.02-12.24-64.8
	c-1.89-10.68-0.37-21.52-2.16-32.88c-0.98-6.21-1.25-15.34-0.24-21.6c0-3.28,0-6.56,0-9.84c0.56-7.84,1.12-15.68,1.68-23.52
	c2.37-14.14,2.38-27.43,5.28-40.56c9.45-42.74,20.56-82.34,39.84-115.44c5.36-9.12,10.72-18.24,16.08-27.36
	c4.88-6.96,9.76-13.92,14.64-20.88c-0.5-0.47-0.25-0.09-0.48-0.96c-1.56-0.29-3.82-2.5-4.32-3.84c-0.24,0.24-0.48,0.48-0.72,0.72
	c-0.66-2.05-3.26-3.24-4.56-4.8c-0.22,0.88,0.01,0.49-0.48,0.96c-0.62-4.44-7.14-4.65-7.92-8.16c-0.4,0-0.8,0-1.2,0
	c-1.06-3.22-11.26-9.95-13.92-13.44c0.24-0.08,0.48-0.16,0.72-0.24c-1.85-0.33-5.64-3.19-6-5.04c-0.24,0.24-0.48,0.48-0.72,0.72
	c-1.41-4.22-6.98-5.01-7.92-9.84c-0.4,0-0.8,0-1.2,0c-0.97-3.45-5.07-4.48-6.96-6.96c-3.27-4.29-15.27-16.76-15.84-20.16
	c-0.4,0-0.8,0-1.2,0c-0.61-1.91-2.43-2.24-2.88-4.08c0.86-0.43,0.28,0.13,0.72-0.72c-2.6-0.53-4.45-3.66-5.76-5.52
	c0.32-0.08,0.64-0.16,0.96-0.24c-0.64-0.16-1.28-0.32-1.92-0.48c-0.27-3.49-4.35-4.45-4.08-7.68c-0.32,0.24-0.64,0.48-0.96,0.72
	c-0.22-1.98-3.13-6.65-5.04-6.96c-0.12-4.43-4.66-8.34-6.96-11.52c0.67-0.4-1.83-3.34-2.16-5.28c-0.24,0.24-0.48,0.48-0.72,0.72
	c-0.27-3.82-3.59-5.91-4.32-9.6c-0.24,0.24-0.48,0.48-0.72,0.72c-0.16-2.19-0.83-1.79-0.96-4.08c-0.4,0-0.8,0-1.2,0
	c-0.06-4.68-4.74-6.88-4.8-12c-0.4,0-0.8,0-1.2,0c-0.08-4.89-3.35-6.09-4.08-11.76c-0.24,0.24-0.48,0.48-0.72,0.72
	c-0.07-1.92-0.57-1.86-1.2-3.12c0.32-0.08,0.64-0.16,0.96-0.24c-2.92-2.39-5.15-12.06-6.96-15.84c0.32-0.08,0.64-0.16,0.96-0.24
	c-1.57-1.34-1.34-3.1-2.16-5.28c-0.24,0.24-0.48,0.48-0.72,0.72c0.04-4.08-1.09-7.51-2.88-9.84c0-1.36,0-2.72,0-4.08
	c-0.32-1.19-1.68-3.22-2.16-3.84c0-1.36,0-2.72,0-4.08c-1.41-2.23-4.73-18.93-5.04-24.48c0.32,0,0.64,0,0.96,0
	c-1.08-0.88-1.05-2.55-1.2-4.32c-1.79-1.13,0.38-4.85-0.72-8.4c-2.42-7.8-0.96-20.97-0.96-30.48c0-30.15,6.54-60.54,15.84-81.6
	c1.88-4.26,3.37-17.12,8.64-17.04C1922.63,1055.17,1923.51,1054.87,1925.28,1054.8z"/>
<path class="st1" d="M2046.24,1140.24c0.08,0.16,0.16,0.32,0.24,0.48c0.08-0.16,0.16-0.32,0.24-0.48
	C2046.56,1140.24,2046.4,1140.24,2046.24,1140.24z"/>
<path class="st1" d="M2461.44,1148.4c0,0.16,0,0.32,0,0.48C2461.44,1148.72,2461.44,1148.56,2461.44,1148.4z"/>
<path class="st1" d="M1899.36,1187.28c0.08,0.16,0.16,0.32,0.24,0.48C1899.5,1187.54,1899.79,1187.6,1899.36,1187.28z"/>
<path class="st1" d="M3059.52,1481.28c0,0.16,0,0.32,0,0.48C3059.52,1481.6,3059.52,1481.44,3059.52,1481.28z"/>
<path class="st1" d="M1455.36,1498.32c0,0.16,0,0.32,0,0.48C1455.36,1498.64,1455.36,1498.48,1455.36,1498.32z"/>
<path class="st1" d="M2873.52,1541.28c0,0.16,0,0.32,0,0.48C2873.52,1541.6,2873.52,1541.44,2873.52,1541.28z"/>
<path class="st1" d="M1480.08,1559.28c0.43,0.49,0,0.17,0.72,0.48C1480.37,1559.27,1480.8,1559.59,1480.08,1559.28z"/>
<path class="st1" d="M1659.36,1577.28c0,0.16,0,0.32,0,0.48C1659.36,1577.6,1659.36,1577.44,1659.36,1577.28z"/>
<path class="st1" d="M1540.32,1663.44c0.16,0.08,0.32,0.16,0.48,0.24C1540.64,1663.6,1540.48,1663.52,1540.32,1663.44z"/>
<path class="st1" d="M1582.32,1719.36c0.16,0.08,0.32,0.16,0.48,0.24C1582.64,1719.52,1582.48,1719.44,1582.32,1719.36z"/>
<path class="st1" d="M2901.36,1749.36c0.08,0.16,0.16,0.32,0.24,0.48c0.08-0.16,0.16-0.32,0.24-0.48
	C2901.68,1749.36,2901.52,1749.36,2901.36,1749.36z"/>
<path class="st1" d="M2659.44,1779.36c0,0.16,0,0.32,0,0.48C2659.44,1779.68,2659.44,1779.52,2659.44,1779.36z"/>
<path class="st1" d="M1649.52,1794.24c0,0.16,0,0.32,0,0.48C1649.52,1794.56,1649.52,1794.4,1649.52,1794.24z"/>
<path class="st1" d="M1664.4,1809.36c0.16,0.08,0.32,0.16,0.48,0.24C1664.72,1809.52,1664.56,1809.44,1664.4,1809.36z"/>
<path class="st1" d="M2541.36,1864.32c0.16,0.08,0.32,0.16,0.48,0.24C2541.68,1864.48,2541.52,1864.4,2541.36,1864.32z"/>
<path class="st1" d="M2023.44,1896.24c0.08,0.16,0.16,0.32,0.24,0.48c0.08-0.16,0.16-0.32,0.24-0.48
	C2023.76,1896.24,2023.6,1896.24,2023.44,1896.24z"/>
<path class="st1" d="M2639.28,1975.2c0.08,0.16,0.16,0.32,0.24,0.48c0.08-0.16,0.16-0.32,0.24-0.48
	C2639.6,1975.2,2639.44,1975.2,2639.28,1975.2z"/>
<path class="st1" d="M1952.4,2023.44c0,0.16,0,0.32,0,0.48C1952.4,2023.76,1952.4,2023.6,1952.4,2023.44z"/>
<path class="st1" d="M1856.16,2063.28c0.16,0.16,0.32,0.32,0.48,0.48C1856.48,2063.6,1856.32,2063.44,1856.16,2063.28z"/>
<path class="st1" d="M2447.28,2065.44c0.24,0.08,0.48,0.16,0.72,0.24C2447.76,2065.6,2447.52,2065.52,2447.28,2065.44z"/>
<path class="st1" d="M2036.4,2068.32c0.08,0.16,0.16,0.32,0.24,0.48c0.08-0.16,0.16-0.32,0.24-0.48
	C2036.72,2068.32,2036.56,2068.32,2036.4,2068.32z"/>
<path class="st1" d="M1749.12,2069.28c0.43,0.49,0,0.17,0.72,0.48C1749.41,2069.27,1749.84,2069.59,1749.12,2069.28z"/>
<path class="st1" d="M1379.28,2134.32c0.08,0.16,0.16,0.32,0.24,0.48C1379.42,2134.58,1379.71,2134.64,1379.28,2134.32z"/>
<path class="st1" d="M1287.36,2171.28c0,0.16,0,0.32,0,0.48C1287.36,2171.6,1287.36,2171.44,1287.36,2171.28z"/>
<path class="st1" d="M2635.44,2185.2c-0.08,0.16-0.16,0.32-0.24,0.48c0.73-0.3,0.29,0,0.72-0.48
	C2635.76,2185.2,2635.6,2185.2,2635.44,2185.2z"/>
<path class="st1" d="M1937.28,2185.44c0.16,0.08,0.32,0.16,0.48,0.24C1937.6,2185.6,1937.44,2185.52,1937.28,2185.44z"/>
<path class="st1" d="M1688.4,2198.4c0.16,0.08,0.32,0.16,0.48,0.24C1688.72,2198.56,1688.56,2198.48,1688.4,2198.4z"/>
<path class="st1" d="M1623.36,2206.32c0.16,0.08,0.32,0.16,0.48,0.24C1623.68,2206.48,1623.52,2206.4,1623.36,2206.32z"/>
<path class="st1" d="M1599.12,2210.4c0.24,0.08,0.48,0.16,0.72,0.24C1599.6,2210.56,1599.36,2210.48,1599.12,2210.4z"/>
<path class="st1" d="M1575.36,2214.24c0.08,0.16,0.16,0.32,0.24,0.48C1575.5,2214.5,1575.79,2214.56,1575.36,2214.24z"/>
<path class="st1" d="M3010.32,2228.4c0.16,0.08,0.32,0.16,0.48,0.24C3010.64,2228.56,3010.48,2228.48,3010.32,2228.4z"/>
<path class="st1" d="M1307.52,2244.24c0,0.16,0,0.32,0,0.48C1307.52,2244.56,1307.52,2244.4,1307.52,2244.24z"/>
<path class="st1" d="M3193.44,2257.2c0,0.16,0,0.32,0,0.48C3193.44,2257.52,3193.44,2257.36,3193.44,2257.2z"/>
<path class="st1" d="M2750.4,2518.32c0,0.16,0,0.32,0,0.48C2750.4,2518.64,2750.4,2518.48,2750.4,2518.32z"/>
<path class="st1" d="M2786.4,2548.32c0,0.16,0,0.32,0,0.48C2786.4,2548.64,2786.4,2548.48,2786.4,2548.32z"/>
<path class="st1" d="M2817.36,2576.4c0.16,0.08,0.32,0.16,0.48,0.24C2817.68,2576.56,2817.52,2576.48,2817.36,2576.4z"/>
<path class="st1" d="M2839.44,2597.28c0,0.16,0,0.32,0,0.48C2839.44,2597.6,2839.44,2597.44,2839.44,2597.28z"/>
<path class="st1" d="M2962.32,2739.36c0.16,0.08,0.32,0.16,0.48,0.24C2962.64,2739.52,2962.48,2739.44,2962.32,2739.36z"/>
<path class="st1" d="M1728.48,2749.2c0,0.16,0,0.32,0,0.48C1728.48,2749.52,1728.48,2749.36,1728.48,2749.2z"/>
<path class="st1" d="M3009.36,2812.32c0.08,0.16,0.16,0.32,0.24,0.48c0.08-0.16,0.16-0.32,0.24-0.48
	C3009.68,2812.32,3009.52,2812.32,3009.36,2812.32z"/>
<path class="st1" d="M3071.52,2985.36c0,0.16,0,0.32,0,0.48C3071.52,2985.68,3071.52,2985.52,3071.52,2985.36z"/>
<path class="st1" d="M1435.44,3018.24c0,0.16,0,0.32,0,0.48C1435.44,3018.56,1435.44,3018.4,1435.44,3018.24z"/>
<path class="st1" d="M2928.48,3029.28c0,0.16,0,0.32,0,0.48C2928.48,3029.6,2928.48,3029.44,2928.48,3029.28z"/>
<path class="st1" d="M2928.48,3036.24c0,0.16,0,0.32,0,0.48C2928.48,3036.56,2928.48,3036.4,2928.48,3036.24z"/>
</svg>
