<svg id="lady_bug" data-name="lady bug" xmlns="http://www.w3.org/2000/svg" viewBox="0 0 300.7 306.3"><defs><style>.cls-1{fill:#FFFFFFFF}</style></defs><path class="cls-1" d="M237.3 156.6c0-.3-.3-.3-.3-.5h-.1a8.7 8.7 0 00-1.7-1.1c-.1-.1-.7-.3-.7-.5h-.2a23.2 23.2 0 00-2.4-1 1.8 1.8 0 00-.7-.3v-.1c-.5 0-.8-.4-1.3-.4s-.9-.4-1.4-.4v-.1a1.8 1.8 0 01-.7-.2h-.2v-.1h-.6a1.3 1.3 0 01-.2-.3H225.9a1 1 0 00-.5-.2v-.1a5 5 0 01-1.5-.4h-.2H223.4a2 2 0 01-.6-.3h-.7v-.1h-.4v-.1h-.3a5.1 5.1 0 00-1-.3h-.4l-1.2-.3c-.2-.1-2-.3-2.3-.5h-.5c-.1 0-1.3 0-1.3-.2-.2-.1-.7 0-.8-.2s0 0 0 .1a2.1 2.1 0 00-.9-.2 3.5 3.5 0 00-1 0v-.1c-.2 0-1 0-1-.2s-.1 0-.2 0c-.4-.3-1.6 0-2-.3h-.7c-.2-.2-.9 0-1-.1v-.1a6.5 6.5 0 01-1.4-.2h-1.2v-.1h-.2c-.2-.1-1 0-1.4-.2h-.7a7.3 7.3 0 00-1.2-.1h-1.5c-.3-.3-.7 0-1-.2-.6-.1-2.1 0-2.7-.2h-1.3a5.8 5.8 0 00-1 0l-1.1-.1h-.2s-.3-.2-.4 0h-.3c-.3-.2-1 0-1.4 0h-5.6-.1a12.7 12.7 0 01-1.6 0s0 .1-.2 0h-.1c-.1 0 0 0 0 0h-.5a2.6 2.6 0 00-1 .1h-.3a8.3 8.3 0 00-1.4.2v-.2a10 10 0 01-1.6.1v.1l-1.2.1-.2-.3a3.9 3.9 0 011.2-.3h.2a8.9 8.9 0 001.4-.5c.1 0 0 0 0 0a3.5 3.5 0 001.2-.4h.3a1 1 0 01.5-.3c.5 0 1.1-.7 1.7-.7.3 0 .6-.4 1-.4l.3-.1v-.1a1.7 1.7 0 00.9-.5l.5-.1c0-.1.1-.2.4-.2v-.1c.3-.1.5-.4.8-.4l.3-.2v-.1h.3s.4-.3.4-.5c0 0 .4 0 .5-.2.4-.1.8-.7 1.3-.7v-.1c.2 0 .5-.2.5-.4h.4c0-.2.4-.5.6-.5s.7-.4.7-.6c.3 0 .4-.3.7-.3v-.1c.2 0 .2-.2.5-.2a8.2 8.2 0 001.4-1.2v.1a9 9 0 011.8-1.3.6.6 0 01.3-.2l.1-.1c.4-.2 1-1 1.4-1a.3.3 0 01.3-.2c.3-.2.3-.5.7-.6l.5-.4a.4.4 0 01.1 0v-.2a4.7 4.7 0 001.1-.8 9.8 9.8 0 001.2-1 .7.7 0 01.3-.3v-.1c.4 0 .7-.7 1-.8h.2v-.2a.7.7 0 01.3-.3l.4-.2h-.1v-.2c.2-.2.5-.3.6-.6 0-.2.4-.2.5-.4a1.3 1.3 0 01.5-.4.9.9 0 00.3-.3c.1-.2.7-.6.7-.8 0 0 .2 0 .2-.2a1 1 0 00.1-.2v.1l.1-.2c.1-.1.3-.2.3-.4v.1c.2-.3.6-.5.7-.9h.1c0-.1.2-.1.2-.3.2 0 .1-.1.3-.2a.7.7 0 01.3-.3 3.2 3.2 0 00.5-.6.3.3 0 00.2-.3l.1-.2c.1 0 .4-.2.4-.4v-.1h.2c0-.3 1-1.3 1.2-1.5s.2-.5.5-.5v-.4l.2-.1v-.1a2.3 2.3 0 00.6-.8v.1a.5.5 0 000-.2c.2 0 .5-.4.5-.6h.1c0-.2.1-.1.2-.3a.8.8 0 00.1-.3.4.4 0 00.3-.3h.1v-.2h.1a4 4 0 00.9-1.3 6 6 0 00.9-1.3 3.1 3.1 0 01.7-1l.2-.2c.2 0 0 0 0-.1l.4-.8a2.3 2.3 0 00.4-.7h.1a4.4 4.4 0 01.8-1.3v-.2l.2-.5a1 1 0 00.3-.5c0-.4.4-.6.4-1h.1c0-.4.4-.6.4-1l.1-.3.2-.5a2.3 2.3 0 00.4-1v.1a6.5 6.5 0 01.2-.7 2.2 2.2 0 00.3-1h.1a1 1 0 00.2-.6l.2-.7c0-.8.5-1 .5-1.7a3.4 3.4 0 01.3-1.3v-.3a3.2 3.2 0 01.3-1 10.4 10.4 0 000-1 15.3 15.3 0 00.3-3.4h-10.4a8.7 8.7 0 01-.3 2.5c0 .1.1.3 0 .4a1 1 0 000 .4v.9-.1a.8.8 0 000 .5l-.2.1v.2l-.1.6a7.3 7.3 0 01-.6 1.6c-.1.1 0 .3-.2.3v.1c0 .2 0 .4-.2.5v.1l-.1.2a3.9 3.9 0 00-.5 1.2h-.1c0 .3-.2.4-.3.7a6 6 0 01-.7 1.3l-.3.4a.6.6 0 000 .2.3.3 0 00-.2.2 7 7 0 00-.7 1.3h-.1c0 .4-.5.7-.6 1l-.2.1h.1a1 1 0 00-.4.6l-.2.5a.2.2 0 010-.1.5.5 0 01-.2.2s-.2.1-.2.3c-.1 0-.3.3-.3.5v-.1a.6.6 0 00-.1.2c-.2 0-.4.5-.5.6a.2.2 0 00-.1.3v-.1a.6.6 0 01-.3.3v.1a7.5 7.5 0 01-1 1.2c-.2 0-.2.3-.4.3v.1c-.3.1-.5.9-.9 1v.1c-.2 0-.3.3-.4.4-.2.4-1.3 1.2-1.3 1.6v-.1l-.5.5-.3.5c-.1.2-.2 0-.2 0l-.8.9c-.3.3-.7.4-.7.7l-.3.3a2.5 2.5 0 00-.6.6l-.2.1a13.5 13.5 0 00-1.4 1.4l-.3.2v.1c-.2 0-.5.2-.6.5v-.1c-.4.2-1 1.2-1.4 1.2v.1c-.2 0-.2.3-.5.3v.1a.2.2 0 01-.2.1v.1a.7.7 0 00-.4.4h-.2v.1c-.2 0-.3.3-.5.4a4.6 4.6 0 01-1.1.9.3.3 0 00-.3.2c0 .1-.1.2-.3.2h.1-.1a2.3 2.3 0 01-.6.4 4.8 4.8 0 01-1.2 1 9.9 9.9 0 00-1.6 1c0 .2-.3.1-.3.3a1.4 1.4 0 01-.7.4 5.9 5.9 0 00-1.2 1h-.6a1.4 1.4 0 00-.5.2h.1-.2c-.1.1-.2.3-.4.3h-.2a.5.5 0 01-.3.2 12.5 12.5 0 00-1.6 1 .2.2 0 00-.2.1h-.2a2.7 2.7 0 01-1 .6.8.8 0 01-.3 0v.2c-.2 0-.3 0-.4.2h-.2a4.1 4.1 0 01-.9.4 30.3 30.3 0 005-10.3c.5-1.4.6-2.9.9-4.5l.1-1.8v-.7a7.3 7.3 0 000-2.1v-1.3c-.1-1 0-2-.3-3l-.6-3.2a44.4 44.4 0 00-1.8-4.8 25 25 0 00-2-3.7 6.9 6.9 0 00-1-1.4l.7-.7c.2-.2 1.2-.9 1.2-1.1.2-.3.8-.5 1-.9 0-.2.2-.2.4-.4l.2-.4.4-.2v-.2h.1a5 5 0 00.8-1l.4-.5h.1l.2-.2h-.1c0-.2.2-.2.3-.4.2 0 .4-.4.4-.6a4.8 4.8 0 001-1.4c0-.2.4-.4.4-.7 0-.3.3-.4.4-.8v-.1l.3-.5a.5.5 0 00.1-.4h.1c0-.2.1-.1 0-.2a8.4 8.4 0 00.8-2h.1c0-.7.4-1 .4-1.7h.3a2.4 2.4 0 01.2-1v-.3-.3s0-.7.3-.8 0-.1-.1-.1v-.2l.1-.3c.1 0 0 0 0-.1a14.7 14.7 0 000-3.2V76.4a4.9 4.9 0 01-.3-1v-.5a2.1 2.1 0 01-.1-.4c0-.2 0-.5-.2-.6h.1a3.6 3.6 0 01-.3-.8v-.3l-.3-.7a2.6 2.6 0 000-.3 5 5 0 01-.5-1.2l-.4.1c-.5 0-.6.4-1 .4v.1c-.5 0-.8.4-1 .4a1 1 0 00-.5.3 1 1 0 01-.5.2h-.1a2.2 2.2 0 01-1 .5 2.2 2.2 0 00-1 .5h-.3a1.4 1.4 0 01-.4.2h-.1l-1 .5h-.2l-.1.1-.7.2a.8.8 0 01-.4.2v.1c-.5 0-.9.5-1.5.5a2.6 2.6 0 00.3 1.1v.3l.2.3v.4a5.4 5.4 0 01.1 2.5l-.1.9-.6 1.9c0 .4-.4.5-.4.9h-.1c0 .3-.3.5-.4.8a1.2 1.2 0 010 .2.8.8 0 01-.2 0h.1a6.2 6.2 0 00-.7 1h-.1v.1a3.9 3.9 0 00-.8 1h-.1-.2s-1 1-1 1.2a.4.4 0 01-.2.1v.2h-.2l-.7.7c-.1 0 0 0 0 0l-.3.2-.1.2a.5.5 0 01-.4.2c-.1.4-1.2.7-1.2 1a1.2 1.2 0 00-.5.3l-.7-.2-2-.7a18.2 18.2 0 00-7.9-.2 19 19 0 00-2.7.7 4.5 4.5 0 01-1.2.4.7.7 0 01-.4-.3h-.2c0-.2-.5-.3-.7-.4l-.8-.8c-.1 0-.3 0-.4-.2s-.2-.3-.4-.4h-.2v-.1c0-.1-.8-.7-.8-.9-.3-.2-.6-.3-.8-.6v-.2h-.3v-.2c0-.2-.3-.3-.4-.5h-.1a1.7 1.7 0 00-.6-.7 2.8 2.8 0 01-.7-1c-.1-.3-.3-.3-.3-.6l-.2-.1-.2-.6h-.2.1v-.3h-.2c0-.4-.3-.7-.3-1.2h-.1a.8.8 0 00-.1-.5v-.3a2.2 2.2 0 01-.2-1 3.9 3.9 0 010-1.5v-.3c0-.2 0-.5.2-.7s-.1-.1 0-.1a1.5 1.5 0 00.2-.8c0-.4.3-.6.3-1.1-.6 0-.7-.5-1.4-.5v-.1a1 1 0 01-.5-.2l-.4-.1a2 2 0 00-.9-.4 6.3 6.3 0 00-1.3-.5V73H142a2.3 2.3 0 00-.9-.4h.1a3.1 3.1 0 00-1-.3v-.1c-.4 0-.7-.4-1-.4v-.2c-.6 0-.7-.4-1.1-.4-.4 0-.6-.4-1-.4v-.1h-.2c-.4 0-.5 1-.7 1.2a16 16 0 00-1.2 6.2 9.6 9.6 0 00.1 2.3v.6l.1.3h-.2a8.5 8.5 0 00.4 1.9v.3a1.5 1.5 0 01.1.3v.3a1.3 1.3 0 01.3.7c0 .1 0 .3.2.4h-.1c.1.2.3 1 .5 1.2v.2h.1c0 .4.3.5.3.8h.1c0 .4.3.6.4 1l.1.2c.1.3.4.5.4.8 0 0 .3.3.2.4.2.2.5.5.5.8.2 0 .4.4.4.5h.1c0 .3.3.4.3.6h.2-.1c0 .2.2.4.4.4s.1.2.2.3a11.6 11.6 0 001.3 1.6c.1.2.4.2.5.5.2.4.6.4.7.7 0 .1.3.3.5.3.1.3 1 .8 1 1 .1.3.6.3.7.7V97c0 .1.3.2.3.4v-.1a.5.5 0 00.4.3l-1.1 1.6-1.2 2.1a30.4 30.4 0 00-3 8.7c-.3 1-.3 2-.4 3l-.2 1.8v.8a6.3 6.3 0 000 1.6c.2.9 0 1.7.2 2.5a45.5 45.5 0 001 4.9 31 31 0 002.7 6.8l1.3 2.1.7 1c-.4 0-.7-.5-1.1-.5-.6 0-1.3-.8-1.8-.9 0-.1 0-.2-.2-.2a2.7 2.7 0 01-.6-.2c-.1-.2-.2-.3-.5-.3a4 4 0 00-.7-.4 7.5 7.5 0 00-1-.6c-.4-.1-.6-.5-.9-.7h-.2l-.2-.2h-.1a5.4 5.4 0 00-1.3-.9c-.2 0-.5-.4-.6-.4v-.1a8.1 8.1 0 01-1.2-.8 8.5 8.5 0 00-1.3-1 1 1 0 00-.5-.3c0-.3-.4-.3-.5-.6a13.2 13.2 0 00-1.8-1.3 2.3 2.3 0 00-.7-.6c-.1-.1-.4-.2-.5-.5l-.5-.3v-.1h-.1c-.1-.3-.6-.4-.7-.7-.1-.3-.8-.5-1-1l-.4-.4a.5.5 0 00-.4-.3 4 4 0 01-1-1l-.7-.7-.4-.4c-.3-.3-1.2-1-1.3-1.4a.2.2 0 00-.2-.2v-.1h-.1c0-.2-.3-.3-.4-.5 0-.2-.2-.2-.3-.3l-.1-.2a.6.6 0 01-.4-.4 3.2 3.2 0 00-.9-1h.1c-.1 0-.2-.1-.2-.3-.1-.4-.7-.7-.8-1-.2-.4-.7-.5-.8-1h-.1a4.5 4.5 0 01-.6-.8l-.1-.2-.3-.2s-.1-.5-.4-.6v-.1-.1l-.2-.2c-.2-.4-1-1.2-1-1.5-.3 0-.3-.7-.6-.8v-.1a1.6 1.6 0 00-.5-.7h.1a1.5 1.5 0 01-.4-.8h-.1l-.2-.4a1.6 1.6 0 01-.1-.5h-.1c0-.5-.8-1.1-.9-1.8 0-.2-.2-.2-.2-.5a4.2 4.2 0 00-.6-1.1v-.6h-.1c-.1-.5-.5-1-.5-1.5a5 5 0 01-.2-.8 5.8 5.8 0 01-.2-1v-.2a7.2 7.2 0 00-.3-1.5 5.4 5.4 0 000-.8v-.2h-.1v-1H100v3.5l.1.5.1.1v.5c.2.2.1.7.2.9s0 .8.3.9l-.1.1a5.2 5.2 0 00.3 1.1l.1.4a2 2 0 01.2.5v.3l.2.4v.3a12.9 12.9 0 01.6 1.4 2.2 2.2 0 01.1.5 6.1 6.1 0 01.7 1.7 5.7 5.7 0 01.5 1.1h.1c0 .4.4.6.4 1 0 .3.4.5.4.9h.1c0 .3.4.4.4.8a1.2 1.2 0 00.5.7v.1a.8.8 0 01.2.4v.1l.1.3c0 .2.3.3.3.5l.1.3a.7.7 0 00.3.3c0 .1.2.1.2.3h.1c0 .5.6.7.7 1.2h.1v.2h.1c0 .3.3.4.4.6h.2c0 .2.2.3.3.4.1.3.5.6.6 1l.1.1c0 .2.2.1.2.3h.1v.1h.1a1.6 1.6 0 00.5.6v.2a10 10 0 001 1v.2l.3.2v.1l.2.2v.1h.1v.2h.2v.3s.3.1.3.3a.5.5 0 00.3.4v.1h.1a.5.5 0 00.3.4c.3 0 .2.3.3.4h.2v.2l.4.3v.1l.6.6a.2.2 0 00.2.3l.4.4v-.1a5.6 5.6 0 001.1 1.2v.1h.1a9.4 9.4 0 001.1 1.1 2.9 2.9 0 00.7.6l.2.3.9.8c.3.3.5.3.5.6a1.2 1.2 0 01.4.2v.1c.2.2 1 .7 1 1v-.1l.2.1c0 .1 0 .1.1 0v.2h.2a.5.5 0 00.4.4h-.1c.2.3.5.4.5.6h.1a3.1 3.1 0 011 .9l.5.4h.3c0 .2.7.6.7.7a2.3 2.3 0 01.6.5l.3.1.3.3a2.2 2.2 0 00.3.2c.1.1.2.3.4.3a1.4 1.4 0 00.3.2c.3 0 .4.5.7.5a4.7 4.7 0 00.5.4v.2c.3 0 .4.3.6.4.4 0 1 .8 1.3.9.3.1.4.4.6.4a.8.8 0 00.3.2l.4.2a8.5 8.5 0 001.3 1l.4.2.7.4v.1c.3 0 .3.2.4.3a.1.1 0 01.2 0 6 6 0 001.4.8 1.5 1.5 0 00.5.4c.4 0 .5.4.9.4.3 0 .4.4.8.5.3 0 .5.4.8.4v.1l.5.2c.3 0 .6.2.8.3.2.2 1.2.4 1.2.7.3-.1 1 .5 1.5.5a1.6 1.6 0 01.7.4h.3a4.9 4.9 0 001.5.5 20.2 20.2 0 012 .5l-.2.4h-.6v-.1h-.7c-.1 0 0 0 0 0-.4-.2-1.2 0-1.7-.1-1-.3-2.3 0-3-.3-.2 0-1.2.2-1.3 0h-.3s-.3-.2-.4 0a5.2 5.2 0 00-1.6 0H134a6.6 6.6 0 00-1.6 0c-.3-.2-.8 0-1.2 0a20.6 20.6 0 00-3.2.2h-1.1a.4.4 0 01-.2 0l-.6.1a7.3 7.3 0 01-1.3 0h-1c-.5.4-1.6 0-2 .3h-.7a1.8 1.8 0 01-.5 0h-.1l-.1.2v-.1a2.7 2.7 0 01-.8 0v.1a13 13 0 00-2 .3l-1.3.1h-1.1c-.2.3-.7 0-1 .3H113.6a5.7 5.7 0 01-1.6.2v.1a6.1 6.1 0 00-1.5.2h-.4a4.8 4.8 0 01-1 .2 3.5 3.5 0 01-.8.2 1.6 1.6 0 01-.5 0 1.6 1.6 0 01-.4.2h-.3a8.4 8.4 0 01-2 .3v.1a3 3 0 00-1 .2h-.1a4 4 0 01-1 .3h-.4c-.2.2-.7.1-1 .3h-.3l-.6.2h-.3a6.3 6.3 0 01-1.8.5 8.3 8.3 0 00-2.1.6c-.2.2-.8 0-.9.3-.6 0-.9.4-1.4.4v.1a3.6 3.6 0 00-1.2.4.2.2 0 01-.1 0c-.4 0-.7.4-1.1.4v.1l-.8.2a.6.6 0 01-.3.1v.1l-1.1.5a1.1 1.1 0 01-.7.3v.3h-.4v.2c-.3 0-1.3 1-1.4 1l-.3.3V156.8h.2v.2l.5.3v.3h.2l.4.5.4.3c.2.3 1.1 1 1.2 1.3h.1v.2a3.9 3.9 0 01.5.5c0 .2.4.3.4.5h.2c.1.2.3.2.3.4H91.3c0 .2.2.3.3.4.1.2.4.3.4.6.3 0 .4.4.6.5h-.1l.4.4h-.1.4c.2 0 0-.2.2-.2v-.1l.6-.3a1.9 1.9 0 011-.4c.4 0 .6-.4 1-.4v-.1c.4 0 .3-.1.6-.2l.5-.1a5.8 5.8 0 011.6-.5v-.1l.5-.1a7.5 7.5 0 011.2-.3 5.3 5.3 0 001.5-.5 1.4 1.4 0 00.3 0h.5c.3-.3.9-.3 1.2-.5h.2l.5-.1h.3a2.3 2.3 0 011-.2v-.1c.7 0 1.2-.3 1.8-.3h.4l1-.2c.3-.1.6 0 .7-.2v.1a1.5 1.5 0 01.8-.1c.2-.2 1.2-.2 1.4-.3h.5a1.7 1.7 0 01.6-.2h.9a5.5 5.5 0 011-.3h.5a11.7 11.7 0 012.4-.3h-.1l2-.2a2.2 2.2 0 001-.2 5 5 0 001 0 5.7 5.7 0 001-.1c.3-.1.6 0 .8 0a1.7 1.7 0 01.6-.1c.2 0 1-.2 1 0a.7.7 0 00.3-.2h1a2.4 2.4 0 01.6 0h.5a4.4 4.4 0 011.6-.1 3.7 3.7 0 011.2 0h1.8c.3 0 1.2 0 1.3-.2v.1h3.4a17.9 17.9 0 013.3 0h.6a1.3 1.3 0 01.5.2h1c.1 0 .3-.1.4 0a6.3 6.3 0 001.5.1 5.3 5.3 0 010 1.5v1.1l.1 2 .4 2.8a30.8 30.8 0 001.5 4.6c-.6 0-1.3.6-2 .6v-.1l-.6.1a.3.3 0 000 .1 1.7 1.7 0 00-.7.3l-.7.2-.5.3h-.4a.8.8 0 01-.4.3c-.4 0-.7.4-1 .4v.1c-.4 0-.6.4-1 .4-.3 0-.6.4-1 .4a3.4 3.4 0 00-1 .7c-.1 0-.4 0-.5.2l-.4.2-1.1.8c-.3.3-.5.1-.7.3a2.2 2.2 0 01-.8.5v.2c-.1-.1-1 .5-1 .5a.4.4 0 01-.2.1c-.2.2-.5.5-.9.6a1.2 1.2 0 00-.6.5 6.6 6.6 0 00-1.2.8c-.3 0-.3.3-.6.3v.2h-.2v.1c-.2 0-.8.7-1.1.7a2.8 2.8 0 01-.4.3 2.3 2.3 0 00-.4.3h-.2c-.2.3-.5.7-.8.8-.3 0-.8.8-1.1.9-.2 0 0 .1-.2 0v.2a7.9 7.9 0 00-1.3 1c-.1.1-.3.4-.5.4v.2h-.1l-.4.3a1 1 0 01-.3.3l-.3.1v.1a5.5 5.5 0 01-1 1 .5.5 0 00-.5.4 2.5 2.5 0 01-.4.3.3.3 0 00-.2.3.2.2 0 01-.1 0l-1 1c0 .1-.5.3-.4.5-.2 0-.5.2-.5.4h-.1v.2c-.4.1-.6.6-1 .8-.1.1-.3.2-.3.4l-.6.5h.1a2.9 2.9 0 00-1 1 .6.6 0 01-.3.3v.1h-.1c0 .2-.2.3-.3.3l-.6.6a.2.2 0 00-.2.3 2.3 2.3 0 01-.5.5s0 .2-.2.2v.1c-.2 0-.2.4-.4.4v.2a2 2 0 00-.6.7l-.3.3c-.1 0 0 0 0 0l-.5.5a5.3 5.3 0 00-1 1.2l-.4.5v.1c-.2 0-.4.4-.5.6l-.4.4a.9.9 0 00-.3.5s0 .2-.2.2v.2l-.3.3a3 3 0 00-.7 1h.2a.6.6 0 00-.2.4l-.5.8a.8.8 0 000 .1h-.1l-.1.3v.2s0 .3-.3.3h.1a1 1 0 00-.4.7h-.1a.8.8 0 01-.3.6.2.2 0 00-.1.2h-.1a1.3 1.3 0 01-.4.7v.1c0 .6-.9 1.3-.9 1.9s-.2.2-.2.3a3.5 3.5 0 00-.2.6 5.1 5.1 0 01-.6 1.3c-.3.3-.2.9-.5 1.1a11.7 11.7 0 00-.8 2.6h-.1a3.2 3.2 0 010 .6v-.1.3a2.8 2.8 0 01-.3.6v.3h-.1v.3c-.2.3 0 .6-.2.7a21.2 21.2 0 00-.5 5.4h11.1a2.9 2.9 0 01.1-1v-.1-.7c0-.1 0 0 0 0 .2-.2.1-1.2.2-1.5l.3-1v-.3l.5-1.3v-.3a2 2 0 00.3-.8c0-.4.3-.6.4-1 0-.1.2-.7.4-.8a.3.3 0 000-.3h.1l.3-.6v-.1l.2-.2c.1 0 0 0 0 0a11.4 11.4 0 00.9-1.7c0-.5.6-.8.7-1.2a1 1 0 00.1-.4c.3 0 .3-.4.4-.6l.3-.3c.2-.3.7-1.4 1-1.4v-.1l.2-.2v-.1c.1-.4.7-.6.8-1l.2-.3a2 2 0 00.3-.5.3.3 0 00.2-.2.8.8 0 00.2-.3c.1-.2.6-.6.6-.8l.2-.3.2-.1v-.2h.2v-.3c.3-.2 1-.7 1-1h.2v-.2.1a3 3 0 01.3-.5s.2 0 .3-.2v-.2l.6-.5v-.2l.2-.2.2-.1a1 1 0 00.5-.6c.2-.3 1.1-.9 1.2-1.2a17 17 0 011.4-1.5c.2-.1.6-.3.7-.6v.1a2.3 2.3 0 01.7-.7c.1 0 .4-.2.4-.5l.1.1v-.1l1-.9v-.1h.2l.4-.4c.3-.1.3-.5.7-.5a.8.8 0 000-.1c.3-.1.4-.5.6-.5h.3a.2.2 0 01.2-.3c.2-.1.3-.4.6-.4v-.1l.3-.2a.5.5 0 01.3-.2c.5-.2.6-.8 1.2-.9l.3-.3a5.2 5.2 0 001.3-1h.2v-.2c.2 0 .3-.2.4-.3h.2v-.2h.1l.3-.1c0-.1 0-.2.2-.2v-.1a1.8 1.8 0 00.7-.5h.3l-.1-.1h.2a.4.4 0 01.2-.1 2.9 2.9 0 01.8-.5c.3 0 .5-.3.6-.4a3 3 0 00.9-.5.3.3 0 01.3.3.8.8 0 00.5-.3.3.3 0 000-.1h.1a37.4 37.4 0 00-5.3 12.3c-.5 1.5-.6 3.2-.8 5l-.2 2.2v.6a11.8 11.8 0 000 2.8l.1 1.8.5 3.6 1.2 4.5a31 31 0 0010.8 15.6 25 25 0 007.5 4l2.4.5 2.3.3h2.1c1-.2 2-.1 2.9-.3a26.4 26.4 0 005.1-1.5c8.8-3.7 14.3-11.6 16.9-21.6a40.2 40.2 0 00-.3-18.8 34.8 34.8 0 00-3-7.6l-1.2-2.2-1-1.5h.2l.1.2v-.1a1.9 1.9 0 00.8.5 2.1 2.1 0 01.7.4.4.4 0 00.2 0v.2c.3 0 .4.3.8.4 0 .1.4.1.5.4h.1l.4.2a1.3 1.3 0 00.3.2.3.3 0 01.3.3l.3.1c0 .1 0 0 0 0a.8.8 0 01.2.2l.6.3a1.3 1.3 0 00.3.2 1.6 1.6 0 00.3.2l.4.3h.2v.1c.3 0 .3.3.6.4.2 0 .2.3.4.3.4.2 1.2 1 1.5 1 0 .2.1.2.2.3.2.2.6.3.7.6h.2c0 .4.8.6 1 1 .3.2.8.8 1 .8v.2a1.5 1.5 0 01.6.4v.1h.2s.5.7.8.8v.1c.4 0 .6.7 1 .8l.1.1c0 .2.4.3.4.5 0 .1.2 0 .3.2 0 .3.4.3.4.5h.1c0 .2.3.2.4.4v.1l.4.4c0 .2.4.2.4.4.2.2.5.4.5.6.1.2.4.2.4.4h.1c0 .4.8.6.9 1 .2 0 .3.4.5.5h-.1l.2.2a2.3 2.3 0 00.7.7v.1a.2.2 0 00.3.2c.2.3.6.5.7.8 0 .2.2.2.3.4a4.3 4.3 0 00.5.7l.2.1.1.3c.2.3.5.5.6.8v.4a6.4 6.4 0 01.9 1 1 1 0 00.4.6v.1h.1a1.6 1.6 0 00.5.7h-.1a.3.3 0 00.2 0 4.3 4.3 0 00.5.9v.2c.2 0 0 .1.2.2v.2c.2.2.6.4.6.8.1.4.6.6.6 1a8 8 0 00.7 1.5c.1.2.5 1.1.7 1.2h-.1a.2.2 0 00.1.1v.3h.1v.3h.2a.4.4 0 00.1.3.6.6 0 00.2.3h-.1a2.3 2.3 0 01.3.9l.1.4h.1a2.5 2.5 0 00.3 1v.3l.3.6v.3c0 .2 0 .6.2.7h-.1l.1.3v.5a8.3 8.3 0 01.3 2.5h11a4.3 4.3 0 000-1.5 5.4 5.4 0 000-1.1c-.1-.9-.1-1.6-.3-2.3-.1-.5 0-.8-.2-1.2-.1-.1 0-.5-.2-.6h.1a.4.4 0 010-.3h-.2a8.9 8.9 0 00-.6-2.2c0-.2 0-.7-.2-.8l-.3-.6c-.2-.3-.4-1.7-.7-1.8 0-.2-.3-.6-.3-1h-.1c0-.3-.3-.3-.3-.8v.1a5.5 5.5 0 01-.5-1.1c0-.3-.3-.4-.3-.6-.1-.4-.6-.7-.6-1.2a2.4 2.4 0 00-.5-.7.2.2 0 00-.2-.2 1.6 1.6 0 00-.1-.3c-.2-.2-.4-.8-.6-.9v-.1h-.1c0-.5-.8-1-.8-1.4a5.3 5.3 0 01-1-1.3l-.2-.5a.2.2 0 00-.2-.1c-.3-.2-.7-1.1-1-1.2h.1a.5.5 0 01-.2-.3h-.1l-.8-1v-.3l-.4-.2c0-.1 0-.2-.2-.2v-.2h-.2v-.3h-.1a.4.4 0 00-.2-.2v-.1c-.4-.1-.8-1.1-1-1.1-.1-.2-.2-.4-.4-.4v-.1l-.1-.2a.2.2 0 00-.3-.1v-.1h-.1v-.1h.1a5.8 5.8 0 00-1-1v-.2c-.2 0-.3-.3-.5-.4l-.4-.4-.2-.4-.5-.3v-.1c-.1-.2-.5-.3-.5-.5s-.2-.2-.2-.3a2.4 2.4 0 01-.2-.2c-.2-.4-1-.7-1-1h-.2a7.2 7.2 0 00-1.2-1.1v-.2c-.1 0 0 0 0 0a4.3 4.3 0 00-1-.9.4.4 0 00-.4-.2v-.1a.3.3 0 00-.3-.2 2.6 2.6 0 00-.4-.3v-.1a1 1 0 01-.4-.4h-.1c0-.3-.4-.3-.6-.5l-.2-.2a.1.1 0 01-.1 0l-.2-.4c-.1 0-.4 0-.4-.2a1.2 1.2 0 00-.6-.5l-.5-.4a1 1 0 00-.7-.5h.1c-.2-.2-.4-.4-.6-.4 0-.3-1-.6-1-1h-.1c-.4 0-.7-.6-1-.7l-1-.7c-.2-.1-.4-.4-.5-.3a.6.6 0 00-.3-.3 1.2 1.2 0 00-.3-.1v-.1c-.3 0-.4-.3-.7-.4 0-.2-.5-.3-.6-.4l-.6-.5h-.2v-.1l-.3-.1a2.5 2.5 0 00-1-.7l-.3-.1h.1a7.1 7.1 0 01-1.1-.7h-.2l-.3-.3a1 1 0 00-.7-.3 3.7 3.7 0 00-1-.6h.1a5.8 5.8 0 01-1.4-.7v-.1a.2.2 0 01-.4-.2h-.1l-1-.5v-.1h-.3l-.7-.4c-.7 0-1-.6-1.7-.7a2.3 2.3 0 00-.4-.1v-.1c-.5 0-.8-.4-1.3-.4a4 4 0 01-1.3-.5h-.3a1.4 1.4 0 00-.7-.2l.6-1.3.7-2.3a26.7 26.7 0 00.7-8.3 3.4 3.4 0 001-.1h.4a5 5 0 011-.2h.5a6.5 6.5 0 011 0h.6a10.3 10.3 0 012 0h.7a10 10 0 012.8 0c.1 0 .8-.2 1 0v-.1a3 3 0 001 0h1.1a1.2 1.2 0 01.5.1h1.7s0 .2 0 0 0 0 .2 0h.1a19.3 19.3 0 012.6.2l.8.1c0 .1 0 0 0 0l1 .1c0 .1.2 0 .2 0a5.8 5.8 0 001.6.1c.1.2.4 0 .7 0 .5.2 1.1 0 1.6.3h.7l.7.1 1.3.1h.2c.3.2.5 0 1 .1v.1h.7a3.3 3.3 0 001 .2c.2.1 1.4 0 1.7.2h-.2c.1.1.8 0 1 .2h.5c.2.2 1 0 1.3.2l.5.1.8.1a3.6 3.6 0 001.2.2v.1c.8 0 1.7.4 2.3.4a8.8 8.8 0 012.4.6h.2a6 6 0 011 .3 2.3 2.3 0 01.2 0 6.8 6.8 0 001.5.4l.2.1h.3a2.3 2.3 0 00.8.3l.5.1v.1a9.4 9.4 0 011.9.6c.2.1.6.1.8.3h.4v-.3h.2v.1l.5.1a1.5 1.5 0 00.7.3c.3.2 1.2.5 1.3.7.2 0 .8-.6.8-.9.2 0 .2-.2.3-.2a14.8 14.8 0 001.5-1.6h.1c.1 0 0 0 0 0 .1-.1.2-.3.4-.3a13.1 13.1 0 011-1v-.2l.3-.4v-.1l.4-.2h.1v-.1h.1c0-.2.3-.4.4-.4l.2-.2c.2 0 0 0 0 0a5.5 5.5 0 001-1zM114.2 102.8zM78.7 129zM113.5 160.8zM72.4 165zM84.7 170z"/></svg>