<svg id="lady_bug" data-name="lady bug" xmlns="http://www.w3.org/2000/svg" viewBox="0 0 454.75 254.56"><defs><style>.cls-1{fill:#212990;}</style></defs><title>bug logo</title><path class="cls-1" d="M134,134.45c0-.15-.17-.14-.2-.28l0,0a4.12,4.12,0,0,0-.88-.62c-.1-.07-.38-.14-.42-.24s0,0-.05,0l0-.06a11.85,11.85,0,0,0-1.32-.54.93.93,0,0,0-.37-.15v0c-.26,0-.4-.2-.68-.2v-.05c-.27,0-.46-.18-.72-.19v0a1,1,0,0,1-.4-.11h-.12v0h-.13v0h-.15a.6.6,0,0,1-.13-.09h-.15v0h-.13v0H128a.55.55,0,0,0-.28-.08v-.05a2.84,2.84,0,0,1-.8-.19h-.12s0,0,0,0h-.12a1.6,1.6,0,0,1-.33-.11s-.29,0-.35,0v0h-.19v0h-.18A3,3,0,0,0,125,131h-.16c-.06,0-.61-.14-.63-.17s0,0,0,0c-.09-.11-1.09-.18-1.22-.28h-.24l0,0c-.08,0-.69-.06-.71-.13s0,0,0,0c-.08-.1-.39-.05-.42-.12s0,0,0,0a1.1,1.1,0,0,0-.43-.08l0,0a1.77,1.77,0,0,0-.52,0v-.05s0,0,0,0-.47-.06-.5-.12-.08,0-.11,0c-.22-.18-.84,0-1.06-.2s-.28,0-.33,0,0,0,0,0-.48,0-.54-.08v0a3.66,3.66,0,0,1-.73-.07c-.1-.06-.26,0-.36,0h-.32v0h-.06v0c-.12-.11-.6,0-.78-.12h-.36a4.1,4.1,0,0,0-.63-.08h-.3l-.52,0c-.11-.09-.35,0-.52,0s-1.1,0-1.39-.12h-.69a3.74,3.74,0,0,0-.59,0c-.13,0-.53,0-.57,0s0,0-.06,0-.2-.09-.24,0-.14-.08-.16,0c-.14-.09-.54,0-.75,0h-2.77c-.06,0-.12,0-.14,0v0c-.09,0-.11,0-.13,0s0,0,0,0a6.41,6.41,0,0,1-.86,0s0,0-.08,0v0s0,0-.06,0,0,0,0,0h0v0h-.21a1.25,1.25,0,0,0-.47,0h-.21a4.26,4.26,0,0,0-.74.08v0a5.46,5.46,0,0,1-.85.08v0c-.25,0-.38,0-.61,0l-.11-.18a2.08,2.08,0,0,1,.64-.13l0,0h0s.11,0,.08,0l0,0a7.66,7.66,0,0,0,.72-.27s0,0,0,0a2,2,0,0,0,.58-.23h.16a.45.45,0,0,1,.28-.12v0c.28,0,.6-.34.92-.35,0,0,0,0,0,0h0c.19,0,.31-.21.55-.21l0,0c.08,0,.09-.05.19-.05v0a.88.88,0,0,0,.45-.23s.21,0,.27-.09.09-.11.21-.11v-.05c.16,0,.27-.18.43-.19s0,0,0,0,.17,0,.19-.06V127l.16,0s0,0,0,0,.2-.09.22-.19.22-.07.24-.12l0,0v0c.25,0,.46-.38.72-.4l0,0c.1,0,.27-.1.28-.21s.1,0,.19,0a.45.45,0,0,1,.32-.2l0,0s0,0,0,0,.38-.17.39-.25.21-.17.36-.19v0c.11,0,.12-.11.24-.11l0,0a4.4,4.4,0,0,0,.8-.57s0,0,0,0a4.75,4.75,0,0,1,.93-.68s0,0,0,0a.29.29,0,0,1,.19-.1l0,0c.06,0,0,0,.11,0s0,0,0,0c.2-.11.56-.5.76-.54a.16.16,0,0,1,.15-.12l0,0c.17,0,.21-.24.4-.25l0,0c.08-.07.2-.2.31-.21l0,0a.2.2,0,0,1,.11-.06v0a2.22,2.22,0,0,0,.58-.47v0c.13-.13.59-.48.63-.6v0c0-.05.1-.13.18-.15v0c.18,0,.37-.37.56-.43l0,0,.07,0v-.06h0l0,0a.41.41,0,0,1,.17-.15v0c.08,0,.06-.07.16-.08l0,0s0,0,0,0l0,0c.07-.12.25-.18.29-.31h0c0-.12.15-.14.19-.24h0s.19-.2.23-.21,0,0,0,0,.14-.1.16-.17l0,0c.08-.1.37-.31.39-.43l0,0c0-.05.08-.08.09-.15l0,0a.29.29,0,0,0,.07-.12l0,0,.06-.11,0,0c0-.08.13-.1.13-.2l0,0c.1-.18.34-.28.4-.48h0c0-.08.07-.07.09-.15l0,0s0,0,.05,0l0,0c.06,0,0,0,.11-.05a.41.41,0,0,1,.19-.2l0,0a2.44,2.44,0,0,0,.27-.3.17.17,0,0,0,.13-.14l0,0s0-.1.05-.13.19-.09.21-.23l0,0,0-.08h.07c0-.15.57-.66.68-.8s.11-.26.24-.28v-.08c.07,0,.06-.06.12-.08l0,0a1.13,1.13,0,0,0,.31-.4l0,0a.26.26,0,0,0,0-.12.51.51,0,0,0,.24-.28h0c0-.12.06-.1.09-.19l0,0a.53.53,0,0,0,.08-.17c.06,0,.12-.11.13-.18h.07c0-.09,0-.08,0-.12H122s0,0,0,0a2.08,2.08,0,0,0,.47-.67,3.2,3.2,0,0,0,.49-.68h0a1.74,1.74,0,0,1,.36-.56l0,0s0-.06.11-.08,0,0,0-.08.25-.4.25-.44,0,0,0,0a1.25,1.25,0,0,0,.2-.4h.05a2.22,2.22,0,0,1,.39-.68v-.11a2,2,0,0,1,.13-.25.53.53,0,0,0,.14-.29h.05c0-.19.18-.29.19-.48h0c0-.23.19-.33.19-.52h0c0-.09,0-.1.05-.19l0,0a3,3,0,0,1,.09-.32,1.4,1.4,0,0,0,.21-.48v0c0-.11,0-.26.11-.36a1.08,1.08,0,0,0,.18-.52h0s0,0,0,0a.53.53,0,0,0,.12-.35h0c0-.16.07-.21.07-.36h0c0-.4.2-.54.19-.89h0a1.79,1.79,0,0,1,.16-.68v-.2a2,2,0,0,1,.12-.49c0-.07,0-.44,0-.55a8.25,8.25,0,0,0,.13-1.85h-5.92a4.42,4.42,0,0,1-.12,1.32c0,.08,0,.19,0,.25h0a.6.6,0,0,0,0,.21l0,0,0,.23,0,0,0,.23v-.05h0a.38.38,0,0,0,0,.25c-.06,0,0,.07-.08.09s0,0,0,.07-.08.22-.12.34a3.76,3.76,0,0,1-.32.83c0,.1,0,.16-.07.21v0h0c-.09.07-.08.2-.16.27l0,0s-.06.1-.1.14h0a2.48,2.48,0,0,0-.27.62h0c0,.17-.11.19-.13.35l0,0a3.36,3.36,0,0,1-.37.71c-.07.09-.07.19-.16.26l0,0-.07.06,0,0a.13.13,0,0,0-.07.15h0l0,0a3.86,3.86,0,0,0-.37.65h0c0,.21-.25.37-.32.57,0,0-.05,0-.07,0l0,0a.52.52,0,0,0-.2.33l0,0c0,.09-.14.19-.14.28l0,0a.27.27,0,0,1-.08.1s-.07.09-.08.19-.16.16-.17.23l0,0a.29.29,0,0,0,0,.13c-.09,0-.23.23-.24.32a.09.09,0,0,0-.09.11l0,0a.37.37,0,0,1-.12.17h0v0a3.56,3.56,0,0,1-.52.63s0,0,0,0-.08.11-.2.13v.08c-.17,0-.29.44-.48.48v.09c-.12,0-.15.15-.21.23s-.69.63-.72.8l0,0c-.07.13-.15.14-.25.24s-.11.21-.17.27-.09,0-.12,0-.26.3-.39.44-.36.23-.38.4l0,0a.3.3,0,0,1-.17.16s0,0,0,0a1.46,1.46,0,0,0-.37.33v0c0,.06,0,0-.09.09h0a7.54,7.54,0,0,0-.75.71h0c0,.08-.07.09-.12.12h0s0,0,0,.06v0a.53.53,0,0,0-.27.28l0,0v0c-.24,0-.52.57-.77.6v.06c-.12,0-.11.12-.24.14v.07l0,0s0,.06-.08.07v0a.39.39,0,0,0-.24.19H110V118c-.13,0-.16.14-.28.17a2.69,2.69,0,0,1-.6.48v0a.15.15,0,0,0-.12.11l0,0s0,.08-.13.08h0l0,0h-.07l0,0a1.13,1.13,0,0,1-.35.21,2.74,2.74,0,0,1-.64.48v.05a4.46,4.46,0,0,0-.81.56c-.06.06-.17,0-.2.15s0,0,0,0a.76.76,0,0,1-.33.24v0a3.15,3.15,0,0,0-.69.43h-.08v0a.92.92,0,0,0-.24.13h0l-.11,0c-.07,0-.09.11-.2.12h0l-.15.07h0a.27.27,0,0,1-.18,0v.05a7.23,7.23,0,0,0-.81.48.13.13,0,0,0-.13.07l0,0-.05.07,0,0a1.58,1.58,0,0,1-.53.28h0a.43.43,0,0,1-.2.06v.05c-.1,0-.14.06-.2.1h-.11a2.91,2.91,0,0,1-.46.24h0a16.09,16.09,0,0,0,2.67-5.46c.22-.75.28-1.54.44-2.38,0-.32.07-.65.1-1v-.38a4,4,0,0,0,0-1.14c0-.22,0-.45,0-.68-.1-.54-.07-1.09-.17-1.61s-.19-1.14-.35-1.67a23.94,23.94,0,0,0-.92-2.56,13.22,13.22,0,0,0-1.13-2.07,3.16,3.16,0,0,0-.53-.75v0h.05l0,0c.1-.05.38-.23.4-.34l0,0c.11-.17.64-.5.67-.64l0,0c.11-.19.39-.27.46-.47l0,0c.08-.14.17-.17.29-.28s0-.12.08-.16.15-.1.2-.16v-.07h.08a3.28,3.28,0,0,0,.4-.52c.09,0,.21-.2.24-.28h.05c0-.07,0-.08.07-.08s0,0,0,0,.13-.08.15-.19a.52.52,0,0,0,.24-.33,2.59,2.59,0,0,0,.48-.72h0c0-.13.18-.23.19-.39h0c0-.17.14-.23.16-.4l0,0v-.08h0c0-.07.06-.22.11-.24l0,0a.26.26,0,0,0,.1-.21h0c0-.1,0-.06,0-.1a4.76,4.76,0,0,0,.43-1.1h0c0-.31.19-.52.19-.85h0a1.36,1.36,0,0,1,.12-.52v-.2a1.27,1.27,0,0,1,0-.14c0-.1,0-.42.08-.45s0,0,0-.07h0c0-.06,0-.06,0-.07s0-.16.08-.2,0,0,0-.05a8.3,8.3,0,0,0,0-1.68l0,0v-.44a2.42,2.42,0,0,1-.12-.56V91a.75.75,0,0,1-.08-.2c0-.13,0-.3-.08-.33l0,0a1.83,1.83,0,0,1-.16-.45v-.1c0-.07-.1-.25-.16-.35v-.16a2.62,2.62,0,0,1-.27-.64c-.12,0-.1,0-.22,0v0c-.24,0-.33.18-.55.2v0c-.24,0-.39.19-.56.2v0a.53.53,0,0,0-.25.11l0,0a.76.76,0,0,1-.19.12h-.08a1.22,1.22,0,0,1-.57.24v0a1.05,1.05,0,0,0-.53.23h-.11a1,1,0,0,1-.2.11h-.08c-.16.12-.42.19-.53.27h-.12s0,.07,0,.08-.32.06-.35.08a.39.39,0,0,1-.24.12v0c-.26,0-.47.27-.76.28a1.31,1.31,0,0,0,.19.57v.15h0l0,.15v.21a2.74,2.74,0,0,1,.08,1.34c0,.17,0,.37-.08.46l0,0s-.3,1-.3,1h0c0,.2-.18.29-.2.49h0c0,.17-.17.24-.2.4h0v.11l0,0,0,0h0a3.2,3.2,0,0,0-.39.54h0v.07a2.32,2.32,0,0,0-.4.48h-.08c0,.08,0,.06-.07.09h0a6,6,0,0,0-.56.58l0,0a.2.2,0,0,1-.14.11v.08h-.07a1.47,1.47,0,0,1-.42.37s0,0,0,0a.22.22,0,0,1-.12.11v0c-.08,0-.09,0-.1.07l0,0a.28.28,0,0,1-.21.15c0,.21-.6.38-.64.53a.8.8,0,0,0-.24.13h0c-.11.06-.29-.06-.4-.11a8.75,8.75,0,0,0-1.06-.34,9.6,9.6,0,0,0-4.18-.14,10.75,10.75,0,0,0-1.46.38,2.41,2.41,0,0,1-.63.23.42.42,0,0,1-.19-.16H89.7c0-.12-.26-.17-.34-.25l-.46-.39c-.05,0-.14,0-.19-.09s-.12-.2-.25-.23v0h-.07l0,0c-.09-.05-.46-.34-.48-.44l0,0c-.1-.15-.26-.23-.37-.36l0-.11s-.08,0-.11,0v-.08c-.07-.08-.2-.12-.24-.24h0c0-.08-.27-.36-.31-.37l0,0a1.64,1.64,0,0,1-.4-.57h0c0-.11-.1-.16-.11-.28l0,0c0-.07,0-.1-.09-.12l0,0h-.05c0-.13-.1-.18-.11-.31h-.08l0,0c0-.07,0,0,0-.14h0c0-.23-.19-.37-.19-.63h0a.39.39,0,0,0-.07-.25v-.21a1.19,1.19,0,0,1-.07-.55h0a2.13,2.13,0,0,1,0-.77c0-.05,0-.13,0-.15s.06-.3.1-.4,0,0,0-.07a.74.74,0,0,0,.1-.38h0c0-.25.15-.36.15-.6-.32,0-.41-.28-.76-.28v0a.48.48,0,0,1-.27-.12c-.06,0-.14,0-.2,0a1.11,1.11,0,0,0-.48-.21l0,0a3.52,3.52,0,0,0-.72-.28v0c-.06,0,0,0-.06,0a.09.09,0,0,0-.1-.05l0,0a1.34,1.34,0,0,0-.51-.17s0,0,0,0a1.63,1.63,0,0,0-.53-.21v0c-.23,0-.37-.2-.57-.2v0c-.26,0-.33-.2-.56-.2v0c-.18,0-.3-.2-.55-.2v0c-.08,0-.11,0-.12,0-.21,0-.27.51-.35.68a8.58,8.58,0,0,0-.63,3.27,5,5,0,0,0,0,1.23c0,.14,0,.29,0,.33a.26.26,0,0,0,0,.18h0a4.43,4.43,0,0,0,.2,1v.16a.71.71,0,0,1,.08.15v.17a.59.59,0,0,1,.12.39l0,0c0,.09,0,.16.08.22h0c.07.15.16.54.28.63h0s0,0,.05.13l0,0c0,.22.16.27.17.47h0c0,.2.19.29.19.48h0c0,.09,0,.08,0,.16l0,0c0,.15.17.24.18.39l0,0c0,.08.11.2.08.21s.28.29.28.46a.41.41,0,0,1,.2.28l0,0c0,.12.16.16.17.3l.07,0h0c.06.08.13.2.24.22s0,0,0,0,.09.09.11.17h0a5.07,5.07,0,0,0,.64.8c.07.1.24.15.27.28h0c0,.2.26.23.32.4l0,0c0,.07.17.19.24.2h0c.11.14.52.41.56.54h0c0,.14.29.15.32.33,0,0,0,0,0,0s.16.11.19.19l0,0a.3.3,0,0,0,.17.16s0,0,0,0c-.2.27-.39.55-.59.83l-.64,1.1a16,16,0,0,0-1.6,4.63c-.12.53-.12,1.06-.21,1.63l-.07.94v.4a3.1,3.1,0,0,0,0,.86c.07.46,0,.89.09,1.32a21.82,21.82,0,0,0,.49,2.6,16,16,0,0,0,1.48,3.63l.71,1.14.37.5,0,0c-.24,0-.4-.26-.65-.27v-.05c-.3,0-.66-.4-.92-.44,0-.07-.07-.09-.15-.09l0,0a1.3,1.3,0,0,1-.32-.14c-.08-.06-.13-.14-.27-.16l0,0a1.88,1.88,0,0,0-.42-.22l0,0a4.69,4.69,0,0,0-.52-.29v0c-.2,0-.35-.22-.48-.31h-.09a1.2,1.2,0,0,1-.11-.12h-.08a3.06,3.06,0,0,0-.68-.47v0c-.13,0-.26-.19-.32-.16v-.07h0a5.51,5.51,0,0,1-.62-.44h-.05a4.23,4.23,0,0,0-.71-.53s0,0,0,0a.52.52,0,0,0-.28-.15c0-.16-.24-.16-.29-.3l0,0a7.92,7.92,0,0,0-.89-.71,1.08,1.08,0,0,0-.4-.33l0,0c-.09-.07-.24-.13-.28-.25l0,0s-.18-.19-.24-.19v-.07h-.07c0-.15-.28-.2-.33-.35l0,0c-.08-.2-.44-.32-.53-.51h0c0-.12-.15-.14-.19-.24h0a.25.25,0,0,0-.18-.18l0,0a1.94,1.94,0,0,1-.57-.53l0,0c-.06-.17-.24-.24-.35-.36s-.11-.17-.18-.23-.66-.55-.72-.76l0,0s0-.07-.09-.08v-.07h0c0-.11-.16-.13-.2-.24h0c0-.12-.09-.11-.12-.2l0,0c0-.07,0-.06,0-.12a.33.33,0,0,1-.2-.23s0,0,0,0-.35-.46-.45-.48l0,0c-.06,0-.12-.08-.13-.16l0,0c0-.18-.35-.35-.4-.54h0c0-.22-.34-.29-.35-.52H71s0,0,0,0a2.92,2.92,0,0,1-.37-.41s0-.09,0-.12-.11-.08-.15-.13-.08-.23-.2-.28v-.07h0c0-.07,0,0,0-.07s-.07,0-.08-.1,0,0,0,0c-.1-.22-.49-.65-.5-.84-.19,0-.18-.38-.35-.44l0,0h0a1,1,0,0,0-.23-.36s0,0,0,0a.85.85,0,0,1-.24-.42h0c0-.09-.07-.12-.07-.24l0,0a.92.92,0,0,1-.09-.23h0c0-.31-.41-.63-.43-1h0c0-.12-.07-.15-.07-.28l0,0a2.6,2.6,0,0,0-.28-.65c0-.08,0-.13,0-.27H67.6c0-.3-.24-.55-.24-.83l0,0a1.93,1.93,0,0,1-.08-.43l0,0a2.71,2.71,0,0,1-.1-.55l0,0c0-.06,0-.14,0-.15a4,4,0,0,0-.12-.78h0a3.69,3.69,0,0,0-.08-.46s0,0,0-.06h-.05v-.52H61c0,.59,0,1.05,0,1.49,0,0,0,0,0,0,0,.13,0,.26,0,.4s0,.16,0,.28,0,0,0,0V104c.08.12.06.4.12.49s0,.44.11.49,0,0,0,0,0,0,.05,0a2.44,2.44,0,0,0,.15.61c0,.07,0,.14,0,.17h0a1.44,1.44,0,0,1,.12.3v.13a1.79,1.79,0,0,1,.12.24v.15c.15.21.18.52.32.73a1.23,1.23,0,0,1,0,.28,3.13,3.13,0,0,1,.36.88l0,0a3.14,3.14,0,0,1,.25.64h0c0,.17.18.29.19.48h0c0,.19.18.28.19.48h.05c0,.17.18.26.19.44h0a.67.67,0,0,0,.23.38h0v0h0v0s0,0,0,0a.66.66,0,0,1,.06.2l0,0v.11s0,0,0,0h0a1,1,0,0,1,0,.16H64c0,.13.11.14.12.28l0,0c0,.07,0,.06,0,.15h0a.31.31,0,0,0,.11.18h0c.05.06.1.07.11.17h.05c0,.27.34.38.36.64h.07v.11h0c0,.12.16.2.2.33h0a.33.33,0,0,0,.15.21h0c.1.12.3.3.32.46h0c0,.07,0,0,0,.12l0,0c0,.07,0,.06,0,.14l.08,0v.07h0a.9.9,0,0,0,.24.32.09.09,0,0,0,.06.09h0a5.77,5.77,0,0,0,.48.54v.08a.93.93,0,0,0,.15.13v.07s.1,0,.13.08v.08h.06v.07s.07,0,.09,0,0,.08,0,.12.13.07.15.16h.05a.29.29,0,0,0,.18.21v.08h0a.25.25,0,0,0,.15.19v.05c.14,0,.1.13.17.19H68v.08c0,.06.16.09.21.15v.09c.07.06.28.2.31.31h0c0,.07,0,.12.11.13s0,0,0,0,.18.12.2.22,0,0,0,0a3.51,3.51,0,0,0,.62.65v.06h0a4.54,4.54,0,0,0,.58.58h0a1.55,1.55,0,0,0,.36.31s.09.14.12.16a6.16,6.16,0,0,1,.45.44c.09.09.29.16.32.31h0a1,1,0,0,1,.18.09v.08c.08.1.5.36.52.48s0,0,0,0,0,.06.09.1h0s0,0,.08,0V121l0,0v.07h.08a.25.25,0,0,0,.19.17h0s0,0,0,.06l0,0c.05.12.21.15.25.27h.05v0a1.81,1.81,0,0,1,.52.43l0,0v.06l0,0c0,.11.2.13.24.23h0a1,1,0,0,0,.4.33l0,0a1.31,1.31,0,0,1,.32.25s.11,0,.16.08.07.12.11.16l0,0c0,.06.11.07.17.12s.1.13.2.16l0,0c.06,0,.1.07.15.09v0c.18,0,.25.22.4.24l0,0a2,2,0,0,0,.28.16v0c.14,0,.2.15.32.19v0c.19,0,.5.41.68.43v0c.16,0,.2.17.36.2l0,0a.42.42,0,0,0,.14.06l0,0c.1,0,.15.11.24.12a4.19,4.19,0,0,0,.73.48c0,.08.11.13.19.14l0,0c.12.06.3.22.43.21v.08c.12,0,.13.07.2.12a.07.07,0,0,1,.08,0,2.63,2.63,0,0,0,.75.45h0a.92.92,0,0,0,.32.18v0c.21,0,.24.18.44.19v0c.2,0,.24.18.45.19v.05c.17,0,.25.16.44.19v0c.12,0,.15.07.27.08l0,0c.16.07.28.12.43.2h0c.11.11.64.21.68.33.11,0,.54.28.76.28v0a1,1,0,0,1,.4.15h.12A2.35,2.35,0,0,0,85,129v.05c.35,0,.71.21,1.07.25l-.08.18h-.35v0s0,0-.06,0-.27,0-.32-.08,0,0,0,0c-.19-.13-.61,0-.87-.08-.5-.13-1.2,0-1.56-.12-.15-.05-.67.07-.72,0h-.14v0c-.06,0-.15-.11-.2,0a2.93,2.93,0,0,0-.85,0H79a3.9,3.9,0,0,0-.83,0c-.16-.1-.45,0-.67,0a10.79,10.79,0,0,0-1.69.08c-.16,0-.53,0-.6,0l-.08,0c-.1,0-.31,0-.34,0s0,0,0,0a4.07,4.07,0,0,1-.65,0s0,0-.06,0v0c-.08,0-.45,0-.51,0-.23.15-.8,0-1,.12h-.38a.76.76,0,0,1-.27,0s0,0,0,0v0c-.06,0-.06,0-.07,0v0a1.33,1.33,0,0,1-.42,0l0,0a8,8,0,0,0-1.13.13c-.22.06-.47,0-.64.08s-.58,0-.61,0-.36,0-.48.08l-.15,0h-.21a3,3,0,0,1-.88.12v.05a3.49,3.49,0,0,0-.76.11h-.2a2.73,2.73,0,0,1-.49.08,2.15,2.15,0,0,1-.47.12.61.61,0,0,1-.24,0,.7.7,0,0,1-.23.08H64.7a3.7,3.7,0,0,1-1.05.2v0a1.41,1.41,0,0,0-.56.12l0,0a2.26,2.26,0,0,1-.57.15h-.15c-.14.11-.39.08-.53.17h-.17c-.08.05-.23.06-.32.11h-.16a3.22,3.22,0,0,1-1,.24v.05a4.67,4.67,0,0,0-1.13.32c-.12.07-.4,0-.45.15,0,0,0,0-.07,0v0c-.29,0-.42.2-.72.19v.05a2.19,2.19,0,0,0-.65.23l0,0v0c-.23,0-.38.19-.6.2v0c-.19,0-.22.12-.4.12h0a.25.25,0,0,1-.19.06v0l-.6.25a.6.6,0,0,1-.36.19v.07c-.1,0-.07.05-.19.05v.07s0,0,0,0c-.18,0-.71.55-.77.52s-.11.1-.13.16h-.05v.09h.05v.08H54s0,.09,0,.11.17.09.23.17,0,.09,0,.11h.07c.08.08.12.2.21.27s.17.11.2.2l0,0c.11.15.59.56.61.71h.06s0,0,0,.07l0,0c.05.06.24.24.25.3h.05c0,.11.16.14.19.24h.05c0,.06,0,.06.07.06h0c0,.06.13.1.15.18h0v0h.07l0,0c0,.06.13.1.15.18h0c0,.12.16.15.19.28s.18.23.28.29h0s.14.18.2.2h0c.09,0,.13,0,.21,0s0-.09.11-.09l0,0c.09,0,.3-.09.32-.16s0,0,0,0a1,1,0,0,1,.54-.25v0c.23,0,.32-.2.6-.2v0c.15,0,.13-.05.25-.11s.23,0,.28-.05a3,3,0,0,1,.87-.28v-.05c.14,0,.16,0,.28,0l0,0a4.29,4.29,0,0,1,.6-.13v0a2.78,2.78,0,0,0,.81-.23v0a.64.64,0,0,0,.19-.08h.23c.17-.11.48-.09.65-.2h.12a1.64,1.64,0,0,1,.23-.07h.17a1.19,1.19,0,0,1,.56-.12v0c.36,0,.62-.15,1-.15l0,0,.24,0c.1-.08.29-.07.47-.13s.34,0,.42-.07v0a.78.78,0,0,1,.45-.08c.11-.11.64-.1.74-.16h.24a.84.84,0,0,1,.34-.08h.18s0,0,0,0h.24a4.08,4.08,0,0,1,.56-.12h.28a6.88,6.88,0,0,1,1.25-.16l0,0h0a8.81,8.81,0,0,1,1.08-.08l0,0a1.33,1.33,0,0,0,.56-.08,2.5,2.5,0,0,0,.54,0,3.08,3.08,0,0,0,.53-.08c.16,0,.33,0,.42,0h0a1.11,1.11,0,0,1,.34,0c.12,0,.5-.11.53,0s.12,0,.18,0h.48a1.27,1.27,0,0,1,.35,0h.26a2.48,2.48,0,0,1,.83,0s0,0,0,0a2.11,2.11,0,0,1,.67,0c.37,0,.56,0,1,0,.14,0,.62,0,.67,0v0c.41,0,.88,0,1.36,0,.11,0,.41,0,.44,0a9.48,9.48,0,0,1,1.76,0h.3a.69.69,0,0,1,.28,0h.6v0s.08-.07.15,0a3.54,3.54,0,0,0,.81.07,2.63,2.63,0,0,1,0,.79c0,.2,0,.4,0,.59l.06,1.11c.08.49.11,1,.22,1.43a16,16,0,0,0,.8,2.48h0c-.35,0-.73.28-1.08.28v0c-.16,0-.18.07-.35.07l0,0a1,1,0,0,0-.4.17c-.06,0-.31.05-.36.08l-.25.16s-.18,0-.23,0a.37.37,0,0,1-.24.12v0c-.2,0-.32.18-.52.19V142c-.18,0-.29.18-.48.19h0s-.06,0-.08.06-.25.16-.43.16v0a1.68,1.68,0,0,0-.57.32c-.09.06-.2,0-.28.11V143s-.19,0-.24.08l-.57.39c-.09.08-.26.1-.35.17a1.28,1.28,0,0,1-.45.28V144s-.54.3-.54.3h0a.25.25,0,0,1-.15.06s0,0,0,0c-.14.05-.29.24-.47.25v.05a.63.63,0,0,0-.33.24,3.15,3.15,0,0,0-.63.4l0,0c-.15,0-.16.15-.31.16v.08h-.12v.08c-.09,0-.41.35-.59.36h0a.94.94,0,0,1-.23.16h0a2.31,2.31,0,0,0-.23.18l-.13,0c-.11.1-.27.32-.44.35v.05c-.15,0-.42.39-.6.44v0c-.06,0,0,0-.06,0l-.05.05h0a4,4,0,0,0-.69.57v0c-.07.08-.17.22-.29.24v.08s0,0,0,0l0,0c-.06.09-.12.09-.21.16s-.1.15-.16.2l-.12,0v.07h-.07a2.9,2.9,0,0,1-.52.48v.05a.26.26,0,0,0-.21.19l0,0a.84.84,0,0,1-.21.21l0,0a.21.21,0,0,0-.17.13v0l0,.05h0a7,7,0,0,0-.55.54c-.06,0-.27.14-.24.23s-.25.14-.28.25h-.05v.07c-.22.08-.32.34-.52.46h0s-.14.1-.16.17l0,0a3,3,0,0,1-.29.33l0,0a1.53,1.53,0,0,0-.49.49h-.07a.31.31,0,0,1-.16.19v0h0c0,.08-.09.13-.15.17h0c-.1.07-.22.27-.31.3v0a.1.1,0,0,0-.09.11l0,0a1.28,1.28,0,0,1-.29.32l0,0s-.06.05-.11.08v0c-.12,0-.12.18-.24.2v.08a1,1,0,0,0-.33.39l0,0c0,.08-.07.17-.16.2s0,0,0,0-.15.16-.23.23h0a2.66,2.66,0,0,0-.51.66h0s0,0,0,0-.13.17-.23.21v.09c-.1,0-.23.22-.25.31s-.13.16-.2.22l0,0a.41.41,0,0,0-.16.24l0,0c0,.06,0,.13-.13.15v.09c-.07,0-.11.12-.16.16l0,0a1.46,1.46,0,0,0-.35.5h0c0,.06,0,0,0,.06a.27.27,0,0,0-.16.21l0,0a1.4,1.4,0,0,0-.22.44l0,0a.33.33,0,0,0,0,.12h0c0,.09,0,.08,0,.16s0,0,0,0l0,.11,0,0c0,.09,0,.18-.14.2l0,0a.5.5,0,0,0-.2.36s0,0-.08,0a.41.41,0,0,1-.15.29l0,0s-.07.05-.07.12h0a.7.7,0,0,1-.19.36v.09h-.05c0,.32-.42.64-.43,1h0s0,0,0,0-.09.08-.09.16l0,0a2,2,0,0,0-.12.37h-.05a2.69,2.69,0,0,1-.28.69h0c-.15.15-.1.46-.27.59l0,0a5.67,5.67,0,0,0-.43,1.34h0c0,.16,0,.18,0,.31l0,0v.16a1.59,1.59,0,0,1-.12.32v.16s0,0-.05,0v.17h0c-.07.12.05.31-.08.36s0,0,0,0a11,11,0,0,0-.27,2.85h5.9a1.6,1.6,0,0,1,.05-.56c0-.05,0-.05,0-.06s0-.29.08-.37,0,0,0,0,0-.61.11-.74.08-.38.17-.52v-.2c.11-.19.13-.49.24-.68v-.13a1,1,0,0,0,.15-.44h.05c0-.23.13-.31.16-.55l0,0c0-.11.13-.42.21-.44s0,0,0-.06a.18.18,0,0,0,.06-.13h0c0-.09.08-.31.16-.33l0,0s.06-.11.1-.13,0,0,0,0a6,6,0,0,0,.47-.9h0c0-.24.29-.4.33-.63l0,0a.61.61,0,0,0,.09-.2c.12,0,.13-.22.2-.32s.12-.1.16-.16.37-.73.52-.76c0,0,0,0,0-.06s.08-.08.11-.08v-.06h0c0-.23.31-.33.36-.55l0,0a1.3,1.3,0,0,0,.11-.19v0a.81.81,0,0,0,.17-.28.16.16,0,0,0,.1-.11v0a.44.44,0,0,0,.1-.19l0,0c.07-.13.33-.36.35-.47v0a1.74,1.74,0,0,1,.1-.19l.12-.06v-.08l.08,0s0-.09,0-.12.47-.42.51-.57h0v-.07l0,0c.06-.07.1-.17.17-.24s.12-.06.16-.11,0-.09,0-.13.23-.15.28-.28h0v-.06l0,0,.06-.11,0,0c0-.06,0-.11.13-.12l0,0c.07,0,.22-.2.24-.28l0,0c.11-.19.57-.49.61-.67l0,0a9.69,9.69,0,0,1,.78-.79c.1-.1.3-.16.33-.33l0,0a1.21,1.21,0,0,1,.41-.37s0,0,0,0,.22-.14.24-.25l.07,0,0-.06,0,0c.08-.11.45-.4.46-.48l0,0s.07-.06.09-.11h.08c0-.07.14-.18.2-.2l0,0c.2,0,.2-.23.39-.25v-.08c.15,0,.23-.21.35-.25l0,0h.12c0-.06,0-.1.11-.12v0c.15,0,.19-.16.32-.2s0,0,0,0,.15-.11.18-.09a.32.32,0,0,1,.14-.12v-.05c.26,0,.37-.38.63-.43v0c.09,0,.13-.09.21-.11l0,0a2.8,2.8,0,0,0,.72-.53h.07v0c.13,0,.17-.12.25-.19h.08l0-.08,0,0s.07,0,.13-.08,0-.1.15-.11v-.05a1,1,0,0,0,.37-.24l.11,0,0,0h.11l0,0a.19.19,0,0,1,.16-.05l0,0a1.48,1.48,0,0,1,.44-.25V149c.14,0,.24-.14.31-.16l0,0h0a1.83,1.83,0,0,0,.47-.28l0,0c0-.06,0-.08.13-.08s0,0,0,0,0,0,0-.05,0,0,0,0a.48.48,0,0,0,.22-.15v0a.12.12,0,0,0,.06-.08h0a19.89,19.89,0,0,0-2.86,6.52c-.22.85-.27,1.74-.42,2.66,0,.4-.06.79-.08,1.19v.32a6.09,6.09,0,0,0,0,1.48l.06,1c.1.65.14,1.3.27,1.9.19.85.36,1.63.6,2.4a16.47,16.47,0,0,0,5.7,8.32,13.36,13.36,0,0,0,4,2.08c.41.13.82.19,1.26.29s.8.09,1.22.16l.6,0h.5c.53-.09,1.06,0,1.54-.14a13.72,13.72,0,0,0,2.76-.78c4.67-2,7.6-6.21,9-11.53a21.51,21.51,0,0,0-.13-10,18.56,18.56,0,0,0-1.56-4l-.69-1.19-.55-.81c.06,0,.05,0,.11.05l0,0c.05,0,.06,0,.08.05l0,0s.32.23.39.24l0,0a1.19,1.19,0,0,1,.4.25l0,0a.16.16,0,0,0,.09.07v0c.19,0,.25.17.44.2l0,0c.06.08.25.09.28.21h.07c0,.06.13.13.2.13l0,0a.46.46,0,0,0,.2.09v0a.15.15,0,0,1,.15.11l0,0s.08,0,.1.11,0,0,.06,0a.61.61,0,0,1,0,.12c.06,0,.23.12.32.17h0a.78.78,0,0,0,.2.11l0,0a.7.7,0,0,0,.2.08c0,.08.16.15.23.17l0,0c.06,0,.08,0,.11,0v.08c.15,0,.18.16.32.19v.05c.13,0,.12.1.23.13l0,0c.19.09.62.51.76.52s.09.12.15.15h0c.12.11.35.17.41.34,0,0,0,0,.07,0,0,.17.46.29.52.48l0,0v.07c.17.07.44.39.56.41v.08a.92.92,0,0,1,.31.2v.08s.09,0,.12,0,.27.35.44.37v.08c.18,0,.3.34.48.39v.05c.06,0,.05,0,.11,0h0c.06.08.22.15.24.26l0,0c0,.09.1.06.13.14h0c0,.12.15.14.19.24h0c0,.12.15.13.19.24h0v0s0,0,0,0,.14.15.17.24h0c0,.09.15.12.19.24l0,0c0,.08.19.17.21.27h0c0,.11.16.13.19.24h.05c0,.21.4.33.43.53.12,0,.19.18.28.25h0c.06,0,.08,0,.09.09l0,0a1.11,1.11,0,0,0,.37.41v.07h0a.11.11,0,0,0,.11.12l0,0c.11.14.31.24.36.41h0c0,.11.1.1.12.21l0,0v.07l0,0a2,2,0,0,0,.25.39s.07,0,.08,0,.06.14.08.16.27.23.32.4h0v.08s0,0,0,0a3.45,3.45,0,0,1,.41.59h0a.5.5,0,0,0,.19.29v.07h0a.86.86,0,0,0,.23.34h0a.17.17,0,0,0,.11.06h0a2.08,2.08,0,0,0,.31.44v.1h0s0,.07,0,.12h0v.07c.09.12.27.26.28.45l0,0c0,.23.28.33.29.58l0,0a4,4,0,0,0,.4.77h0c.07.1.28.59.36.62l0,0a.12.12,0,0,0,.08.1v.11h0c0,.1,0,.1,0,.2l0,0a.18.18,0,0,0,.09.16l0,0a.28.28,0,0,0,.12.18h0a1.27,1.27,0,0,1,.16.45l0,0c0,.1,0,.15,0,.27h0a1.18,1.18,0,0,0,.15.52v.14c.05.09.07.25.13.35v.16c0,.07.06.29.11.34h0a.89.89,0,0,1,.08.17V167a4.33,4.33,0,0,1,.12,1.33h5.91a2.47,2.47,0,0,0,0-.82v0a3.1,3.1,0,0,0,0-.6c-.1-.43-.09-.84-.2-1.22s0-.42-.12-.6,0-.29-.08-.33h0a.32.32,0,0,1,0-.19h0a4.34,4.34,0,0,0-.31-1.15c0-.12-.07-.38-.16-.42l0,0h0c0-.11,0-.32-.1-.33l0,0c-.16-.14-.28-.9-.44-1,0-.11-.16-.32-.16-.48h0c0-.22-.15-.22-.15-.45l0,0a3.66,3.66,0,0,1-.25-.6h-.05c0-.13-.11-.18-.12-.31l0,0c0-.25-.28-.39-.29-.64h0a1.25,1.25,0,0,0-.24-.39c0-.06,0-.09-.07-.1s0,0,0-.06a.87.87,0,0,0-.11-.09l0,0c-.09-.08-.23-.43-.32-.45V158h0c0-.24-.43-.54-.44-.76a3,3,0,0,1-.48-.69h0c0-.09-.09-.14-.11-.24l0,0a.12.12,0,0,0-.09-.11l0,0c-.17-.11-.39-.6-.52-.63l0,0a.28.28,0,0,1-.13-.17s0,0,0,0,0,0-.05-.05l0,0c-.09-.07-.39-.51-.44-.49s0-.11,0-.16l-.17-.12s0-.1-.1-.13l0,0s-.06,0-.07-.09h0l0-.12,0,0a.23.23,0,0,0-.12-.15v-.08c-.2,0-.41-.58-.56-.57l0,0c-.07-.05-.14-.16-.23-.17s0,0,0,0v0s-.07,0-.08-.08l0,0c0-.08,0-.11-.13-.12l0,0s0,0,0-.05h0v0h0a2.91,2.91,0,0,0-.51-.54v-.08c-.11,0-.18-.17-.24-.24s-.18-.12-.24-.19-.06-.16-.12-.21a1,1,0,0,1-.24-.17v-.07c-.07-.07-.27-.17-.29-.28l0,0c0-.08-.06-.08-.08-.15s0,0,0,0a.76.76,0,0,1-.11-.16l0,0c-.08-.22-.46-.36-.52-.56h0a4,4,0,0,0-.63-.6l0,0s0,0,0-.05l0,0v-.07s0,0,0,0a2.15,2.15,0,0,0-.54-.47.2.2,0,0,0-.15-.14l0,0s0,0,0,0l0,0a.16.16,0,0,0-.13-.13h0a1.77,1.77,0,0,0-.24-.17v-.05a.57.57,0,0,1-.24-.19h0c0-.14-.22-.16-.3-.25s0-.12-.09-.16a.09.09,0,0,1-.09,0s-.07-.12-.11-.16-.19,0-.21-.15l0,0a.81.81,0,0,0-.33-.28s0,0,0,0-.23-.11-.27-.22h-.06a.52.52,0,0,0-.31-.25l0,0c-.1-.06-.19-.18-.32-.2s-.5-.33-.56-.48h0v-.05c-.22,0-.34-.32-.55-.36l0,0c-.13-.06-.57-.41-.59-.39s-.18-.2-.23-.15a.28.28,0,0,0-.18-.13l0,0a.55.55,0,0,0-.15-.08v0c-.14,0-.21-.17-.37-.19s-.27-.18-.35-.25-.2-.17-.29-.23h-.11v-.08l-.15,0a1.4,1.4,0,0,0-.53-.35v0c-.08,0-.07,0-.15,0l0,0a3.79,3.79,0,0,1-.59-.37h-.09s-.16-.17-.19-.12a.54.54,0,0,0-.37-.19l0,0a1.69,1.69,0,0,0-.52-.26l0,0a2.85,2.85,0,0,1-.73-.42s0,0-.06,0l0-.06a.13.13,0,0,1-.15-.08c-.06,0-.05,0-.08,0s-.42-.28-.56-.28V142c-.09,0-.09-.06-.15,0a.76.76,0,0,0-.37-.18v0c-.34,0-.53-.29-.87-.33l0,0a1.47,1.47,0,0,0-.28-.08v-.05c-.27,0-.43-.19-.69-.19v0a2.19,2.19,0,0,1-.67-.19h-.16a.67.67,0,0,0-.36-.12c.09-.23.18-.46.28-.69.13-.42.25-.84.38-1.25a14.22,14.22,0,0,0,.37-4.38,1.69,1.69,0,0,0,.53-.08s.16.06.21,0a2.43,2.43,0,0,1,.55-.08h.36a3.49,3.49,0,0,1,.58,0h.27a5.72,5.72,0,0,1,1,0l0,0h0s.13.06.17,0h0s.19,0,.2,0,0,0,0,0a5.63,5.63,0,0,1,1.49,0s.42-.1.48,0,0,0,0,0h0a1.49,1.49,0,0,0,.48,0s0-.06,0,0,.5,0,.62,0a.62.62,0,0,1,.26,0s.36,0,.36,0,.55,0,.56,0,0,.05,0,0,0,0,.06,0,0,0,.07,0a10,10,0,0,1,1.37.08c.1,0,.42,0,.44,0s0,0,0,0,.51,0,.54.07.09,0,.1,0a3,3,0,0,0,.87.08h0c.09.06.25,0,.41,0s.6,0,.84.13.3,0,.39,0,.3,0,.38,0,.61,0,.67.08.09,0,.1,0c.18.1.29,0,.51.07,0,0,0,0,0,.05h.32a1.63,1.63,0,0,0,.61.08h0c.09.08.72.06.88.12h-.08c.06.06.43,0,.56.1h.21c.13.1.52,0,.71.11a1.17,1.17,0,0,1,.24.09c.08,0,.38,0,.44,0a2.25,2.25,0,0,0,.65.11v.05c.4,0,.88.2,1.2.19v0a4.73,4.73,0,0,1,1.28.28h.13a3.82,3.82,0,0,1,.48.15s0,0,0,0l.14,0a3,3,0,0,0,.78.21s.12.07.15.08h.15a1.31,1.31,0,0,0,.43.13c.13,0,.08.07.25.06v.05a5.13,5.13,0,0,1,1,.32s0,0,0,0,.3.12.41.2h.11v0h.09v0h.13s0,.06,0,.07.17,0,.24.05a.76.76,0,0,0,.35.16l0,0c.15.07.64.24.69.37s.42-.34.44-.48.08-.09.16-.12l0,0a7.84,7.84,0,0,0,.8-.84l0,0s0,0,.05,0,0,0,0,0,.13-.14.23-.17l0,0c.11-.08.43-.47.51-.49v0a.45.45,0,0,0,.22-.23l0,0v-.08l0,0c0-.05.09-.14.17-.15l0,0h.07v-.05h0a.34.34,0,0,1,.2-.19l0,0c.05,0,.06,0,.11-.05l0,0A2.51,2.51,0,0,0,134,134.45Z"/><path class="cls-1" d="M68.54,105.83h0Z"/><path class="cls-1" d="M49.68,119.77s0,0,0,0S49.71,119.78,49.68,119.77Z"/><path class="cls-1" d="M68.19,136.71h0Z"/><path class="cls-1" d="M46.34,138.92v0Z"/><path class="cls-1" d="M52.86,141.58s0,0,0,0Z"/><path class="cls-1" d="M159.66,115h20q8.15,0,12.16,3.22t4,9.22a9.87,9.87,0,0,1-8.71,10.09v.07a11.76,11.76,0,0,1,7.29,3.55,10,10,0,0,1,2.59,6.95,11,11,0,0,1-4.28,9.22q-4.29,3.28-12.37,3.28H159.66Zm18.66,19.14q7.59,0,7.6-5.87t-7.6-5.87h-9.4v11.74Zm1.17,19.28q3.8,0,5.7-1.56a5.4,5.4,0,0,0,1.9-4.45,5.34,5.34,0,0,0-1.9-4.43,9,9,0,0,0-5.7-1.52H168.92v12Z"/><path class="cls-1" d="M237.94,126v34.54h-8.43l-.34-5.94q-3.31,6.63-12.09,6.63c-3.74,0-6.69-1-8.88-3s-3.28-5.13-3.28-9.36V126h9.46v20.45q0,4,1.52,5.66a5.77,5.77,0,0,0,4.49,1.66,7.78,7.78,0,0,0,5.84-2.31c1.5-1.55,2.25-3.86,2.25-7V126Z"/><path class="cls-1" d="M277.63,156.56a8.63,8.63,0,0,1,3.08,7.12c0,3.69-1.71,6.56-5.11,8.64s-7.91,3.11-13.48,3.11q-8.64,0-12.81-2.28c-2.79-1.52-4.18-3.6-4.18-6.22a5.85,5.85,0,0,1,1.58-4.08,9.22,9.22,0,0,1,4.7-2.49,9,9,0,0,1-3.73-2.72,7,7,0,0,1,.07-8.47,8.69,8.69,0,0,1,4-2.69,10.34,10.34,0,0,1-5.39-9.4,10.13,10.13,0,0,1,4.25-8.6q4.24-3.15,11.57-3.14a26.48,26.48,0,0,1,7,.89,11.68,11.68,0,0,1,3.49-6.39,9.25,9.25,0,0,1,7-2l1.24,6.78a10.38,10.38,0,0,0-1.45-.07,9.13,9.13,0,0,0-4.25.89,5.2,5.2,0,0,0-2.38,2.42,10.29,10.29,0,0,1,5.25,9.26,10,10,0,0,1-4.25,8.53q-4.24,3.15-11.64,3.15a29.33,29.33,0,0,1-6.22-.62c-1.79.46-2.69,1.49-2.69,3.1a2.4,2.4,0,0,0,1,2.11,5,5,0,0,0,2.91.73h11.67Q274.56,154.08,277.63,156.56Zm-7.29,11.16c1.75-.8,2.63-1.83,2.63-3.07a2.38,2.38,0,0,0-1.21-2.18,8.16,8.16,0,0,0-4-.72h-9.4c-3.82,0-5.73,1-5.73,3.11,0,1.28.85,2.29,2.55,3a21,21,0,0,0,7.67,1.07A18.25,18.25,0,0,0,270.34,167.72Zm-12.67-34.85A5.3,5.3,0,0,0,255.9,137a5.4,5.4,0,0,0,1.77,4.22,6.48,6.48,0,0,0,4.52,1.59,6.62,6.62,0,0,0,4.6-1.59,5.43,5.43,0,0,0,1.76-4.22,5.33,5.33,0,0,0-1.76-4.14,6.62,6.62,0,0,0-4.6-1.59A6.48,6.48,0,0,0,257.67,132.87Z"/><path class="cls-1" d="M315.49,130.1q4.67,4.77,4.67,13.2t-4.67,13.2q-4.67,4.75-13,4.76t-13-4.76q-4.67-4.77-4.67-13.2t4.67-13.2q4.67-4.77,13-4.76T315.49,130.1Zm-19.13,5q-2.12,2.73-2.11,8.19t2.11,8.19a8.21,8.21,0,0,0,12.23,0q2.1-2.73,2.1-8.19t-2.1-8.19a8.21,8.21,0,0,0-12.23,0Z"/><path class="cls-1" d="M361.13,126v34.54H352.7l-.35-5.94q-3.32,6.63-12.09,6.63-5.6,0-8.88-3t-3.28-9.36V126h9.47v20.45c0,2.67.5,4.56,1.52,5.66a5.77,5.77,0,0,0,4.49,1.66,7.8,7.8,0,0,0,5.84-2.31c1.49-1.55,2.24-3.86,2.24-7V126Z"/><path class="cls-1" d="M394.77,158.43a12.2,12.2,0,0,1-4.18,2.07,18.07,18.07,0,0,1-5.28.76q-11.54,0-11.54-10.43V133.07h-6.29v-7h6.29v-8l9.47-2.62V126h11.19v7H383.24v16.24c0,3.18,1.58,4.77,4.76,4.77a8,8,0,0,0,5.32-1.94Z"/></svg>