<svg id="lady_bug" data-name="lady bug" xmlns="http://www.w3.org/2000/svg" viewBox="0 0 300.66 306.34"><defs><style>.cls-1{fill:#212990;}</style></defs><title>bug logo</title><path class="cls-1" d="M237.33,156.61c0-.28-.33-.27-.38-.53l-.06.06a8.65,8.65,0,0,0-1.66-1.18c-.18-.11-.72-.26-.78-.45-.09,0-.06,0-.11.05l0-.12a23.2,23.2,0,0,0-2.48-1,1.79,1.79,0,0,0-.68-.27v-.09c-.49,0-.76-.36-1.29-.36v-.09c-.5,0-.85-.34-1.36-.36v-.09a1.84,1.84,0,0,1-.74-.22h-.23v-.07h-.24v-.08H227a1.34,1.34,0,0,1-.23-.16h-.29v-.07h-.24v-.07h-.31a1,1,0,0,0-.52-.15v-.09a5,5,0,0,1-1.5-.36h-.24s0-.07-.07-.09h-.22a2,2,0,0,1-.61-.22c-.11-.07-.55,0-.67-.07v-.07l-.37,0v-.07h-.32a5.12,5.12,0,0,0-1.05-.29H220c-.12,0-1.15-.27-1.18-.31s0,0-.05.07c-.16-.2-2-.34-2.28-.52l-.45,0,0,0c-.15-.06-1.29-.13-1.34-.25-.07,0,0,0,0,.07-.16-.18-.73-.1-.8-.22s-.07,0-.09.06a2.11,2.11,0,0,0-.8-.15l.06,0a3.48,3.48,0,0,0-1-.09v-.09c-.1,0-.08,0-.11.07-.16-.11-.87-.1-.94-.22s-.14,0-.2.07c-.42-.34-1.58-.07-2-.38-.17-.12-.52.08-.62-.07-.1,0-.08,0-.1.07-.16-.19-.89-.05-1-.14v-.07a6.54,6.54,0,0,1-1.36-.15c-.19-.1-.49,0-.68-.09h-.6v-.07h-.11v.07c-.23-.2-1.13,0-1.47-.22h-.68a7.34,7.34,0,0,0-1.18-.14h-.56s-1-.09-1-.09c-.22-.17-.66,0-1-.07-.55-.18-2.08,0-2.62-.22h-1.3a5.77,5.77,0,0,0-1.11-.07c-.24,0-1,.08-1.07-.09-.1,0-.08,0-.11.07s-.38-.18-.45,0c-.06-.05-.26-.16-.31,0-.26-.18-1-.07-1.41-.07H185c-.13,0-.24,0-.27.07l0-.07c-.18,0-.21.07-.24,0s0,0-.11.07a12.73,12.73,0,0,1-1.61,0c-.06,0-.06.08-.14,0v0c-.07,0,0,0-.13,0s0-.05-.09-.05h-.05v.07h-.4a2.63,2.63,0,0,0-.89.07h-.38a8.26,8.26,0,0,0-1.39.15V147a9.91,9.91,0,0,1-1.61.15v.09c-.46,0-.71.07-1.14.07l-.2-.34a3.86,3.86,0,0,1,1.19-.26l-.05-.05.07,0s.2,0,.16,0l.07,0a8.86,8.86,0,0,0,1.34-.51c.07,0,0,0,.06.06a3.51,3.51,0,0,0,1.08-.44h.29a1,1,0,0,1,.53-.22v-.09c.53,0,1.14-.65,1.74-.67,0,0,0,0-.06,0v0c.36,0,.59-.38,1-.39l0-.06c.15,0,.18-.09.36-.09v-.09a1.74,1.74,0,0,0,.83-.43c.09-.07.41-.06.53-.17s.15-.21.38-.21v-.09c.3-.07.5-.35.81-.37,0-.05,0,0-.05-.05s.32-.07.36-.11l0-.13.29-.09s0,0,0,0,.38-.18.42-.36c.07,0,.42-.13.45-.23l0,.07,0-.09c.47-.1.87-.71,1.35-.74l0-.06c.19,0,.5-.19.53-.4.17,0,.18,0,.36-.07,0-.16.41-.38.59-.38l-.05-.05c.08,0,.05,0,.07-.09s.72-.34.75-.47c.27-.06.39-.32.66-.37v-.09c.2,0,.22-.21.46-.21l-.06-.06a8.15,8.15,0,0,0,1.51-1.07s0,0,0,.08a8.92,8.92,0,0,1,1.76-1.29s0,0-.06,0a.63.63,0,0,1,.37-.19l-.06-.05c.12,0,.1-.07.22-.09,0,0,0,0-.07,0,.38-.21,1.06-.94,1.43-1a.32.32,0,0,1,.29-.24l-.06-.05c.32-.07.39-.45.74-.47l-.05,0c.15-.14.38-.38.58-.4,0,0,0,0-.07,0a.42.42,0,0,1,.21-.11v-.09a4.73,4.73,0,0,0,1.09-.88l0,.07a9.83,9.83,0,0,0,1.17-1.12l0,.05a.67.67,0,0,1,.33-.29v-.09c.34,0,.69-.71,1.05-.82l-.06-.05.15,0v-.12l.05,0a.72.72,0,0,1,.31-.29v-.09c.15,0,.11-.13.31-.14l-.06-.06c.08,0,.05,0,.07-.07l0,0c.14-.23.46-.35.54-.59h.09c0-.22.3-.26.37-.46h.09a1.32,1.32,0,0,1,.43-.38s0,0,0,0a.86.86,0,0,0,.3-.33l0,.06c.15-.2.68-.6.72-.82l0,.06c.07-.09.16-.14.18-.28l0,.06a1,1,0,0,0,.13-.22l0,.07.11-.21,0,0c.09-.14.24-.19.25-.36,0,0,0,0,0,.07.19-.34.64-.53.76-.9h.09c0-.15.13-.14.17-.29l0,.05c.05-.05,0-.05.09-.07l-.05-.06c.12,0,.1-.06.22-.09a.7.7,0,0,1,.36-.38l-.06,0a3.24,3.24,0,0,0,.51-.56.34.34,0,0,0,.26-.27l0,0c.06-.07.05-.18.09-.23s.36-.17.4-.44l0,.07,0-.14.15,0c0-.29,1.06-1.25,1.26-1.5s.21-.49.46-.53V121c.13,0,.11-.1.23-.14l-.05-.06a2.28,2.28,0,0,0,.6-.76l0,.06a.54.54,0,0,0,.09-.22c.16,0,.41-.38.45-.53h.1c0-.22.12-.18.16-.36l0,.06a.79.79,0,0,0,.17-.31.41.41,0,0,0,.23-.35h.15c0-.18.06-.15,0-.22l.14,0s0,0-.07,0a4,4,0,0,0,.88-1.24,5.94,5.94,0,0,0,.91-1.29h.09a3.11,3.11,0,0,1,.67-1l-.05-.07c.07,0,.09-.11.19-.15s0,0,0-.16c.17,0,.47-.75.48-.81s0,0,0,.07a2.26,2.26,0,0,0,.38-.76h.09a4.4,4.4,0,0,1,.74-1.29l0-.2c.1-.16.14-.31.24-.47a1,1,0,0,0,.27-.54h.09c0-.36.34-.54.36-.91h.09c0-.43.37-.62.36-1h.09c0-.17.08-.19.09-.37l0,.08c.08-.17.09-.45.18-.6a2.34,2.34,0,0,0,.38-.91l0,.06a6.55,6.55,0,0,1,.2-.67,2.16,2.16,0,0,0,.34-1h.09s0,0-.07,0a1,1,0,0,0,.22-.66l.07,0c0-.3.14-.39.14-.69h.09c0-.74.37-1,.37-1.66h.09a3.4,3.4,0,0,1,.29-1.29v-.38a3.22,3.22,0,0,1,.23-.9,10.44,10.44,0,0,0,.07-1,15.3,15.3,0,0,0,.24-3.48H212.56a8.72,8.72,0,0,1-.23,2.48c-.1.17.07.36-.07.47l.05,0a1,1,0,0,0-.07.4l0,0,0,.43,0,0,0,.43v-.09h0a.8.8,0,0,0,0,.47c-.11.07,0,.12-.14.16,0,.11,0,.08.07.13-.16.06-.15.42-.22.63a7.28,7.28,0,0,1-.6,1.58c-.1.18.07.3-.14.38l0,.09.07,0c-.15.12-.14.37-.29.5l.06.06c-.09,0-.12.18-.2.25l0,0a3.89,3.89,0,0,0-.5,1.18h-.09c0,.31-.2.36-.24.65l0-.06a6,6,0,0,1-.7,1.34c-.13.18-.12.36-.29.49l0,0a.63.63,0,0,0-.12.11l.05,0a.28.28,0,0,0-.14.29v0l-.06,0a7.06,7.06,0,0,0-.69,1.21h-.09c0,.41-.47.71-.61,1.07,0,0-.08,0-.13.07l.06,0a1,1,0,0,0-.38.61l0-.07c-.09.16-.26.36-.25.52a.2.2,0,0,1-.06-.07.46.46,0,0,1-.16.18c.06.09-.13.18-.15.36-.14,0-.29.3-.32.44l0-.07a.58.58,0,0,0-.09.23c-.16,0-.43.44-.45.6a.17.17,0,0,0-.16.22l-.06-.06a.62.62,0,0,1-.23.31l.05,0v0h-.13v.11a7.49,7.49,0,0,1-1,1.18s0,0,.07.05c-.21,0-.14.22-.36.26v.14c-.33.08-.56.84-.91.91v.16c-.22,0-.28.28-.39.43-.24.31-1.31,1.2-1.36,1.51l0-.06c-.14.24-.28.27-.47.46s-.21.38-.33.5-.16,0-.21.09c-.28.24-.48.58-.74.84s-.67.43-.71.74l0-.07c-.07.11-.17.27-.32.3,0,0,0,0,.07.06a2.52,2.52,0,0,0-.69.61l0-.07c-.09.12-.05.11-.18.18l.06,0a13.47,13.47,0,0,0-1.42,1.32h-.09c0,.15-.12.18-.21.24h0s0,0-.07.11l0-.07c-.17.08-.48.31-.51.53l0-.08,0,.09c-.45.09-1,1.08-1.45,1.13v.12c-.22,0-.2.23-.45.26v.12l-.06,0a.23.23,0,0,1-.16.14v.09a.73.73,0,0,0-.45.37h-.15v.14c-.24,0-.3.26-.53.31a4.61,4.61,0,0,1-1.12.9v.09a.3.3,0,0,0-.24.2l-.05,0c-.06.09-.08.14-.24.14v0l.06.06h-.13l.06,0a2.29,2.29,0,0,1-.67.4,4.77,4.77,0,0,1-1.2.9v.09a9.9,9.9,0,0,0-1.52,1c-.12.12-.32.11-.38.29,0,0,0,0,0-.07a1.41,1.41,0,0,1-.63.45v.09a5.89,5.89,0,0,0-1.28.82H184v.09a1.36,1.36,0,0,0-.45.23l.05,0-.21,0c-.13.08-.16.22-.37.23v0l.06,0-.29.13,0,0a.51.51,0,0,1-.34.1v.09a12.46,12.46,0,0,0-1.52.91.22.22,0,0,0-.24.13l-.05-.06c0,.06-.08.08-.09.13l-.06-.06a2.69,2.69,0,0,1-1,.53v0l.05,0a.76.76,0,0,1-.36.1v.09c-.2,0-.26.13-.38.2l-.22,0a4.1,4.1,0,0,1-.85.45h0a30.31,30.31,0,0,0,5-10.27c.42-1.42.52-2.9.83-4.49l.18-1.81c0-.24,0-.48,0-.72a7.3,7.3,0,0,0,0-2.14c0-.43,0-.85,0-1.28-.18-1-.12-2.06-.32-3s-.35-2.14-.66-3.15a44.44,44.44,0,0,0-1.72-4.81A25,25,0,0,0,179,99.21a6.89,6.89,0,0,0-1-1.41v-.08H178s0,0-.07,0c.18-.1.71-.44.76-.64l0,.08c.19-.31,1.19-.94,1.25-1.2l0,.06c.21-.36.74-.53.87-.89l0,.05c.16-.26.33-.32.54-.52s.09-.23.16-.31.27-.18.37-.29v-.14l.15,0a5,5,0,0,0,.74-1c.17,0,.41-.37.45-.52h.09c0-.14,0-.14.15-.15s0,0-.06-.09c.09-.14.24-.15.28-.36.17,0,.43-.44.45-.62a4.81,4.81,0,0,0,.9-1.36h.09c0-.25.35-.43.37-.74h.09c0-.32.26-.41.3-.74l0,0,0-.14h.09c0-.14.11-.41.22-.45l-.06-.06a.52.52,0,0,0,.2-.4h.09c0-.18.08-.11,0-.19a8.44,8.44,0,0,0,.82-2.07h.09c0-.58.36-1,.36-1.59H188a2.38,2.38,0,0,1,.22-1V82.1c0-.1.05-.21.07-.27s0-.78.16-.83,0-.1-.07-.13l.07,0c0-.11,0-.1-.07-.12.06-.09.08-.3.14-.38s0,0-.07-.09a14.67,14.67,0,0,0,.07-3.15s0,0-.05.07c0-.28,0-.56,0-.83a4.88,4.88,0,0,1-.23-1v-.44a2.12,2.12,0,0,1-.15-.38c0-.23,0-.55-.14-.61,0,0,0,0,.07,0a3.56,3.56,0,0,1-.31-.85V72.8c-.09-.15-.18-.48-.29-.67a2.64,2.64,0,0,0,0-.29,5,5,0,0,1-.52-1.21c-.22,0-.17.06-.4.07v.09c-.45,0-.63.34-1.05.36v.09c-.45,0-.72.35-1,.36v.09a1.06,1.06,0,0,0-.47.2l-.07,0a1,1,0,0,1-.36.21h-.15a2.2,2.2,0,0,1-1.07.46v.09a2.21,2.21,0,0,0-1,.43l-.22,0a1.45,1.45,0,0,1-.36.22h-.16c-.3.21-.78.36-1,.5l-.22,0s0,.13-.07.15-.6.11-.67.16a.77.77,0,0,1-.45.22v.09c-.49,0-.87.51-1.43.52A2.63,2.63,0,0,0,177,76v.27l.09,0,.07.29V77a5.37,5.37,0,0,1,.15,2.53c-.1.31.06.69-.15.87l.06,0s-.58,1.87-.58,1.9h-.09c0,.36-.34.54-.36.9h-.09c0,.33-.31.47-.37.76h-.09a1.23,1.23,0,0,1,0,.2l0-.05a.76.76,0,0,1-.09.09l.05,0a6.19,6.19,0,0,0-.72,1h-.09v.13a3.9,3.9,0,0,0-.76.9l-.15,0c0,.15,0,.11-.14.16l.05,0c-.08,0-1,1-1.05,1.09l0-.06a.38.38,0,0,1-.26.22v.14h-.14c0,.15-.67.66-.78.69s0,0,0,0-.11.19-.23.22v.09c-.15,0-.17,0-.18.13l0-.06a.53.53,0,0,1-.4.29c-.07.39-1.13.7-1.19,1a1.17,1.17,0,0,0-.46.23l.06,0c-.21.12-.55-.11-.76-.2-.63-.25-1.32-.44-2-.63a18.16,18.16,0,0,0-7.86-.27,19.07,19.07,0,0,0-2.75.72,4.53,4.53,0,0,1-1.18.42.74.74,0,0,1-.36-.29H154c0-.24-.49-.33-.65-.47l-.85-.75c-.1-.08-.28-.07-.37-.16s-.23-.37-.47-.43v-.09h-.12l.05-.06c-.18-.1-.87-.64-.9-.83l-.06.05c-.2-.26-.5-.43-.7-.67l-.08-.21s-.15,0-.2-.09v-.15c-.14-.15-.38-.23-.46-.45h-.09a1.73,1.73,0,0,0-.58-.69l.06,0a2.78,2.78,0,0,1-.74-1.07h-.09c-.05-.21-.21-.3-.22-.53l-.06.06c0-.12-.05-.19-.16-.22l.07,0-.09,0c0-.25-.2-.34-.21-.6l-.15,0,.07,0c0-.12-.06-.1-.07-.26h-.09c0-.42-.36-.7-.36-1.19h-.09a.75.75,0,0,0-.13-.47c0-.13,0-.26,0-.38a2.17,2.17,0,0,1-.14-1l-.07,0a3.88,3.88,0,0,1,.07-1.43c.06-.11-.07-.25-.06-.29.08-.22.12-.56.2-.76s-.06-.08,0-.13a1.52,1.52,0,0,0,.2-.71h.09c0-.47.29-.68.29-1.14-.61,0-.77-.52-1.43-.52v-.09a1.09,1.09,0,0,1-.51-.22c-.12-.07-.26,0-.38-.09a1.94,1.94,0,0,0-.9-.38l.05,0a6.28,6.28,0,0,0-1.36-.54V73c-.1,0-.06,0-.11.07s-.06-.08-.18-.09l.07,0a2.33,2.33,0,0,0-.95-.33s0,0,.07,0a3.1,3.1,0,0,0-1-.38v-.09c-.43,0-.69-.38-1.07-.37V71.6c-.49,0-.61-.36-1.05-.36v-.09c-.34,0-.57-.36-1-.36V70.7c-.13,0-.2,0-.21-.07-.4,0-.51,1-.65,1.28a15.92,15.92,0,0,0-1.2,6.15,9.6,9.6,0,0,0,.07,2.3c.09.27-.08.55.06.64s0,.26.09.32H135a8.54,8.54,0,0,0,.38,1.85v.31a1.5,1.5,0,0,1,.16.29v.3a1.28,1.28,0,0,1,.22.75l.05-.06c.06.17,0,.3.16.4l-.07,0c.14.28.31,1,.53,1.19l-.08,0c0,.1.09.09.09.24l.06-.06c0,.43.3.52.31.89h.09c0,.39.35.55.36.9h.09c0,.18.06.15.07.31l.06,0c.05.28.3.43.32.72l.06,0c0,.14.21.37.16.4.17.24.51.53.52.87.15,0,.37.37.38.52l.08,0c0,.24.28.31.3.57l.15,0-.07,0c.1.14.23.38.43.42,0,.06,0,0-.05,0s.17.16.21.31h.09a11.6,11.6,0,0,0,1.2,1.52c.14.19.45.26.52.52h.09c.08.37.5.43.6.75l.06-.06c0,.14.31.36.45.38l-.06,0c.2.26,1,.77,1.05,1h.09c.06.27.56.28.6.62,0,0,0,0,0-.07.1.11.29.2.34.36l.06-.06a.54.54,0,0,0,.32.29c0,.07,0,0,0,.08l-1.11,1.57c-.4.69-.8,1.38-1.21,2.06a30.42,30.42,0,0,0-3,8.71c-.22,1-.22,2-.4,3.06l-.13,1.77v.75a6.35,6.35,0,0,0,0,1.63c.13.85,0,1.67.16,2.48a45.45,45.45,0,0,0,.93,4.88,31,31,0,0,0,2.78,6.83c.45.71.9,1.42,1.34,2.13l.69,1,.06,0c-.45-.07-.75-.5-1.22-.53v-.09c-.56,0-1.24-.74-1.74-.81,0-.14-.11-.17-.27-.18l.06,0a2.7,2.7,0,0,1-.6-.25c-.17-.13-.26-.27-.52-.31l.05,0a4,4,0,0,0-.8-.41l.06,0a7.5,7.5,0,0,0-1-.54v-.09c-.38-.05-.65-.42-.91-.6h-.16c-.07-.05-.15-.17-.22-.22h-.14a5.4,5.4,0,0,0-1.29-.89v-.09c-.23,0-.48-.37-.59-.31l0-.13h0a8.11,8.11,0,0,1-1.16-.83H135a8.47,8.47,0,0,0-1.34-1s0,0,.08,0a1,1,0,0,0-.53-.27c-.06-.31-.45-.31-.54-.58l-.06.05a13.17,13.17,0,0,0-1.68-1.34,2.28,2.28,0,0,0-.74-.63l.07,0c-.18-.12-.45-.24-.52-.47l-.08.06c0-.09-.34-.36-.45-.36v-.15l-.14,0c-.07-.28-.53-.37-.62-.65l0,.06c-.16-.37-.84-.61-1-1h-.09c0-.22-.29-.26-.36-.46h-.09a.47.47,0,0,0-.35-.32l.06,0a3.93,3.93,0,0,1-1.07-1l0,0c-.12-.34-.45-.46-.67-.69s-.2-.31-.33-.43c-.33-.33-1.24-1-1.36-1.43l-.05,0a.19.19,0,0,0-.16-.14v-.13h-.1c0-.21-.29-.25-.36-.45h-.09c0-.22-.16-.21-.21-.38l-.06.05c0-.12-.07-.1-.09-.22a.63.63,0,0,1-.38-.43c-.05,0,0,0,0,0a3.18,3.18,0,0,0-.85-.9l.06-.05c-.11-.08-.22-.15-.24-.31l0,0c-.07-.35-.66-.67-.76-1h-.09c-.09-.4-.64-.54-.67-1l-.15,0,.07,0a4.5,4.5,0,0,1-.68-.76c-.06-.07,0-.17-.08-.24s-.21-.15-.29-.23-.15-.44-.38-.53v-.14h-.09c0-.13,0,0,0-.13s-.12-.07-.14-.18c0,0,0,0,0,.07-.18-.41-.92-1.21-.94-1.57-.36-.06-.34-.72-.67-.83l.07-.06-.09,0a1.65,1.65,0,0,0-.43-.68s0,0,.07,0a1.51,1.51,0,0,1-.45-.78h-.09c0-.18-.14-.23-.15-.45l0,0a1.59,1.59,0,0,1-.16-.43h-.09c0-.59-.78-1.19-.82-1.81h-.09c0-.22-.14-.28-.14-.53l-.06.06a4.2,4.2,0,0,0-.52-1.21c.07-.16-.09-.25-.09-.51h-.09c-.07-.56-.47-1-.46-1.58l0,.06a5,5,0,0,1-.16-.82l-.06.06a5.78,5.78,0,0,1-.18-1l0,0c0-.12,0-.27-.08-.29a7.15,7.15,0,0,0-.23-1.47h.07a5.39,5.39,0,0,0-.14-.85c0-.12,0-.08.07-.13l-.09,0v-1H100c0,1.12.07,2,.07,2.81,0,0,0,0,0-.07,0,.24,0,.49,0,.74s0,.31.07.52.07,0,.09.08v.45c.15.22.12.73.22.9s0,.85.21.93c0,.1,0,.08-.07.11a.19.19,0,0,0,.09,0,5.17,5.17,0,0,0,.27,1.14c0,.14,0,.26.09.33H101a1.93,1.93,0,0,1,.24.56v.23c.08.12.14.33.21.46v.29a12.9,12.9,0,0,1,.6,1.37,2.23,2.23,0,0,1,.09.53,6.14,6.14,0,0,1,.67,1.64l.06,0a5.66,5.66,0,0,1,.47,1.19h.09c.06.34.34.56.36.91h.09c0,.36.35.54.36.9h.09c0,.33.35.49.36.84h.1a1.17,1.17,0,0,0,.43.7l-.07,0v.09h.09v.09s0,0,0-.07a.76.76,0,0,1,.11.36l.06,0,0,.22s0,0,0-.08h0c0,.15.07.15.09.29h.09c0,.24.2.27.22.53l0-.06c0,.14.09.12.09.29h.09a.68.68,0,0,0,.2.33l0,0c.1.12.2.14.22.32h.09c0,.51.63.72.67,1.22h.14v.2h.09c0,.23.29.38.36.62H108c0,.19.17.3.27.4h0c.18.24.57.57.6.87h.09c0,.13.06.07.07.22l.06,0c0,.13.08.11.09.27l.14,0v.13h.09a1.6,1.6,0,0,0,.45.6c0,.1,0,.15.13.18l0,0a10.07,10.07,0,0,0,.88,1l0,.15c.08.09.21.17.29.25v.13c.06.06.19.08.24.14v.16l.12,0,0,.13s.12,0,.16.07,0,.15.08.24.24.13.29.29H112a.5.5,0,0,0,.34.39l0,.15h.09a.47.47,0,0,0,.29.36v.09c.26,0,.17.24.31.36l.14,0v.15c.1.11.3.17.38.29v.16c.14.12.53.37.6.6h.09a.23.23,0,0,0,.2.23s0,0-.06,0c.11.13.34.23.38.41,0,0,0,0,0-.07a5.59,5.59,0,0,0,1.16,1.21v.13h.09a9.44,9.44,0,0,0,1.1,1.09l0,0a2.85,2.85,0,0,0,.67.57c-.08,0,.18.26.23.31.28.24.56.53.84.82s.55.3.59.59h0a1.16,1.16,0,0,1,.35.17v.14c.16.2.94.69,1,.91,0,0,0,0,0-.08.06.13.05.12.18.19H121c.06.08.09.08.14,0l0,.13,0-.06,0,.13h.15a.52.52,0,0,0,.36.33h-.06c0,.06,0,0,.08.11l0,0c.09.21.39.27.47.5h.09v.09a3.11,3.11,0,0,1,1,.82l0-.05,0,.12.06-.05c.08.2.36.24.45.43H124c0,.17.66.6.74.62l0,.05a2.31,2.31,0,0,1,.59.47c.09.08.23.07.31.15s.13.23.22.3l.05-.05a2.18,2.18,0,0,0,.31.22c.13.1.2.25.38.31l0,0a1.4,1.4,0,0,0,.29.16v.1c.33,0,.46.41.74.45l-.05.05a4.74,4.74,0,0,0,.52.31V137c.27,0,.37.29.6.36v.09c.36,0,.94.77,1.28.82v.09c.31.05.38.32.67.38l-.05.05a.81.81,0,0,0,.27.11l-.05,0c.17.08.28.21.45.23a8.48,8.48,0,0,0,1.36.91c0,.14.21.23.36.25l-.06,0c.23.11.57.42.82.4l0,.14c.21,0,.24.14.36.24a.14.14,0,0,1,.16,0,6,6,0,0,0,1.41.85h-.05a1.47,1.47,0,0,0,.6.33v.09c.39,0,.44.36.83.36v.09c.36,0,.45.35.83.37v.09c.32,0,.48.31.83.36v.09c.22,0,.28.13.51.16l0,0c.29.13.53.22.81.36h-.07c.22.21,1.21.41,1.28.63.22-.08,1,.53,1.43.53v.09a1.62,1.62,0,0,1,.76.29h.22a4.86,4.86,0,0,0,1.52.52v.09a20.18,20.18,0,0,1,2,.47c0,.12-.1.23-.14.35h-.66v-.09c-.1,0-.08,0-.1.07-.12-.13-.53,0-.62-.14-.07,0,0,0-.05.07-.35-.23-1.15,0-1.63-.15-.94-.23-2.25,0-2.93-.21-.29-.1-1.26.12-1.36-.09h-.27v.07c-.11,0-.28-.21-.37,0a5.24,5.24,0,0,0-1.61-.07h-3.55a6.62,6.62,0,0,0-1.55.07c-.31-.21-.86,0-1.27,0a20.56,20.56,0,0,0-3.17.14c-.31.08-1-.08-1.14,0a.37.37,0,0,1-.14.07c-.18,0-.58-.08-.64.08,0-.05,0,0,0-.08a7.35,7.35,0,0,1-1.23.08c-.11,0-.07,0-.11.07l0-.07c-.16.06-.85,0-1,.07-.44.28-1.52,0-1.87.23H121a1.78,1.78,0,0,1-.53.08s-.08,0-.07,0l0,0c-.1,0-.1,0-.12.07l0-.07a2.73,2.73,0,0,1-.8.07l.07.05a13,13,0,0,0-2.11.26c-.41.1-.89-.05-1.2.14-.1.06-1.1,0-1.16.07-.22.18-.66,0-.9.17l-.27.07h-.4a5.73,5.73,0,0,1-1.65.22v.09a6.11,6.11,0,0,0-1.43.21H110a4.81,4.81,0,0,1-.92.15,3.52,3.52,0,0,1-.89.23,1.6,1.6,0,0,1-.45,0,1.63,1.63,0,0,1-.44.15H107a8.39,8.39,0,0,1-2,.38l0,.07a2.93,2.93,0,0,0-1.07.22l-.05-.06a4.08,4.08,0,0,1-1.07.29h-.29c-.25.21-.72.14-1,.31h-.31c-.15.1-.44.12-.6.22h-.31a6.33,6.33,0,0,1-1.79.45v.09a8.33,8.33,0,0,0-2.12.6c-.22.14-.75,0-.85.29,0-.07,0-.06-.12-.07v.09c-.55,0-.79.36-1.36.36v.09a3.56,3.56,0,0,0-1.21.43.2.2,0,0,1-.06-.07l0,.09c-.41,0-.7.35-1.12.36v.09c-.35,0-.41.22-.76.22v0l.06,0a.58.58,0,0,1-.37.11v.09s-1.08.42-1.12.45a1.1,1.1,0,0,1-.69.36V155c-.2,0-.13.08-.37.09v.12s0,0,0,0c-.33,0-1.34,1-1.45,1-.07.12-.2.18-.24.3h-.09v.17h.09v.14l.13,0c.07.07,0,.16.09.22s.32.16.44.3,0,.17.09.22l.14,0c.15.14.23.37.38.51s.33.2.38.38l.06-.06c.21.29,1.11,1.07,1.15,1.34h.11s0,.06,0,.15l0-.06a3.86,3.86,0,0,1,.47.58h.09c0,.19.3.27.37.45h.09c0,.11,0,.1.12.11l0,0c.08.11.24.18.29.33h.09v.09h.13s0,0-.06,0c.09.11.25.18.29.33h.09c.06.23.31.29.36.54.24.06.33.42.53.55h-.07c.07.09.25.34.36.37l-.06,0c.17.07.25,0,.4-.05s.08-.17.22-.16l-.05-.06c.15,0,.54-.18.59-.31,0,0,0,0,0,.08a1.9,1.9,0,0,1,1-.46v-.09c.43,0,.6-.36,1.12-.36v-.09c.3,0,.25-.08.48-.2s.43,0,.52-.09a5.82,5.82,0,0,1,1.65-.52v-.1c.25,0,.3-.06.52-.07l0-.05a7.46,7.46,0,0,1,1.12-.24v-.09a5.28,5.28,0,0,0,1.52-.43l0,.07a1.42,1.42,0,0,0,.36-.14l.44,0c.31-.22.89-.18,1.21-.38h.23c.15-.08.39-.11.44-.15h.31a2.26,2.26,0,0,1,1.05-.21V159c.68,0,1.16-.28,1.81-.29,0,0,0,0-.06,0l.45,0c.19-.15.55-.13.89-.23s.64,0,.78-.15l0,.07a1.48,1.48,0,0,1,.83-.14c.21-.21,1.2-.19,1.39-.31h.46a1.74,1.74,0,0,1,.63-.14h.34s0-.08.08-.09H114a5.45,5.45,0,0,1,1-.22h.52a11.7,11.7,0,0,1,2.36-.31s0,0-.08,0v0c.73-.06,1.21-.17,2-.17l0-.07a2.23,2.23,0,0,0,1-.14,5.06,5.06,0,0,0,1,0,5.7,5.7,0,0,0,1-.15c.29-.06.61,0,.77,0h0a1.74,1.74,0,0,1,.65-.07c.22.06.93-.21,1-.07a.68.68,0,0,0,.32-.09h.91a2.39,2.39,0,0,1,.67-.07h.47a4.44,4.44,0,0,1,1.57-.08s0,0-.05,0a3.69,3.69,0,0,1,1.25,0c.7,0,1.05-.07,1.86-.07.28,0,1.16.06,1.27-.07l0,.07c.77,0,1.66-.07,2.55-.07.21,0,.78-.07.83.07a17.88,17.88,0,0,1,3.32.07h.56a1.25,1.25,0,0,1,.52.07h1.12v.08c.05,0,.16-.14.29-.06a6.29,6.29,0,0,0,1.52.13,5.25,5.25,0,0,1,0,1.48c0,.38,0,.75,0,1.13,0,.69.08,1.38.11,2.08.16.91.21,1.82.42,2.68a30.79,30.79,0,0,0,1.5,4.67v0c-.65,0-1.37.52-2,.52V169c-.29,0-.35.14-.67.15a.35.35,0,0,0,.08.05,1.69,1.69,0,0,0-.76.31c-.12.07-.58.1-.67.16s-.33.19-.47.29-.36,0-.44.09a.83.83,0,0,1-.45.22v.09c-.38,0-.61.33-1,.36v.09c-.34,0-.55.34-.9.36v0l0,0c0,.05-.1,0-.14.11-.22-.08-.48.3-.82.31v.09a3.38,3.38,0,0,0-1.07.59c-.16.11-.38.09-.52.22v.09c-.06,0-.36.08-.45.15-.34.25-.74.48-1.07.74s-.49.17-.67.31a2.21,2.21,0,0,1-.83.52l0,.15c-.1-.08-1,.56-1,.56h.05a.44.44,0,0,1-.27.11c0,.05,0,0,.05.06-.25.1-.54.45-.88.47v.09a1.24,1.24,0,0,0-.62.45,6.58,6.58,0,0,0-1.19.76l0,.06c-.29,0-.3.27-.6.3v.15h-.21l0,.14c-.17-.09-.78.67-1.11.69v0l.06,0a2.79,2.79,0,0,1-.44.29l.06,0a2.31,2.31,0,0,0-.44.34l-.23.07c-.22.19-.51.61-.84.67v.09c-.29,0-.78.73-1.12.82v.09c-.12,0,0,.05-.12,0l-.09.09.05,0a7.86,7.86,0,0,0-1.29,1.06l0-.05c-.12.15-.32.42-.55.45v.15c-.1,0-.07,0-.09.07l0-.07c-.12.18-.23.17-.4.3s-.17.29-.29.38l-.23.08,0,.12-.13,0a5.55,5.55,0,0,1-1,.91v.09a.5.5,0,0,0-.39.36l0-.07a2.52,2.52,0,0,1-.4.4l.06.05a.33.33,0,0,0-.31.23l0-.07a.2.2,0,0,1-.09.09l.06,0c-.39.31-.68.69-1,1-.1.1-.5.28-.45.44-.16.12-.46.26-.52.47h-.09v.13c-.42.15-.6.65-1,.87h0c-.09.08-.26.19-.29.33l0-.06c-.19.25-.36.4-.56.62l.07,0a2.85,2.85,0,0,0-.91.92h-.14a.56.56,0,0,1-.29.36v.09h-.09c0,.15-.19.26-.29.33l0,0c-.19.12-.4.5-.58.56v.09a.21.21,0,0,0-.18.2l0-.06a2.34,2.34,0,0,1-.55.62l.06.05c-.09,0-.1.1-.2.15v.09c-.24.05-.23.33-.45.38v.14a2,2,0,0,0-.62.75l0-.06c-.08.14-.15.31-.31.36s0,0,0,.06c-.16.12-.27.29-.43.41l0,0a5.32,5.32,0,0,0-1,1.23h-.09a.22.22,0,0,0,.08.05c-.2.08-.24.34-.44.4v.17c-.17,0-.42.42-.45.59s-.25.3-.38.4l0,0a.87.87,0,0,0-.31.45l0-.05c-.06.12-.1.24-.24.29v.16c-.14,0-.2.22-.3.31l0,0a2.93,2.93,0,0,0-.65.94H107c0,.1,0,.06.07.11a.56.56,0,0,0-.31.4l0-.05c-.13.25-.39.51-.42.81l0-.07a.79.79,0,0,0-.09.23h-.09c0,.17-.07.15-.07.29,0,0,0,0,0-.07l0,.22,0-.06c-.06.16-.07.33-.25.37,0,0,0,0,.07.05a1.07,1.07,0,0,0-.38.69c-.08-.06,0,0-.14,0a.78.78,0,0,1-.29.54l0,0a.23.23,0,0,0-.12.24h-.1a1.33,1.33,0,0,1-.36.67v.16h-.09c0,.6-.79,1.21-.81,1.81h-.09s0,0,.07.06-.16.15-.16.3l0-.07a3.49,3.49,0,0,0-.23.69h-.1a5.12,5.12,0,0,1-.52,1.3l0,0c-.27.29-.18.87-.5,1.11l0,0a11.73,11.73,0,0,0-.8,2.52h-.09a3.19,3.19,0,0,1-.09.59l0-.07c0,.11,0,.21,0,.31a2.76,2.76,0,0,1-.22.6v.31s-.07,0-.09,0v.33h-.07c-.13.22.11.56-.15.67,0,.08,0,.05.06.09a21.16,21.16,0,0,0-.51,5.35h11.1a2.86,2.86,0,0,1,.09-1.05c0-.09,0-.08-.07-.1s0-.55.14-.69,0-.05-.07-.09c.18-.16.08-1.14.22-1.38s.15-.72.3-1v-.37c.21-.36.25-.93.46-1.28v-.24a2,2,0,0,0,.29-.83h.09c0-.44.25-.58.3-1l0,.05c.09-.21.24-.78.4-.83,0-.09,0-.06-.06-.11a.27.27,0,0,0,.13-.25h.09c0-.17.16-.57.29-.62l0-.05c.06-.06.11-.2.2-.24s0,0-.06,0a11.43,11.43,0,0,0,.89-1.68h.09c0-.46.54-.77.61-1.2l0,0a1,1,0,0,0,.16-.38c.25-.05.26-.41.38-.59s.24-.2.31-.31c.2-.28.69-1.37,1-1.43,0-.09,0-.06,0-.11s.14-.15.19-.16v-.11h.09c.06-.43.6-.62.69-1l0,.05c.06-.13.16-.24.2-.36l0,.07a2,2,0,0,0,.32-.54.28.28,0,0,0,.18-.2l0,.05a.8.8,0,0,0,.2-.36l0,.06c.13-.25.62-.69.65-.89l0,.07c.08-.11.1-.25.2-.36l.21-.11v-.14s.12,0,.15-.08,0-.15.09-.21c.21-.23.87-.79,1-1.07h.09v-.13l0,.06a3.08,3.08,0,0,1,.31-.46c.09-.08.23-.12.31-.21s0-.18.07-.24.44-.28.52-.52h.1v-.13l0,0,.11-.21,0,.05c.06-.11.08-.19.24-.22l0-.05a1,1,0,0,0,.45-.53l.05.06c.22-.37,1.09-.93,1.16-1.27l0,.06a17.08,17.08,0,0,1,1.46-1.49c.19-.18.57-.31.62-.61l0,.07a2.31,2.31,0,0,1,.77-.69s0,0-.07,0c.17-.1.41-.24.45-.47.07,0,.05,0,.13.06l0-.13,0,.06c.15-.2.84-.75.87-.89l0,.05c0-.07.13-.12.16-.21l.16,0c0-.13.26-.33.37-.36l-.06-.06c.38-.06.38-.42.74-.47a.78.78,0,0,0,0-.14c.28-.06.43-.41.65-.47l0-.06.22,0a.23.23,0,0,1,.21-.21v-.09c.27-.06.35-.29.6-.37,0-.05,0,0,0-.05.12-.08.28-.22.34-.18a.49.49,0,0,1,.25-.22v-.09c.5-.1.69-.73,1.2-.81v-.09c.16,0,.23-.18.38-.22l-.06-.06a5.18,5.18,0,0,0,1.36-1h.13v-.09c.26,0,.32-.23.47-.36h.16l.07-.15.06,0c.08-.08.14-.07.23-.14s.11-.19.29-.22v-.09a1.8,1.8,0,0,0,.69-.45l.22-.07-.06-.06h.2s0,0-.07,0a.4.4,0,0,1,.31-.11l0,0a2.86,2.86,0,0,1,.81-.47v-.1c.27,0,.45-.25.6-.28l-.06-.06v0a3,3,0,0,0,.89-.52l.05.05A.25.25,0,0,1,141,183s0,0-.07,0,.06,0,.07-.09,0,0,.05.05a.83.83,0,0,0,.42-.28l0,.07a.32.32,0,0,0,.1-.17l.06,0a37.37,37.37,0,0,0-5.38,12.28c-.4,1.58-.5,3.26-.79,5l-.15,2.23v.61a11.81,11.81,0,0,0,0,2.79c0,.61.07,1.21.11,1.81.2,1.22.27,2.46.52,3.59.35,1.59.67,3.06,1.12,4.5A31,31,0,0,0,147.85,231a25,25,0,0,0,7.58,3.91c.77.24,1.54.36,2.38.55s1.5.18,2.28.3l1.14,0,.94,0c1-.16,2-.07,2.89-.25a26.42,26.42,0,0,0,5.18-1.47c8.78-3.73,14.29-11.69,16.84-21.69a40.24,40.24,0,0,0-.26-18.75,34.81,34.81,0,0,0-2.93-7.59c-.43-.74-.86-1.48-1.28-2.22-.35-.51-.69-1-1-1.52.1,0,.09.06.2.09l-.05,0c.08,0,.11,0,.14.09l.08-.05a1.9,1.9,0,0,0,.74.45l-.06,0a2.1,2.1,0,0,1,.75.47l0-.05a.38.38,0,0,0,.18.12v.09c.35,0,.46.33.82.38,0,0,0,0-.06,0,.13.16.48.17.53.4H185c0,.12.25.23.36.25l0,0a1.28,1.28,0,0,0,.38.16v.09a.31.31,0,0,1,.29.22l.05-.06c.07.07.15.1.18.2s.07,0,.11-.05a.76.76,0,0,1,.11.22c.11,0,.42.22.6.32l-.07,0a1.27,1.27,0,0,0,.36.2l-.06,0a1.59,1.59,0,0,0,.38.17c0,.14.31.29.44.32l-.06,0c.11.06.16.06.2,0l0,.14c.28,0,.36.31.62.36v.09c.24,0,.21.19.43.24l0,0c.36.18,1.17,1,1.43,1,0,.13.18.22.29.27h-.08c.22.21.66.33.76.64.11,0,0,0,.15,0,.08.32.86.55,1,.9l0,0,0,.12c.31.13.82.75,1,.78l0,.15a1.5,1.5,0,0,1,.58.38v.14c.08.06.18,0,.24.07s.5.65.81.69v.15c.35.06.58.64.91.74v.09c.11,0,.1.06.22.09l-.06,0c.12.15.42.28.46.49l0-.06c0,.18.18.12.23.27h.1c0,.22.29.26.36.46h.09c.05.21.29.24.36.45h.09v.09s0,0,0-.07c.09.16.27.27.32.43h.09c0,.18.3.24.36.45l.06,0c.1.16.36.33.4.51h.09c.05.21.29.25.36.45h.09c.06.4.75.63.82,1,.22.05.34.35.52.47l-.07,0c.1.09.14,0,.16.18l.05-.05a2.27,2.27,0,0,0,.69.76v.13h.09a.23.23,0,0,0,.2.23s0,0,0,0c.2.26.58.45.67.78h.09c0,.19.18.17.22.38l0-.06,0,.13.05-.06a4.33,4.33,0,0,0,.47.75s.14,0,.17.07.11.27.14.31c.18.23.5.43.6.74h.09V203s0,0,0-.07a6.44,6.44,0,0,1,.78,1.12h.09a1,1,0,0,0,.37.55v.12h.09a1.58,1.58,0,0,0,.43.64h-.05a.25.25,0,0,0,.2.13l-.06,0a4.33,4.33,0,0,0,.58.81l0,.2h.07c.06.07,0,.14.07.22l.09,0v.14c.17.22.51.49.53.83l.05,0c.08.43.52.63.55,1.1l0-.05a8,8,0,0,0,.76,1.45l-.05,0c.13.19.51,1.12.67,1.17l-.08,0a.2.2,0,0,0,.15.18v.22h.09c0,.18.07.18.07.38l.06-.06a.36.36,0,0,0,.16.31l-.07,0a.57.57,0,0,0,.21.34l-.07,0a2.27,2.27,0,0,1,.31.85l.07-.05c0,.18.07.27.07.5h.09a2.45,2.45,0,0,0,.29,1v.25c.1.18.14.48.24.66v.3c.07.13.13.56.22.64l-.08,0c0,.07.11.25.15.32v.53a8.26,8.26,0,0,1,.23,2.49h11.1a4.33,4.33,0,0,0,0-1.53v0a5.4,5.4,0,0,0,0-1.12c-.19-.82-.17-1.58-.38-2.3-.14-.47,0-.79-.22-1.12-.1-.16,0-.55-.14-.64l.07,0a.43.43,0,0,1-.07-.34h-.09a8.9,8.9,0,0,0-.6-2.17c-.06-.22-.13-.72-.29-.78l.07,0-.09,0c0-.19-.11-.58-.2-.61l.06,0c-.31-.27-.53-1.69-.82-1.83.07-.21-.3-.59-.31-.91h-.09c0-.4-.28-.4-.29-.83,0,0,0,0,0,.07a5.48,5.48,0,0,1-.47-1.12h-.09c0-.26-.2-.35-.22-.6l-.05.06c-.07-.47-.53-.72-.55-1.2h-.09a2.36,2.36,0,0,0-.45-.74.17.17,0,0,0-.13-.18c0-.09,0-.06.06-.11a1.62,1.62,0,0,0-.2-.18l0-.06c-.18-.14-.44-.8-.59-.83V201h-.1c-.06-.45-.8-1-.81-1.43a5.27,5.27,0,0,1-.9-1.29h-.1c0-.18-.17-.27-.21-.45l-.06.06a.23.23,0,0,0-.16-.22l.07,0c-.33-.21-.74-1.12-1-1.17l.07,0a.46.46,0,0,1-.24-.33s0,0,0,.08,0-.06-.09-.1l.05,0c-.17-.12-.73-.95-.81-.92s0-.21-.1-.29-.24-.17-.3-.24-.08-.19-.2-.23l.05-.06c-.07,0-.12-.07-.14-.16h-.09l-.08-.22-.05.06a.42.42,0,0,0-.24-.29v-.15c-.36-.08-.77-1.09-1-1.07l.05-.05c-.12-.1-.26-.3-.44-.33,0-.06,0,0,.08-.05v-.07c-.11,0-.15,0-.17-.17l-.05.06a.23.23,0,0,0-.24-.22.35.35,0,0,1,.08,0c-.06-.05-.05,0-.08-.09h-.09v-.1H210s0,0,0,0a5.78,5.78,0,0,0-1-1l0-.14c-.2,0-.33-.33-.45-.45s-.34-.22-.45-.36-.11-.3-.22-.38-.37-.21-.45-.33v-.13c-.13-.13-.51-.32-.54-.52l-.06.05c0-.16-.12-.16-.16-.29,0,0,0,0,0,.07a2.43,2.43,0,0,1-.2-.28l-.05,0c-.16-.42-.86-.68-1-1h-.09a7.15,7.15,0,0,0-1.19-1.14l0,0s0,0-.07-.09l-.06.06v-.13c-.05,0,0,0,0,0a4.34,4.34,0,0,0-1-.88.38.38,0,0,0-.29-.26l.05,0c-.05-.05-.05,0-.07-.09l-.06.05a.29.29,0,0,0-.23-.23l.07,0a2.58,2.58,0,0,0-.45-.33v-.09a.94.94,0,0,1-.45-.36h-.09c-.06-.27-.43-.3-.58-.47s-.08-.22-.17-.29a.14.14,0,0,1-.16,0c-.09-.07-.13-.23-.22-.31s-.34-.07-.38-.29l0,.06a1.24,1.24,0,0,0-.62-.53s0,0,.08,0c-.15-.14-.43-.21-.51-.4h-.11a1,1,0,0,0-.58-.47l.06-.06c-.2-.11-.37-.34-.6-.38-.06-.26-1-.62-1.05-.9h-.09v-.09c-.4-.06-.63-.61-1-.69l.05,0c-.24-.11-1.07-.77-1.1-.72-.1-.12-.35-.39-.44-.29a.56.56,0,0,0-.32-.24l.05,0a1.22,1.22,0,0,0-.29-.17v-.09c-.27,0-.39-.31-.69-.36,0-.22-.51-.34-.67-.47s-.37-.31-.54-.43l-.2,0,0-.15-.29-.09a2.52,2.52,0,0,0-1-.65v-.09c-.15,0-.14-.07-.29-.09l.07,0a7.14,7.14,0,0,1-1.12-.68l-.17,0c-.08-.07-.3-.33-.36-.24a1.06,1.06,0,0,0-.69-.36.35.35,0,0,1,.08-.05,3.74,3.74,0,0,0-1-.49l.07,0a5.78,5.78,0,0,1-1.37-.78c-.09,0-.06,0-.11.06l0-.13a.24.24,0,0,1-.29-.14c-.1,0-.09,0-.14,0,0-.17-.79-.52-1.05-.52l0-.15c-.17,0-.18-.11-.29,0,0-.1-.55-.34-.69-.34v-.09c-.64,0-1-.54-1.65-.62l.06,0a2.34,2.34,0,0,0-.53-.17v-.09c-.5,0-.79-.36-1.28-.36v-.09a3.94,3.94,0,0,1-1.27-.36l-.31,0a1.4,1.4,0,0,0-.67-.22c.18-.43.35-.87.53-1.3l.72-2.35a26.74,26.74,0,0,0,.69-8.24,3.35,3.35,0,0,0,1-.14s.3.1.39,0a5,5,0,0,1,1-.15H182a6.46,6.46,0,0,1,1.09-.07h.51a10.26,10.26,0,0,1,2-.07s0,0-.07,0h0l.07,0c.08.07.24.12.31,0l.11,0h-.07c.08.1.34,0,.36,0s0,.08,0,.05a10,10,0,0,1,2.81,0c.08,0,.78-.19.9,0,.06,0,0,0,.08-.07l.05,0a3,3,0,0,0,.91.05s0-.13,0-.07,1,.07,1.18.07a1.16,1.16,0,0,1,.49.07s.67,0,.67,0,1,0,1.05.07,0,.09,0,0,0-.06.13,0,0,0,.12,0a19.29,19.29,0,0,1,2.57.15c.19,0,.79-.07.84.07s0,0,0,0c.17.11,1,0,1,.14s.17,0,.2-.07a5.81,5.81,0,0,0,1.63.16l-.09,0c.15.12.45-.06.76,0,.46.14,1.13,0,1.59.23.21.11.55,0,.72.07s.56,0,.71.08,1.15-.06,1.27.14c.13,0,.16,0,.18-.05.35.18.54,0,1,.12,0,0,0,.08.07.09h.6a3.26,3.26,0,0,0,1.14.17v0h-.08c.17.14,1.35.1,1.65.21l-.14,0c.11.12.8.06,1.05.18h.39c.25.19,1,.11,1.34.22l.46.16c.15.08.71,0,.83.07a3.63,3.63,0,0,0,1.21.22v.09c.76,0,1.67.37,2.26.36v.1a8.81,8.81,0,0,1,2.41.52h.24a5.93,5.93,0,0,1,.9.29c.06,0,0-.05,0-.05a2.33,2.33,0,0,1,.27.05,6.78,6.78,0,0,0,1.47.4c.08,0,.23.12.27.14h.29a2.34,2.34,0,0,0,.79.24c.26,0,.16.13.49.12v.1a9.41,9.41,0,0,1,1.87.59c.06,0,0,0,.05-.07.2.18.57.22.78.38h.22v.07h.16V162h.24s0,.11.07.13.33,0,.45.09a1.48,1.48,0,0,0,.67.31l0,0c.28.13,1.2.47,1.28.71.25,0,.8-.66.83-.9.17,0,.16-.19.31-.24l0,0a14.76,14.76,0,0,0,1.5-1.58l0,.06c0-.06,0-.05.09-.08s0,0-.06,0c.17-.1.25-.27.44-.33l-.06,0a13.1,13.1,0,0,1,1-.92V159c.08,0,.39-.29.4-.43l0,.07,0-.14.06.05c.07-.1.16-.26.3-.29l0,0,.13,0v-.09h.09c0-.13.25-.33.36-.36l0-.07c.09,0,.11-.07.21-.1s0,0-.07,0A5.55,5.55,0,0,0,237.33,156.61Z"/><path class="cls-1" d="M114.17,102.78h0v0Z"/><path class="cls-1" d="M78.71,129s0,0,.05,0S78.76,129,78.71,129Z"/><path class="cls-1" d="M113.52,160.85l0,0v0Z"/><path class="cls-1" d="M72.42,165s0,0,0,0Z"/><path class="cls-1" d="M84.69,170s0,0,0,0Z"/></svg>