<?xml version="1.0" encoding="UTF-8"?>
<svg width="27px" height="18px" viewBox="0 0 27 18" version="1.1" xmlns="http://www.w3.org/2000/svg" xmlns:xlink="http://www.w3.org/1999/xlink">
    <title>ic_menu</title>
    <defs>
        <rect id="path-1" x="0" y="0" width="375" height="75"></rect>
        <filter x="-5.1%" y="-22.7%" width="110.1%" height="150.7%" filterUnits="objectBoundingBox" id="filter-2">
            <feOffset dx="0" dy="2" in="SourceAlpha" result="shadowOffsetOuter1"></feOffset>
            <feGaussianBlur stdDeviation="6" in="shadowOffsetOuter1" result="shadowBlurOuter1"></feGaussianBlur>
            <feColorMatrix values="0 0 0 0 0   0 0 0 0 0   0 0 0 0 0  0 0 0 0.1 0" type="matrix" in="shadowBlurOuter1"></feColorMatrix>
        </filter>
    </defs>
    <g id="web_final" stroke="none" stroke-width="1" fill="none" fill-rule="evenodd">
        <g id="mob_02-01-Journals_close" transform="translate(-24.000000, -30.000000)">
            <rect fill="#FFFFFF" x="0" y="0" width="375" height="812"></rect>
            <g id="Rectangle">
                <use fill="black" fill-opacity="1" filter="url(#filter-2)" xlink:href="#path-1"></use>
                <use fill="#FFFFFF" fill-rule="evenodd" xlink:href="#path-1"></use>
            </g>
            <g id="Group" transform="translate(22.000000, 23.000000)">
                <rect id="Rectangle" x="0" y="0" width="32" height="32"></rect>
                <g id="iconfinder_Arrow_Back_1063891" transform="translate(2.000000, 6.666667)" fill="#121313">
                    <path d="M26.1590291,8.59060988 L2.75649222,8.59060988 L9.75757458,1.74302163 C10.0863942,1.42017019 10.0863942,0.897497649 9.75757458,0.575471914 C9.42875497,0.252620473 8.89642042,0.252620473 8.56844179,0.575471914 L0.242830334,8.74914562 C-0.0809434447,9.06704282 -0.0809434447,9.59879814 0.242830334,9.91669534 L8.56844179,18.0911948 C8.89726139,18.4140462 9.42959594,18.4140462 9.75757458,18.0911948 C10.0863942,17.7683433 10.0863942,17.2456708 9.75757458,16.923645 L2.75649222,10.2420239 L26.1590291,10.2420239 C26.6232451,10.2420239 27,9.87210716 27,9.41631689 C27,8.96052662 26.6232451,8.59060988 26.1590291,8.59060988 Z" id="Arrow_Back"></path>
                </g>
            </g>
        </g>
    </g>
</svg>