<svg id="lady_bug" data-name="lady bug" xmlns="http://www.w3.org/2000/svg" viewBox="0 0 300.66 306.34"><defs><style>.cls-1{fill:#212990;}</style></defs><title>bug logo</title><path class="cls-1" d="M179.31,175.82c0,2.32.16,4.61,0,6.88-1,12.87-5.51,24.34-14.36,33.89-6.05,6.52-13.19,11.38-21.93,13.59-1.81.46-3.69.65-5.66,1v6.29c-.66-.4-1.16-.68-1.62-1a29.84,29.84,0,0,1-7.62-7.29,2.11,2.11,0,0,0-.6-.59c-5.21-2.86-8.51-7.38-10.9-12.65a59,59,0,0,1-4.89-20.31,71,71,0,0,1,.4-16.48c1.31-8.07,3.2-16,7.22-23.22,2.34-4.22,5.32-7.88,9.65-10.2a55.07,55.07,0,0,1,5.16-2.15l1.61,6.17-5.09,2.7c-.71.38-.76.81-.35,1.53a43.67,43.67,0,0,0,13.57,14.4c8.5,5.9,18.05,9.18,28.13,11.06a7.31,7.31,0,0,0,.79,0c0-.71-.07-1.37-.12-2s-.13-1.31-.21-2Zm-60.81,5a3.81,3.81,0,0,0-.11.61c-.08,4.07-.11,8.14-.25,12.2a4.75,4.75,0,0,0,1.5,3.46,33.9,33.9,0,0,0,7.93,6.38c9.65,5.81,20.25,8.42,31.39,9.17a1.36,1.36,0,0,0,1-.45c1.66-2,3.29-4.12,4.91-6.2a3.64,3.64,0,0,0,.38-.7C147.42,201.39,131.4,194.25,118.5,180.84Z"/><path class="cls-1" d="M156.87,108.35c-15.27,5.35-22.49,16.28-23,32.22-1.83-.31-3.68-.54-5.5-.93a45,45,0,0,1-20.65-10.85,70.38,70.38,0,0,1-21.45-35,28.31,28.31,0,0,1-.68-10.61c.61-5.21,3.69-8.09,8.93-8.22a57.4,57.4,0,0,1,13.44,1.5,86.11,86.11,0,0,1,32.81,14.17A56.2,56.2,0,0,1,156,106.79C156.29,107.3,156.57,107.83,156.87,108.35Z"/><path class="cls-1" d="M208.27,94.28c2,1.37,3.87,2.56,5.63,3.91a37.79,37.79,0,0,1,13.65,19,19.68,19.68,0,0,1,.83,9c-.9,5.58-4.45,8.94-9.39,11a35.81,35.81,0,0,1-13.34,2.53c-6.72.14-13.28-.65-19.43-3.62a22,22,0,0,1-10.1-9.43,23.32,23.32,0,0,1-2.59-12.92,25.32,25.32,0,0,1,8-16.86,20,20,0,0,1,3-2.37,1.07,1.07,0,0,0,.5-1.42c-.65-2.36-1.22-4.74-1.89-7.1a3.77,3.77,0,0,1,1.06-4,21.44,21.44,0,0,1,9.55-5.37A42.43,42.43,0,0,1,205.28,75a3.26,3.26,0,0,1,3.58,3.16c0,1.91-1.38,3.27-3.5,3.34a34.48,34.48,0,0,0-12.83,2.62c-2.87,1.26-2.86,1.28-2,4.24.25.89.51,1.78.72,2.68.12.5.34.61.87.57,1.71-.15,3.42-.2,5.13-.3a1.43,1.43,0,0,0,.72-.18,20.09,20.09,0,0,1,11.25-3.45,88.33,88.33,0,0,1,9.62.3,3.26,3.26,0,0,1,3.1,3.64c-.25,1.91-1.85,3-3.93,2.88-2.7-.18-5.4-.27-8.1-.36A11.08,11.08,0,0,0,208.27,94.28Zm5.35,27.1a20.07,20.07,0,0,0,3.78-1.09,4.13,4.13,0,0,0,1.92-6.09A34.63,34.63,0,0,0,206,100.7a1.73,1.73,0,0,0-1.16-.18,7.17,7.17,0,0,0-5.64,5.13c-1.25,4-.19,7.59,2.38,10.71C204.51,119.87,208.51,121.07,213.62,121.38Z"/><path class="cls-1" d="M166.85,114c.14,2.08.13,4.1.42,6.07,1.55,10.52,7.35,17.87,16.91,22.34A45.79,45.79,0,0,0,198,146c.46.05.77.13.81.69.37,5.48-.49,10.67-3.7,15.28-2.63,3.78-6.44,5.69-10.8,6.61-5.84,1.24-11.58.57-17.29-.89-5-1.27-9-4.35-13.39-6.79-4.81-2.67-8-6.85-10.79-11.37a19,19,0,0,1-2.17-7.27c-1.65-10.94,5.13-22.67,15.43-26.71a23.72,23.72,0,0,1,10-1.64C166.36,113.93,166.64,114,166.85,114Z"/><path class="cls-1" d="M126.4,75.21a21.31,21.31,0,0,1,7.56.84c9.75,2.65,17.9,8,25,15a66.64,66.64,0,0,1,9.5,12.17,2.06,2.06,0,0,1,.26,2.12c-.31.66-.29,1.64-.77,2s-1.41-.07-2.11.05c-1.58.26-2.28-.49-3-1.82-5.21-9.64-12.83-17-22-22.91a88.72,88.72,0,0,0-13.71-7.13C126.89,75.46,126.65,75.33,126.4,75.21Z"/></svg>