<?xml version="1.0" encoding="UTF-8"?>
<svg width="15px" height="18px" viewBox="0 0 15 18" version="1.1" xmlns="http://www.w3.org/2000/svg" xmlns:xlink="http://www.w3.org/1999/xlink">
    <title>ic_product_blog@3x</title>
    <g id="web_final" stroke="none" stroke-width="1" fill="none" fill-rule="evenodd">
        <g id="01-01.1-product-dropdown" transform="translate(-908.000000, -86.000000)">
            <g id="Group" transform="translate(903.000000, 83.000000)">
                <rect id="Rectangle" x="0" y="0" width="24" height="24"></rect>
                <g id="Group-6" transform="translate(6.000000, 4.000000)" stroke="#4579D8" stroke-linecap="round" stroke-linejoin="round" stroke-width="1.4">
                    <path d="M8,0 L1.6,0 C0.7163444,0 9.05941988e-14,0.7163444 9.05941988e-14,1.6 L9.05941988e-14,14.4 C9.05941988e-14,15.2836556 0.7163444,16 1.6,16 L11.2,16 C12.0836556,16 12.8,15.2836556 12.8,14.4 L12.8,4.8 L8,0 Z" id="Path"></path>
                    <polyline id="Path" points="8 5.32907052e-15 8 4.8 12.8 4.8"></polyline>
                    <line x1="9.6" y1="8.8" x2="3.2" y2="8.8" id="Path"></line>
                    <line x1="9.6" y1="12" x2="3.2" y2="12" id="Path"></line>
                    <polyline id="Path" points="4.8 5.6 4 5.6 3.2 5.6"></polyline>
                </g>
            </g>
        </g>
    </g>
</svg>