<?xml version="1.0" encoding="UTF-8"?>
<svg width="213px" height="246px" viewBox="0 0 213 246" version="1.1" xmlns="http://www.w3.org/2000/svg" xmlns:xlink="http://www.w3.org/1999/xlink">
    <title>CC9F1053-CB29-4B7B-AD55-464F92EE8D73@3x</title>
    <g id="web_final" stroke="none" stroke-width="1" fill="none" fill-rule="evenodd">
        <g id="01-01-search-engine" transform="translate(-1220.000000, -360.000000)" stroke="#E2E2E2">
            <g id="Group-4-Copy" transform="translate(1221.000000, 361.000000)">
                <path d="M0.0393156156,121.863909 C0.0393156156,102.330264 0.0630807551,82.7970376 6.13725367e-05,63.2642305 C-0.00613000187,61.465851 0.454580157,60.4524552 2.08478534,59.509888 C35.9451058,39.9246928 69.7679024,20.2728599 103.574856,0.594623438 C104.862759,-0.154736281 105.807945,-0.224726814 107.138793,0.550198309 C141.12461,20.3361448 175.135026,40.0797617 209.162536,59.7936221 C210.32411,60.4671238 210.779404,61.1674483 210.779404,62.5509138 C210.738123,102.175614 210.738123,141.800314 210.779404,181.424595 C210.779404,182.806804 210.328279,183.510062 209.16337,184.184821 C175.130023,203.901615 141.115437,223.651518 107.117112,243.430759 C105.904256,244.136113 105.018692,244.224125 103.73871,243.478956 C69.7474727,223.6884 35.7303857,203.943106 1.69578753,184.228408 C0.465420396,183.515091 6.13725367e-05,182.746872 0.00512716944,181.30054 C0.0555759742,161.488609 0.0393156156,141.67584 0.0393156156,121.863909" id="Fill-1"></path>
                <line x1="105.388069" y1="6.51164047e-14" x2="105.388069" y2="244" id="Path-2"></line>
                <line x1="210.779404" y1="61.0410827" x2="0.528154949" y2="183.106738" id="Path-4"></line>
                <line x1="0.528154949" y1="61.0410827" x2="210.779404" y2="183.106738" id="Path-5"></line>
            </g>
        </g>
    </g>
</svg>