<?xml version="1.0" encoding="UTF-8"?>
<svg width="211px" height="131px" viewBox="0 0 211 131" version="1.1" xmlns="http://www.w3.org/2000/svg" xmlns:xlink="http://www.w3.org/1999/xlink">
    <title>B2AC25B8-3C5F-4FC3-BED6-2F67389DF0F6@3x</title>
    <g id="web_final" stroke="none" stroke-width="1" fill="none" fill-rule="evenodd">
        <g id="01-01-search-engine" transform="translate(-401.000000, -669.000000)" fill="#F7F8FB">
            <path d="M401.039316,790.863909 C401.039316,771.330264 401.063081,751.797038 401.000061,732.264231 C400.99387,730.465851 401.45458,729.452455 403.084785,728.509888 C436.945106,708.924693 470.767902,689.27286 504.574856,669.594623 C505.862759,668.845264 506.807945,668.775273 508.138793,669.550198 C542.12461,689.336145 576.135026,709.079762 610.162536,728.793622 C611.32411,729.467124 611.779404,730.167448 611.779404,731.550914 C611.738123,771.175614 611.738123,810.800314 611.779404,850.424595 C611.779404,851.806804 611.328279,852.510062 610.16337,853.184821 C576.130023,872.901615 542.115437,892.651518 508.117112,912.430759 C506.904256,913.136113 506.018692,913.224125 504.73871,912.478956 C470.747473,892.6884 436.730386,872.943106 402.695788,853.228408 C401.46542,852.515091 401.000061,851.746872 401.005127,850.30054 C401.055576,830.488609 401.039316,810.67584 401.039316,790.863909" id="Fill-1"></path>
        </g>
    </g>
</svg>