<?xml version="1.0" encoding="UTF-8"?>
<svg width="16px" height="16px" viewBox="0 0 16 16" version="1.1" xmlns="http://www.w3.org/2000/svg" xmlns:xlink="http://www.w3.org/1999/xlink">
    <title>Group 4</title>
    <g id="web_final" stroke="none" stroke-width="1" fill="none" fill-rule="evenodd">
        <g id="01-05-search-result_web" transform="translate(-750.000000, -182.000000)">
            <rect id="Rectangle" stroke="#EAEBF7" x="90" y="165" width="700" height="148" rx="12"></rect>
            <g id="Group-4" transform="translate(751.000000, 183.000000)" stroke="#83859E" stroke-linecap="round" stroke-linejoin="round" stroke-width="2">
                <rect id="Rectangle" transform="translate(4.550000, 9.450000) scale(-1, 1) translate(-4.550000, -9.450000) " x="1.82964754e-13" y="4.9" width="9.1" height="9.1" rx="2"></rect>
                <path d="M7,9.1 L6.3,9.1 C5.52680135,9.1 4.9,8.47319865 4.9,7.7 L4.9,1.4 C4.9,0.62680135 5.52680135,1.15463195e-14 6.3,1.15463195e-14 L12.6,1.15463195e-14 C13.3731986,1.15463195e-14 14,0.62680135 14,1.4 L14,2.1" id="Path" transform="translate(9.450000, 4.550000) scale(-1, 1) translate(-9.450000, -4.550000) "></path>
            </g>
        </g>
    </g>
</svg>