<?xml version="1.0" encoding="UTF-8"?>
<svg width="24px" height="24px" viewBox="0 0 24 24" version="1.1" xmlns="http://www.w3.org/2000/svg" xmlns:xlink="http://www.w3.org/1999/xlink">
    <title>0B60E344-48BE-4EB1-A5F7-B48A39DF455A</title>
    <g id="web_final" stroke="none" stroke-width="1" fill="none" fill-rule="evenodd">
        <g id="mob_01-11-account-settings" transform="translate(-56.000000, -928.000000)" fill="#FFFFFF" fill-rule="nonzero">
            <g id="Group-4" transform="translate(0.000000, 699.000000)">
                <g id="ic_facebook" transform="translate(56.000000, 229.000000)">
                    <path d="M16,8.82848272 L13.2754811,8.82848272 L13.2754811,6.96029807 C13.2754811,6.2587042 13.7202423,6.09513558 14.0334996,6.09513558 C14.3460442,6.09513558 15.9561654,6.09513558 15.9561654,6.09513558 L15.9561654,3.01080522 L13.308268,3 C10.3688525,3 9.69992872,5.30039329 9.69992872,6.77251087 L9.69992872,8.82848272 L8,8.82848272 L8,12.0067067 L9.69992872,12.0067067 C9.69992872,16.0854895 9.69992872,21 9.69992872,21 L13.2754811,21 C13.2754811,21 13.2754811,16.0370524 13.2754811,12.0067067 L15.6881682,12.0067067 L16,8.82848272 Z" id="Shape-Copy-2"></path>
                </g>
            </g>
        </g>
    </g>
</svg>