<?xml version="1.0" encoding="UTF-8"?>
<svg width="60px" height="60px" viewBox="0 0 60 60" version="1.1" xmlns="http://www.w3.org/2000/svg" xmlns:xlink="http://www.w3.org/1999/xlink">
    <title>ic_github</title>
    <g id="Symbols" stroke="none" stroke-width="1" fill="none" fill-rule="evenodd">
        <g id="footer" transform="translate(-1042.000000, -79.000000)">
            <g id="ic_github" transform="translate(1042.000000, 79.000000)">
                <rect id="Rectangle-Copy-24" fill="#4579D8" x="0" y="0" width="60" height="60" rx="13"></rect>
                <g id="Shape-2" transform="translate(20.000000, 20.973207)" stroke="#FFFFFF" stroke-linecap="round" stroke-linejoin="round" stroke-width="2">
                    <path d="M7,18.0267931 C2,19.5267931 2,15.5267931 0,15.0267931 M14,21.0267931 L14,17.1567931 C14.0758831,16.1921904 13.7334911,15.2415062 13.06,14.5467931 C16.2,14.1967931 19.5,13.0067931 19.5,7.54679311 C19.4997434,6.15062012 18.9626921,4.80799192 18,3.79679311 C18.4558559,2.57529965 18.423624,1.22514248 17.91,0.0267931072 C17.91,0.0267931072 16.73,-0.323206893 14,1.50679311 C11.7080091,0.88561485 9.29199093,0.88561485 7,1.50679311 C4.27,-0.323206893 3.09,0.0267931072 3.09,0.0267931072 C2.576376,1.22514248 2.54414413,2.57529965 3,3.79679311 C2.03012711,4.81549279 1.49252265,6.17025603 1.49992303,7.57679311 C1.49992303,12.9967931 4.8,14.1867931 7.94,14.5767931 C7.27461958,15.2643567 6.93287138,16.2023464 7,17.1567931 L7,21.0267931" id="Shape"></path>
                </g>
            </g>
        </g>
    </g>
</svg>