<?xml version="1.0" encoding="UTF-8"?>
<svg width="18px" height="17px" viewBox="0 0 18 17" version="1.1" xmlns="http://www.w3.org/2000/svg" xmlns:xlink="http://www.w3.org/1999/xlink">
    <title>FA6E65BE-4D5B-4CAA-B92D-5672A5C3C569</title>
    <defs>
        <path d="M13.0585996,5.52779404 C15.4570855,5.52779404 17.2552702,7.09488456 17.2552702,10.4620629 L17.2552702,16.75 L13.6096913,16.75 L13.6096913,10.88347 C13.6096913,9.41044839 13.0833403,8.40450895 11.7633846,8.40450895 C10.7560858,8.40450895 10.1576878,9.08175088 9.8934248,9.73751464 C9.79745274,9.97187134 9.77271206,10.2973063 9.77271206,10.6260038 L9.77271206,16.7497281 L6.1268613,16.7497281 C6.1268613,16.7497281 6.12693369,16.73503 6.12707013,16.7067057 L6.12766319,16.581927 C6.13060903,15.9551283 6.14091944,13.6680699 6.14589054,11.3512985 L6.14705787,10.7473214 L6.14705787,10.7473214 L6.14793285,10.148429 C6.14805154,10.0493947 6.14815595,9.95084028 6.14824505,9.85289975 L6.14830247,8.44658615 C6.14695033,7.11981858 6.14097792,6.08194433 6.1268613,5.78526016 L9.77298394,5.78526016 L9.77298394,7.33902878 C10.2574661,6.59354609 11.1214865,5.52779404 13.0585996,5.52779404 Z M4.11117618,5.78526016 L4.11117618,16.75 L0.466684792,16.75 L0.466684792,5.78526016 L4.11117618,5.78526016 Z M2.31299147,0.5 C3.56035637,0.5 4.32677346,1.3186172 4.35097039,2.39415677 C4.35097039,3.44685879 3.56035637,4.28912916 2.28879455,4.28912916 L2.28879455,4.28912916 L2.26514138,4.28912916 C1.04224527,4.28912916 0.25,3.44685879 0.25,2.39415677 C0.25,1.3186172 1.06589844,0.5 2.31299147,0.5 Z" id="path-1"></path>
    </defs>
    <g id="web_final" stroke="none" stroke-width="1" fill="none" fill-rule="evenodd">
        <g id="mob_01-11-account-settings" transform="translate(-217.000000, -932.000000)">
            <g id="Group-4" transform="translate(0.000000, 699.000000)">
                <g id="img" transform="translate(217.000000, 233.000000)">
                    <mask id="mask-2" fill="white">
                        <use xlink:href="#path-1"></use>
                    </mask>
                    <use id="Mask" fill="#C2D1D9" fill-rule="nonzero" xlink:href="#path-1"></use>
                    <g id="↪🎨" mask="url(#mask-2)" fill="#FFFFFF" fill-rule="nonzero">
                        <g transform="translate(-6.000000, -7.000000)" id="Atoms-/-Colors-/-Black">
                            <rect x="0" y="0" width="30" height="30"></rect>
                        </g>
                    </g>
                </g>
            </g>
        </g>
    </g>
</svg>