<?xml version="1.0" encoding="UTF-8"?>
<svg width="10px" height="8px" viewBox="0 0 10 8" version="1.1" xmlns="http://www.w3.org/2000/svg" xmlns:xlink="http://www.w3.org/1999/xlink">
    <title>ic_hide-show menu@3x</title>
    <g id="web_final" stroke="none" stroke-width="1" fill="none" fill-rule="evenodd">
        <g id="02-01-Journals_open" transform="translate(-217.000000, -98.000000)" fill="#111442" fill-rule="nonzero">
            <g id="Icon-color" transform="translate(210.000000, 90.000000)">
                <path d="M10.9196931,15.6177885 C10.8471105,15.6910093 10.748308,15.7321951 10.6452373,15.7321951 C10.5421666,15.7321951 10.4433641,15.6910093 10.3707815,15.6177885 L7.1700853,12.4230496 C7.06131383,12.3143532 7.00013534,12.1668867 7,12.013071 L7,11.7191241 C7.00178126,11.5656419 7.06271202,11.4187726 7.1700853,11.3091455 L10.3707815,8.11440659 C10.4433641,8.0411857 10.5421666,8 10.6452373,8 C10.748308,8 10.8471105,8.0411857 10.9196931,8.11440659 L11.4686048,8.6636232 C11.5413271,8.73491584 11.5823079,8.83249594 11.5823079,8.93436378 C11.5823079,9.03623162 11.5413271,9.13381173 11.4686048,9.20510437 L8.80135799,11.8660975 L11.4686048,14.5270907 C11.541785,14.5997136 11.5829479,14.698571 11.5829479,14.801699 C11.5829479,14.904827 11.541785,15.0036844 11.4686048,15.0763073 L10.9196931,15.6177885 Z M16.8856569,15.0801729 C16.9588372,15.00755 17,14.9086926 17,14.8055646 C17,14.7024366 16.9588372,14.6035792 16.8856569,14.5309563 L14.2184101,11.8699631 L16.8779258,9.20896994 C16.9506481,9.1376773 16.9916289,9.0400972 16.9916289,8.93822936 C16.9916289,8.83636152 16.9506481,8.73878141 16.8779258,8.66748877 L16.3290141,8.11827216 C16.2564315,8.04505128 16.157629,8.00386558 16.0545583,8.00386558 C15.9514876,8.00386558 15.8526851,8.04505128 15.7801025,8.11827216 L12.5794063,11.313011 C12.472033,11.4226382 12.4111023,11.5695075 12.409321,11.7229896 L12.409321,12.0169366 C12.4094563,12.1707523 12.4706348,12.3182187 12.5794063,12.4269152 L15.7801025,15.621654 C15.8526851,15.6948749 15.9514876,15.7360606 16.0545583,15.7360606 C16.157629,15.7360606 16.2564315,15.6948749 16.3290141,15.621654 L16.8856569,15.0801729 Z"></path>
            </g>
        </g>
    </g>
</svg>