<svg id="lady_bug" data-name="lady bug" xmlns="http://www.w3.org/2000/svg" viewBox="0 0 582.87 293.39"><defs><style>.cls-1{fill:#212990;}</style></defs><title>bug logo</title><path class="cls-1" d="M201.21,171.93c0-.87-.1-1.7-.17-2.39-.09-1-.19-1.73-.19-1.73-.15-1.25-.33-2.4-.54-3.53a83.59,83.59,0,0,0-2.34-9.39c-.17-.58-.36-1.15-.55-1.69-.3-.88-.62-1.67-.89-2.32-.41-1-.71-1.62-.71-1.62a19.31,19.31,0,0,0-3.06-5.09l-.34-.36-26.2,16.62L166,214.24h.75c11.51,0,21.31-5.53,27.69-15.59.29-.44.59-.92.87-1.41l-1.24-1.07h0l1.24,1.07c.42-.74.81-1.48,1.11-2.1h0c.44-.88.72-1.52.72-1.52a47.57,47.57,0,0,0,4.06-19.93C201.24,173.11,201.23,172.52,201.21,171.93ZM188,155.25a4.77,4.77,0,1,1-4.76,4.77A4.77,4.77,0,0,1,188,155.25ZM176.6,205.09a4,4,0,1,1,4-4A4,4,0,0,1,176.6,205.09Zm1-25.67a5.85,5.85,0,1,1,5.85-5.84A5.84,5.84,0,0,1,177.6,179.42Zm19.26,3.32c0,.15-.05.29-.08.44-.06.33-.13.66-.2,1,0,.17-.07.33-.1.49-.07.33-.15.65-.23,1,0,.14-.07.29-.11.43-.11.46-.24.92-.37,1.38h0q-.2.68-.42,1.35c0,.14-.1.28-.14.41q-.17.48-.33.93c-.06.16-.11.31-.17.46l-.36.91c-.06.14-.11.27-.17.4-.18.43-.37.85-.56,1.27l-.89,1.91-1,1.7c-.17.29-.36.56-.54.84a9.11,9.11,0,0,1,.4-18.21,9,9,0,0,1,5.52,1.88Q197,182,196.86,182.74Z"/><path class="cls-1" d="M137.68,143.81l-.35.36a19.85,19.85,0,0,0-3.05,5.09s-.3.63-.72,1.62c-.26.65-.58,1.44-.89,2.32-.18.54-.37,1.11-.54,1.69a83.59,83.59,0,0,0-2.34,9.39c-.21,1.13-.39,2.28-.54,3.53,0,0-.1.71-.19,1.73-.07.69-.13,1.52-.17,2.39,0,.59,0,1.18,0,1.76a47.57,47.57,0,0,0,4.06,19.93s.28.64.71,1.52c.31.62.7,1.36,1.12,2.1.28.49.57,1,.87,1.41,6.38,10.06,16.18,15.59,27.69,15.59h.75l-.19-53.81Zm4.43,11.44a4.77,4.77,0,1,1-4.77,4.77A4.77,4.77,0,0,1,142.11,155.25ZM139,197.63c-.18-.28-.37-.55-.54-.84l-1-1.7-.89-1.91h0c-.2-.42-.38-.84-.56-1.27-.06-.13-.11-.27-.17-.4l-.36-.91c-.06-.15-.11-.3-.17-.46l-.33-.92c0-.14-.09-.28-.14-.42-.15-.45-.29-.89-.42-1.34v0c-.14-.45-.26-.91-.38-1.37,0-.14-.07-.29-.1-.43-.08-.32-.16-.65-.23-1,0-.16-.07-.33-.11-.49-.06-.33-.13-.66-.19-1,0-.15-.06-.29-.08-.44-.08-.48-.15-1-.22-1.44A9.11,9.11,0,1,1,139,197.63Zm14.55,7.46a4,4,0,1,1,4-4A4,4,0,0,1,153.5,205.09Zm-1-25.67a5.85,5.85,0,1,1,5.84-5.84A5.84,5.84,0,0,1,152.5,179.42Z"/><path class="cls-1" d="M187.52,140.12a22.4,22.4,0,0,0-16-21.23l0-5a2.39,2.39,0,0,0-4.77,0v4c-.72-.07-1.45-.1-2.19-.1s-1.47,0-2.18.12l0-4a2.39,2.39,0,0,0-4.77,0v5a22.39,22.39,0,0,0-15.81,21.34,20.88,20.88,0,0,0,.37,3.9l23,14,22-14.14A21.06,21.06,0,0,0,187.52,140.12Z"/><path class="cls-1" d="M225.29,149h20q8.15,0,12.16,3.21t4,9.22a9.88,9.88,0,0,1-8.7,10.09v.07a11.77,11.77,0,0,1,7.29,3.56,10,10,0,0,1,2.59,6.94,10.93,10.93,0,0,1-4.29,9.22Q254,194.63,246,194.63H225.29Zm18.65,19.13q7.6,0,7.6-5.87t-7.6-5.87h-9.39v11.74Zm1.18,19.28a8.91,8.91,0,0,0,5.7-1.55,5.47,5.47,0,0,0,1.9-4.46,5.34,5.34,0,0,0-1.9-4.42,9,9,0,0,0-5.7-1.52H234.55v11.95Z"/><path class="cls-1" d="M303.57,160.08v34.55h-8.43l-.35-5.95q-3.32,6.65-12.09,6.64-5.59,0-8.88-3T270.54,183V160.08H280v20.45c0,2.67.5,4.56,1.52,5.67a5.8,5.8,0,0,0,4.49,1.65,7.8,7.8,0,0,0,5.84-2.31c1.49-1.54,2.24-3.86,2.24-6.94V160.08Z"/><path class="cls-1" d="M343.26,190.62a8.63,8.63,0,0,1,3.07,7.12,9.63,9.63,0,0,1-5.11,8.63q-5.12,3.1-13.47,3.11-8.64,0-12.82-2.28T310.75,201a5.81,5.81,0,0,1,1.59-4.07,9.14,9.14,0,0,1,4.7-2.49,9,9,0,0,1-3.73-2.73,7,7,0,0,1,.07-8.46,8.71,8.71,0,0,1,4-2.7,10.6,10.6,0,0,1-4-3.9,10.76,10.76,0,0,1-1.38-5.49,10.14,10.14,0,0,1,4.24-8.61q4.26-3.14,11.58-3.14a26.06,26.06,0,0,1,7,.9,11.6,11.6,0,0,1,3.48-6.39,9.23,9.23,0,0,1,7-2l1.24,6.77a12.22,12.22,0,0,0-1.45-.07,9,9,0,0,0-4.25.9,5.11,5.11,0,0,0-2.38,2.42,10.29,10.29,0,0,1,5.25,9.26,10.07,10.07,0,0,1-4.25,8.53q-4.24,3.14-11.64,3.14a29.33,29.33,0,0,1-6.22-.62c-1.8.46-2.7,1.5-2.7,3.11a2.43,2.43,0,0,0,1,2.11,5,5,0,0,0,2.9.72h11.68Q340.19,188.13,343.26,190.62ZM336,201.78c1.75-.81,2.63-1.83,2.63-3.08a2.38,2.38,0,0,0-1.21-2.17,8,8,0,0,0-4-.73H324q-5.75,0-5.74,3.11c0,1.29.86,2.29,2.56,3a21,21,0,0,0,7.67,1.07A18.45,18.45,0,0,0,336,201.78Zm-12.68-34.86a5.34,5.34,0,0,0-1.76,4.15,5.41,5.41,0,0,0,1.76,4.21,7.33,7.33,0,0,0,9.12,0,5.37,5.37,0,0,0,1.76-4.21,5.3,5.3,0,0,0-1.76-4.15,7.33,7.33,0,0,0-9.12,0Z"/><path class="cls-1" d="M381.12,164.16q4.67,4.77,4.66,13.19t-4.66,13.2q-4.67,4.77-13,4.77t-13-4.77q-4.67-4.77-4.66-13.2t4.66-13.19q4.67-4.77,13-4.77T381.12,164.16Zm-19.14,5q-2.1,2.73-2.1,8.18t2.1,8.19a8.21,8.21,0,0,0,12.23,0q2.12-2.73,2.11-8.19t-2.11-8.18a8.21,8.21,0,0,0-12.23,0Z"/><path class="cls-1" d="M426.75,160.08v34.55h-8.42l-.35-5.95q-3.32,6.65-12.09,6.64-5.59,0-8.88-3T393.73,183V160.08h9.46v20.45q0,4,1.52,5.67a5.82,5.82,0,0,0,4.5,1.65,7.76,7.76,0,0,0,5.83-2.31c1.5-1.54,2.25-3.86,2.25-6.94V160.08Z"/><path class="cls-1" d="M460.4,192.48a12.39,12.39,0,0,1-4.18,2.08,18.43,18.43,0,0,1-5.29.76q-11.54,0-11.53-10.44V167.13h-6.29v-7h6.29v-7.94l9.46-2.63v10.57h11.2v7h-11.2v16.23q0,4.77,4.77,4.77A8,8,0,0,0,459,186.2Z"/></svg>