<svg id="lady_bug" data-name="lady bug" xmlns="http://www.w3.org/2000/svg" viewBox="0 0 300.66 306.34"><defs><style>.cls-1{fill:#212990;}</style></defs><title>bug logo</title><path class="cls-1" d="M238.1,168.29c-.07-1.57-.18-3.07-.3-4.32-.17-1.84-.34-3.11-.34-3.11-.27-2.25-.59-4.34-1-6.36a148.25,148.25,0,0,0-4.22-16.95c-.31-1-.64-2.06-1-3-.56-1.59-1.12-3-1.6-4.19-.75-1.78-1.29-2.92-1.29-2.92-3-6.56-5.4-9.07-5.51-9.18l-.63-.65-47.23,30-.34,97H176c20.75,0,38.43-10,49.93-28.1.54-.79,1.07-1.67,1.57-2.55L225.28,212h0l2.24,1.92c.76-1.32,1.46-2.66,2-3.78h0c.79-1.59,1.3-2.74,1.3-2.74a85.8,85.8,0,0,0,7.31-35.93C238.16,170.42,238.14,169.34,238.1,168.29Zm-23.82-30.07a8.6,8.6,0,1,1-8.6,8.59A8.59,8.59,0,0,1,214.28,138.22Zm-20.54,89.85a7.18,7.18,0,1,1,7.18-7.18A7.17,7.17,0,0,1,193.74,228.07Zm1.81-46.28a10.54,10.54,0,1,1,10.53-10.53A10.54,10.54,0,0,1,195.55,181.79Zm34.71,6c0,.26-.1.53-.15.8-.11.59-.22,1.19-.35,1.78l-.18.89c-.13.59-.27,1.17-.42,1.76-.06.26-.12.52-.19.78-.21.83-.43,1.66-.67,2.48h0c-.24.82-.5,1.63-.76,2.43-.08.26-.17.5-.26.75-.19.57-.38,1.13-.59,1.68-.1.28-.2.55-.31.82-.21.56-.43,1.1-.65,1.65l-.3.72c-.32.77-.66,1.54-1,2.29L222.81,210l-1.87,3.08c-.31.51-.65,1-1,1.51a16.42,16.42,0,1,1,10.68-29.45C230.53,186,230.41,186.91,230.26,187.77Z"/><path class="cls-1" d="M123.57,117.58l-.63.65c-.1.11-2.5,2.62-5.5,9.18,0,0-.55,1.14-1.29,2.92-.49,1.16-1.05,2.6-1.61,4.19-.33,1-.67,2-1,3a148.17,148.17,0,0,0-4.23,16.95c-.38,2-.7,4.11-1,6.36,0,0-.17,1.27-.34,3.11-.12,1.25-.23,2.75-.29,4.32,0,1.05-.07,2.13,0,3.17A85.81,85.81,0,0,0,115,207.39s.51,1.15,1.29,2.74c.56,1.12,1.25,2.46,2,3.78.51.88,1,1.76,1.57,2.55,11.51,18.14,29.18,28.1,49.93,28.1h1.35l-.35-97Zm8,20.64a8.6,8.6,0,1,1-8.6,8.59A8.59,8.59,0,0,1,131.55,138.22Zm-5.7,76.4c-.32-.51-.65-1-1-1.51L123,210l-1.6-3.43h0c-.35-.75-.68-1.51-1-2.28l-.3-.73c-.22-.54-.44-1.08-.65-1.63-.1-.28-.21-.56-.31-.83-.2-.56-.4-1.11-.59-1.67-.08-.25-.17-.5-.26-.76-.26-.8-.51-1.6-.75-2.41v0c-.24-.82-.46-1.64-.67-2.47-.07-.26-.13-.52-.19-.78-.14-.58-.28-1.17-.41-1.76-.07-.3-.13-.59-.19-.89-.13-.59-.24-1.19-.35-1.78l-.15-.8c-.15-.86-.26-1.73-.39-2.6a16.42,16.42,0,1,1,10.68,29.45Zm26.24,13.45a7.18,7.18,0,1,1,7.18-7.18A7.18,7.18,0,0,1,152.09,228.07Zm-1.81-46.28a10.54,10.54,0,1,1,10.53-10.53A10.54,10.54,0,0,1,150.28,181.79Z"/><path class="cls-1" d="M213.43,110.93a40.41,40.41,0,0,0-28.8-38.28l0-8.93a4.31,4.31,0,0,0-8.61,0L176,71c-1.3-.12-2.62-.17-4-.17s-2.65.07-3.94.2l0-7.22a4.31,4.31,0,0,0-8.61,0l0,8.93A40.38,40.38,0,0,0,131,111.22a39.9,39.9,0,0,0,.66,7l41.53,25.21L212.8,118A39.81,39.81,0,0,0,213.43,110.93Z"/></svg>