<?xml version="1.0" encoding="UTF-8"?>
<svg width="84px" height="131px" viewBox="0 0 84 131" version="1.1" xmlns="http://www.w3.org/2000/svg" xmlns:xlink="http://www.w3.org/1999/xlink">
    <title>B791179B-1EF4-40D7-BDA0-F76277FF7C6A@3x</title>
    <g id="web_final" stroke="none" stroke-width="1" fill="none" fill-rule="evenodd">
        <g id="mob_01-04-menu" transform="translate(0.000000, -598.000000)" fill="#F7F8FB">
            <path d="M-29.9787693,663.426935 C-29.9787693,652.939609 -29.965916,642.452508 -30,631.965632 C-30.0033486,631.000109 -29.7541735,630.456031 -28.8724771,629.949981 C-10.559124,619.434979 7.73393435,608.884199 26.0184238,598.319245 C26.7149865,597.916924 27.22619,597.879347 27.945979,598.295393 C46.327207,608.918176 64.7217393,619.518233 83.1255171,630.102314 C83.7537539,630.463907 84,630.839901 84,631.582663 C83.9776733,652.85658 83.9776733,674.130497 84,695.404188 C84,696.146276 83.7560089,696.523845 83.1259681,696.886113 C64.7190333,707.471769 46.322246,718.0752 27.9342531,728.694383 C27.27828,729.073077 26.7993227,729.120329 26.1070444,728.720259 C7.72288495,718.095001 -10.6752554,707.494045 -29.0828666,696.909514 C-29.7483106,696.526545 -30,696.114099 -29.9972602,695.337585 C-29.9699749,684.700852 -29.9787693,674.063668 -29.9787693,663.426935" id="Fill-1"></path>
        </g>
    </g>
</svg>