<svg id="lady_bug" data-name="lady bug" xmlns="http://www.w3.org/2000/svg" viewBox="0 0 300.66 306.34"><defs><style>.cls-1{fill:#212990;}</style></defs><title>bug logo</title><path class="cls-1" d="M274,96.4c-.7,0-1.86,1-2.57,1.57a108.3,108.3,0,0,0-27.4,36.12c-.49,1-2.52,4.59-2.52,4.59l-3.21-.74a22.44,22.44,0,0,1,.65-3.87l.69-2c3-8.87,6.19-18.05,12-25.91,2.39-3.24,4.85-6.51,7.22-9.67,1.52-2,3-4,4.54-6.07,1.36-1.82,1.44-2.77.32-3.78a2.16,2.16,0,0,0-1.56-.68,3.61,3.61,0,0,0-2.26,1.47c-.52.61-1.06,1.22-1.59,1.82-2.69,3.08-5.48,6.27-7.92,9.6a106,106,0,0,0-15.81,32.86c-1.13,3.89-3.23,5.84-7,6.53-17.8,3.26-37.2,7-61.06,11.64a13.21,13.21,0,0,1-9.77-1.93c-14.14-8.26-26-15.13-38.12-21.82-3.21-1.78-5.4-2.31-6.7-1.62s-2.11,2.82-2.46,6.65c-.85,9.26-1.51,17.67-2,25.7-.22,3.44-1.84,5.23-5.1,5.62-2.15.26-4.33.71-6.45,1.13l-6.31,1.27c-8.89,1.79-18.08,3.63-27.1,5.58a4.31,4.31,0,0,0-2.72,2.05,4.72,4.72,0,0,0,1.86,2.26,62.69,62.69,0,0,0,6.13,2.8c.95.39,1.9.78,2.84,1.19a20.65,20.65,0,0,1,2.61,1.32c.56.35,16.66,7.39,18.5,8.19,1.18.52,2.36,1,3.55,1.53,1,.42,2.22.87,2.71.63S98.83,189,99.1,188l.88-3.22c.72-2.6,1.43-5.21,2.16-7.81a11.86,11.86,0,0,1,.63-1.64c.09-.23.19-.45.28-.68l.27-.67,2.2.4,0,.78c0,.25,0,.5,0,.75,0,.54,0,1.1-.1,1.66-.22,2.27-.46,4.54-.69,6.81-.51,4.84-1,9.84-1.32,14.76-.56,9.55-4.53,15-12.47,17.28a3.71,3.71,0,0,0-2.35,1.6,3.48,3.48,0,0,0-.14,2.71A3.8,3.8,0,0,0,90,223.08a3.37,3.37,0,0,0,2.68,0,32.37,32.37,0,0,0,9.13-4.36c6.8-4.93,8.08-12.45,8.45-19.85.09-1.74.31-3,1.15-3.68s2-.77,3.76-.61l5.52.47c4.33.35,8.81.72,13.2,1.29a83.29,83.29,0,0,0,32.22-2.45l3.29-.86c3.82-1,7.64-2,11.46-3,1.78-.46,2.91-.6,3.8-.06s1.3,1.79,1.72,3.68l.28,1.26a71.68,71.68,0,0,0,3.62,12.6c2.29,5.36,6.82,9,13.09,10.43,2.16.5,3.46-.15,4.09-2.05.71-2.1.1-3.52-1.92-4.48-.53-.25-1.08-.46-1.55-.63a13.06,13.06,0,0,1-8.74-9.48l-.29-1.11c-.62-2.35-1.25-4.79-1.65-7.24-1.12-7-.82-7.65,5.49-10.94.51-.27,1-.54,1.52-.83,3.81-2.14,4.68-1.91,7.17,1.88l2.13,3.25c2.66,4.08,5.41,8.3,8.31,12.29,4.88,6.72,11.64,9.81,20.09,9.18a5.2,5.2,0,0,0,3.65-1.46,3.08,3.08,0,0,0,.66-2.35,3.39,3.39,0,0,0-1.06-2.42,5,5,0,0,0-3.66-.74,15,15,0,0,1-14.43-6.73c-2.87-4.07-5.74-8.28-8.76-12.87-4.19-6.39-4-7.28,2.22-11.89a1.84,1.84,0,0,1,.67-.29l.28-.08.59-.2.39.5c.59.78,1.18,1.58,1.76,2.38a30.82,30.82,0,0,0,4.43,4.78c4.83,4.27,9.21,5.46,12.93,3.91,4.54-1.9,7-5.82,7.24-11.71.18-4,.11-8.08.05-12-.05-2.76-.09-5.6-.06-8.41a19.12,19.12,0,0,1,1.12-6.6,90,90,0,0,1,15.77-27c2.47-2.86,5.19-5.57,7.82-8.19,1.87-1.86,3.8-3.78,5.62-5.73a3.88,3.88,0,0,0,1-2.9A3.28,3.28,0,0,0,274,96.4ZM113.67,160.5l1.54-16.91,2,3.43,5.93,11Zm61.15,20.34c-.57,1.94-2.17,3.52-4.74,4.71a14.15,14.15,0,0,1-6,1.36,15.76,15.76,0,0,1-8.51-2.71,64.16,64.16,0,0,1-16.65-15.92c-6.3-8.35-12-17.92-18.41-31l-.25-.53L117.6,132s7.41,4.9,8.74,5.63c2.87,1.57,5.83,3.2,8.69,4.89,10.06,5.94,21.66,13.33,31.44,23.2a52.2,52.2,0,0,1,7.13,9.09C175,177,175.37,179,174.82,180.84Z"/></svg>