<?xml version="1.0" encoding="UTF-8"?>
<svg width="32px" height="32px" viewBox="0 0 32 32" version="1.1" xmlns="http://www.w3.org/2000/svg" xmlns:xlink="http://www.w3.org/1999/xlink">
    <title>ic_menu@3x</title>
    <g id="ic_menu" stroke="none" stroke-width="1" fill="none" fill-rule="evenodd">
        <g id="iconfinder_Menu1_1031511" transform="translate(3.000000, 7.000000)" fill="#121313" fill-rule="nonzero">
            <path d="M0.84375,1.6875 L26.15625,1.6875 C26.622,1.6875 27,1.3095 27,0.84375 C27,0.378 26.622,0 26.15625,0 L0.84375,0 C0.378,0 0,0.378 0,0.84375 C0,1.3095 0.378,1.6875 0.84375,1.6875 Z" id="Path"></path>
            <path d="M26.15625,8.4375 L0.84375,8.4375 C0.378,8.4375 0,8.8155 0,9.28125 C0,9.747 0.378,10.125 0.84375,10.125 L26.15625,10.125 C26.622,10.125 27,9.747 27,9.28125 C27,8.8155 26.622,8.4375 26.15625,8.4375 Z" id="Path"></path>
            <path d="M26.15625,16.875 L0.84375,16.875 C0.378,16.875 0,17.253 0,17.71875 C0,18.1845 0.378,18.5625 0.84375,18.5625 L26.15625,18.5625 C26.622,18.5625 27,18.1845 27,17.71875 C27,17.253 26.622,16.875 26.15625,16.875 Z" id="Path"></path>
        </g>
        <rect id="Rectangle" x="0" y="0" width="32" height="32"></rect>
    </g>
</svg>