<?xml version="1.0" encoding="UTF-8"?>
<svg width="14px" height="11px" viewBox="0 0 14 11" version="1.1" xmlns="http://www.w3.org/2000/svg" xmlns:xlink="http://www.w3.org/1999/xlink">
    <title>Fill 1</title>
    <g id="Symbols" stroke="none" stroke-width="1" fill="none" fill-rule="evenodd">
        <g id="list/entriesrow-2" transform="translate(-305.000000, -97.000000)">
            <rect id="row-bg" x="0" y="0" width="336" height="126"></rect>
            <g id="Group-3" transform="translate(305.000000, 97.000000)" fill="#212990">
                <path d="M5.41556632,1.43457627 C5.41556632,1.69374387 5.42755738,1.95355939 5.4120472,2.21194948 C5.39771007,2.45142034 5.49507226,2.52165476 5.73007096,2.53863024 C7.50201069,2.66730695 9.12771163,3.20728264 10.5455241,4.2953978 C12.4362014,5.74634759 13.573788,7.64202898 13.9202253,9.99825119 C13.9516367,10.2115461 14.0213673,10.4311907 13.9936054,10.6374881 C13.9752278,10.7745877 13.8306834,10.975961 13.7144223,10.9973423 C13.5908622,11.020149 13.3380073,10.8917315 13.3063352,10.7822332 C12.8785672,9.30847663 11.6888456,8.64513717 10.4150561,8.09751603 C8.96648401,7.47460671 7.43579919,7.18459817 5.85793215,7.14986972 C5.41830341,7.14028051 5.41713037,7.14688929 5.41556632,7.59835924 C5.41400227,8.05190254 5.40500897,8.505705 5.4179124,8.95885954 C5.42651468,9.26208563 5.31468501,9.48911645 5.04723225,9.62245818 C4.76935248,9.76085368 4.60317203,9.55637044 4.43386348,9.38817067 C3.05867142,8.0218391 1.68347936,6.65537794 0.309460333,5.28788011 C-0.100451432,4.87995031 -0.101494133,4.78988957 0.29655691,4.39388148 C1.67826585,3.0188678 3.06114784,1.64476119 4.44389948,0.270784177 C4.60564845,0.109970683 4.76583336,-0.0836275122 5.03002769,0.0384404262 C5.30034788,0.163229624 5.43094616,0.384429169 5.41882476,0.689599015 C5.40904944,0.937622405 5.41686969,1.18616413 5.41686969,1.43457627 L5.41556632,1.43457627 Z" id="Fill-1"></path>
            </g>
        </g>
    </g>
</svg>