<?xml version="1.0" encoding="UTF-8"?>
<svg width="105px" height="244px" viewBox="0 0 105 244" version="1.1" xmlns="http://www.w3.org/2000/svg" xmlns:xlink="http://www.w3.org/1999/xlink">
    <title>EA406591-1646-4BB8-861D-1C4F6C105F50@3x</title>
    <g id="web_final" stroke="none" stroke-width="1" fill="none" fill-rule="evenodd">
        <g id="01-01-search-engine" transform="translate(-1335.000000, -145.000000)" fill="#F7F8FB">
            <path d="M1335.03932,266.863909 C1335.03932,247.330264 1335.06308,227.797038 1335.00006,208.264231 C1334.99387,206.465851 1335.45458,205.452455 1337.08479,204.509888 C1370.94511,184.924693 1404.7679,165.27286 1438.57486,145.594623 C1439.86276,144.845264 1440.80794,144.775273 1442.13879,145.550198 C1476.12461,165.336145 1510.13503,185.079762 1544.16254,204.793622 C1545.32411,205.467124 1545.7794,206.167448 1545.7794,207.550914 C1545.73812,247.175614 1545.73812,286.800314 1545.7794,326.424595 C1545.7794,327.806804 1545.32828,328.510062 1544.16337,329.184821 C1510.13002,348.901615 1476.11544,368.651518 1442.11711,388.430759 C1440.90426,389.136113 1440.01869,389.224125 1438.73871,388.478956 C1404.74747,368.6884 1370.73039,348.943106 1336.69579,329.228408 C1335.46542,328.515091 1335.00006,327.746872 1335.00513,326.30054 C1335.05558,306.488609 1335.03932,286.67584 1335.03932,266.863909" id="Fill-1-Copy"></path>
        </g>
    </g>
</svg>