<?xml version="1.0" encoding="UTF-8"?>
<svg width="20px" height="20px" viewBox="0 0 20 20" version="1.1" xmlns="http://www.w3.org/2000/svg" xmlns:xlink="http://www.w3.org/1999/xlink">
    <title>ic_search@1x</title>
    <g id="web_final" stroke="none" stroke-width="1" fill="none" fill-rule="evenodd">
        <g id="01-01-search_suggested" transform="translate(-397.000000, -362.000000)" fill="#111442" fill-rule="nonzero">
            <g id="search" transform="translate(387.000000, 352.000000)">
                <path d="M29.8437461,28.0753087 L27.3437461,25.5692815 C27.1817839,25.4033 27.0014533,25.2563424 26.8062461,25.1312541 L25.5562461,24.2677144 C28.127401,21.0824554 28.1512788,16.5387319 25.613743,13.3265614 C23.0762071,10.1143909 18.6544872,9.09105234 14.9663708,10.8623922 C11.2782543,12.633732 9.30804314,16.7270067 10.2221599,20.7188779 C11.1362767,24.7107491 14.6907577,27.5358475 18.7812461,27.5216321 C20.7663042,27.5222104 22.6925649,26.8469858 24.2437461,25.6068267 L25.1812461,26.8583335 C25.2924459,27.0195095 25.4179556,27.1703027 25.5562461,27.308876 L28.0562461,29.8149032 C28.1736002,29.9333662 28.3333476,30 28.5,30 C28.6666445,30 28.8263919,29.9333662 28.9437461,29.8149032 L29.8187461,28.9388484 C30.0560351,28.7038577 30.0670419,28.3236658 29.8437461,28.0753087 Z M18.7812461,25.0186185 C15.3294664,25.0186185 12.5312461,22.2170251 12.5312461,18.7610845 C12.5312461,15.3051439 15.3294664,12.5035505 18.7812461,12.5035505 C22.2330257,12.5035505 25.0312461,15.3051439 25.0312461,18.7610845 C25.0312461,20.4206857 24.3727658,22.012314 23.2006634,23.1858292 C22.0285611,24.3593445 20.4388491,25.0186185 18.7812461,25.0186185 Z" id="Icon-color"></path>
            </g>
        </g>
    </g>
</svg>