<svg id="lady_bug" data-name="lady bug" xmlns="http://www.w3.org/2000/svg" viewBox="0 0 491.59 254.56"><defs><style>.cls-1{fill:#212990;}</style></defs><title>bug logo</title><path class="cls-1" d="M167.19,138.13c-5.51-3.84-11-7.74-16.52-11.57a3.74,3.74,0,0,0-2-.59c-4.13,0-8.27,0-12.41,0-.41-.39-.82-.76-1.25-1.12,3.17-.59,6.35-1.16,9.51-1.82a3.13,3.13,0,0,0,1.79-1.15c3.06-4.51,6-9.07,9-13.64a5.12,5.12,0,0,0,1.17-2.49c-.19-4.76-.56-9.52-.88-14.28a9.22,9.22,0,0,0-.42,2.29c-.25,3.64-.44,7.29-.75,10.93a4.71,4.71,0,0,1-.88,2.31c-2.82,3.86-5.78,7.62-8.57,11.5a5,5,0,0,1-3.92,2.4c-1.79.14-3.55.63-5.33.94-1.31.24-2.63.45-3.95.67l-.74-.44c3.11-1.18,6.21-2.38,9.34-3.52a1.91,1.91,0,0,0,1.36-1.62q2.61-12.78,5.29-25.56a2.77,2.77,0,0,0-.65-2.56c-3.58-4.48-7.1-9-10.65-13.51l-6.34-8a3,3,0,0,0,.53,1.35c4.49,6.87,9,13.76,13.5,20.61a3.55,3.55,0,0,1,.59,3q-2.46,11.1-4.82,22.21a1.77,1.77,0,0,1-1.28,1.53c-1.71.61-3.42,1.26-5.12,1.91a15.5,15.5,0,0,0-6.71-19.1l-1-1.73c-.32-.52-.58-1.07-1-1.92v2.66a15.35,15.35,0,0,0-5.65-1.07,15.56,15.56,0,0,0-6.84,1.59c.12-1,.21-1.81.32-2.69-.88,1.38-1.73,2.72-2.57,4.06a15.53,15.53,0,0,0-5.71,17.14c-.76-.29-1.53-.58-2.3-.85a1.8,1.8,0,0,1-1.28-1.53Q97.65,103.3,95.21,92.2a3.54,3.54,0,0,1,.58-3c4.54-6.85,9-13.74,13.5-20.61a2.79,2.79,0,0,0,.53-1.35l-6.34,8c-3.54,4.51-7.06,9-10.64,13.51a2.75,2.75,0,0,0-.65,2.56q2.7,12.77,5.28,25.56a1.91,1.91,0,0,0,1.37,1.62c2.3.84,4.59,1.71,6.88,2.59.19.26.38.51.58.76l-.58.32-2.24-.38c-1.78-.31-3.54-.8-5.32-.94a5,5,0,0,1-3.92-2.4c-2.79-3.88-5.75-7.64-8.58-11.5a4.8,4.8,0,0,1-.87-2.31c-.31-3.64-.51-7.29-.76-10.93a8.78,8.78,0,0,0-.42-2.29c-.31,4.76-.69,9.52-.88,14.28a5.14,5.14,0,0,0,1.18,2.49c3,4.57,6,9.13,9,13.64A3.1,3.1,0,0,0,94.72,123c2.56.53,5.14,1,7.71,1.48-.56.47-1.11,1-1.64,1.46-3.41,0-6.82,0-10.23,0a3.77,3.77,0,0,0-2,.59c-5.52,3.83-11,7.73-16.52,11.57a2,2,0,0,0-1,2c.52,8.24,1,16.48,1.68,24.75.07-.83.17-1.66.2-2.5q.39-10.14.73-20.29a2.2,2.2,0,0,1,1.09-2c5.1-3.49,10.14-7.07,15.26-10.54a5,5,0,0,1,2.59-.82c1.87,0,3.75,0,5.63,0a30,30,0,0,0-3.42,5.36l-5.7,2.24a2,2,0,0,0-1.42,1.73q-1.53,8.58-3.16,17.16c-.9,4.69-1.89,9.37-2.78,14.06a2.2,2.2,0,0,0,.26,1.61q10.73,13.35,21.52,26.63l.26-.17L96.49,186.5q-5.34-7.92-10.7-15.81a3,3,0,0,1-.52-2.52q2.72-13.38,5.34-26.79a2.64,2.64,0,0,1,1.93-2.26l.34-.13a32,32,0,0,0-1.3,9c0,16.24,12.06,29.4,27,29.4s26.95-13.16,26.95-29.4a31.74,31.74,0,0,0-1.59-10c.93.36,1.87.71,2.81,1.05a2.66,2.66,0,0,1,1.94,2.26q2.61,13.41,5.34,26.79a3,3,0,0,1-.53,2.52q-5.37,7.89-10.69,15.81c-2.44,3.61-4.86,7.24-7.3,10.85l.26.17q10.78-13.31,21.52-26.63a2.2,2.2,0,0,0,.27-1.61c-.9-4.69-1.89-9.37-2.78-14.06q-1.65-8.58-3.17-17.16a2,2,0,0,0-1.41-1.73c-2.83-1.09-5.64-2.2-8.46-3.32a29.17,29.17,0,0,0-2.83-4.26c2.6,0,5.2-.06,7.8,0a5.08,5.08,0,0,1,2.59.82c5.11,3.47,10.16,7.05,15.26,10.54a2.19,2.19,0,0,1,1.08,2c.22,6.76.48,13.53.73,20.29,0,.84.14,1.67.21,2.5.69-8.27,1.16-16.51,1.68-24.75A2,2,0,0,0,167.19,138.13Zm-38.63-18.56c2.32-7.56.5-13.57-5.89-18.23C129.83,102.72,133.28,113.33,128.56,119.57Zm10.69,31.06c-1.3,8.46-8.42,16.74-15.27,17.79a27.1,27.1,0,0,0,9.88-36C137.66,134.31,140.36,143.45,139.25,150.63Z"/><path class="cls-1" d="M190.15,115h20q8.15,0,12.16,3.22t4,9.22a9.87,9.87,0,0,1-8.71,10.09v.07a11.76,11.76,0,0,1,7.29,3.55,10,10,0,0,1,2.59,6.95,11,11,0,0,1-4.28,9.22q-4.29,3.28-12.37,3.28H190.15Zm18.66,19.14q7.59,0,7.6-5.87t-7.6-5.87h-9.4v11.74ZM210,153.39q3.79,0,5.7-1.56a5.4,5.4,0,0,0,1.9-4.45,5.34,5.34,0,0,0-1.9-4.43,9,9,0,0,0-5.7-1.52H199.41v12Z"/><path class="cls-1" d="M268.43,126v34.54H260l-.34-5.94q-3.32,6.63-12.09,6.63-5.59,0-8.88-3t-3.28-9.36V126h9.46v20.45q0,4,1.52,5.66a5.78,5.78,0,0,0,4.49,1.66,7.78,7.78,0,0,0,5.84-2.31c1.5-1.55,2.25-3.86,2.25-7V126Z"/><path class="cls-1" d="M308.12,156.56a8.63,8.63,0,0,1,3.08,7.12c0,3.69-1.71,6.56-5.11,8.64s-7.9,3.11-13.48,3.11q-8.64,0-12.81-2.28c-2.79-1.52-4.18-3.6-4.18-6.22a5.82,5.82,0,0,1,1.59-4.08,9.14,9.14,0,0,1,4.69-2.49,9,9,0,0,1-3.73-2.72,7,7,0,0,1,.07-8.47,8.74,8.74,0,0,1,4-2.69,10.34,10.34,0,0,1-5.39-9.4,10.13,10.13,0,0,1,4.25-8.6q4.25-3.15,11.57-3.14a26.42,26.42,0,0,1,7,.89,11.68,11.68,0,0,1,3.49-6.39,9.25,9.25,0,0,1,7-2l1.25,6.78a10.57,10.57,0,0,0-1.45-.07,9.08,9.08,0,0,0-4.25.89,5.18,5.18,0,0,0-2.39,2.42,10.23,10.23,0,0,1,5.25,9.26,10,10,0,0,1-4.25,8.53q-4.24,3.15-11.64,3.15a29.33,29.33,0,0,1-6.22-.62c-1.79.46-2.69,1.49-2.69,3.1a2.38,2.38,0,0,0,1,2.11,4.93,4.93,0,0,0,2.9.73h11.67Q305.05,154.08,308.12,156.56Zm-7.29,11.16c1.75-.8,2.63-1.83,2.63-3.07a2.38,2.38,0,0,0-1.21-2.18,8.16,8.16,0,0,0-4-.72h-9.4c-3.82,0-5.73,1-5.73,3.11,0,1.28.85,2.29,2.55,3a21,21,0,0,0,7.67,1.07A18.25,18.25,0,0,0,300.83,167.72Zm-12.67-34.85A5.3,5.3,0,0,0,286.4,137a5.39,5.39,0,0,0,1.76,4.22,6.48,6.48,0,0,0,4.52,1.59,6.62,6.62,0,0,0,4.6-1.59A5.43,5.43,0,0,0,299,137a5.33,5.33,0,0,0-1.76-4.14,6.62,6.62,0,0,0-4.6-1.59A6.48,6.48,0,0,0,288.16,132.87Z"/><path class="cls-1" d="M346,130.1q4.66,4.77,4.67,13.2T346,156.5c-3.1,3.17-7.45,4.76-13,4.76s-9.91-1.59-13-4.76-4.67-7.58-4.67-13.2,1.56-10,4.67-13.2,7.45-4.76,13-4.76S342.88,126.92,346,130.1Zm-19.13,5q-2.12,2.73-2.11,8.19t2.11,8.19a8.21,8.21,0,0,0,12.23,0q2.1-2.73,2.1-8.19t-2.1-8.19a8.21,8.21,0,0,0-12.23,0Z"/><path class="cls-1" d="M391.62,126v34.54h-8.43l-.35-5.94q-3.31,6.63-12.09,6.63-5.6,0-8.87-3t-3.29-9.36V126h9.47v20.45q0,4,1.52,5.66a5.77,5.77,0,0,0,4.49,1.66,7.8,7.8,0,0,0,5.84-2.31c1.49-1.55,2.24-3.86,2.24-7V126Z"/><path class="cls-1" d="M425.26,158.43a12.15,12.15,0,0,1-4.17,2.07,18.19,18.19,0,0,1-5.29.76q-11.54,0-11.54-10.43V133.07H398v-7h6.29v-8l9.47-2.62V126h11.19v7H413.73v16.24q0,4.77,4.76,4.77a8,8,0,0,0,5.32-1.94Z"/></svg>