<?xml version="1.0" encoding="UTF-8"?>
<svg width="27px" height="19px" viewBox="0 0 27 19" version="1.1" xmlns="http://www.w3.org/2000/svg" xmlns:xlink="http://www.w3.org/1999/xlink">
    <title>E0D5253C-39A7-4AF0-AF20-3AA925341C29</title>
    <defs>
        <path d="M21.134497,3.1161036 L21.087988,3.0850976 C20.1268018,2.17042042 18.9950826,1.73633634 17.6928303,1.79834835 L17.6463213,1.70533033 L17.6773273,1.68982733 C18.8555556,1.42627628 19.5531907,1.14722222 19.7702327,0.837162162 C19.8322447,0.589114114 19.7547297,0.449587087 19.4911787,0.418581081 C18.9020646,0.496096096 18.3439565,0.62012012 17.8633634,0.821659159 C18.4834835,0.418581081 18.7160285,0.139527027 18.5765015,0 C17.9718844,0.015503003 17.3052553,0.325563063 16.6231231,0.945683183 C16.8711712,0.511599099 16.9796922,0.263551051 16.9176802,0.232545045 C16.5766141,0.449587087 16.2975601,0.697635135 16.049512,0.961186186 C15.5224099,1.5503003 15.1038288,2.09290541 14.7782658,2.5890015 L14.7627628,2.62000751 C13.9411036,3.96876877 13.3519895,5.31753003 13.0109234,6.6972973 L12.8868994,6.80581832 L12.8558934,6.82132132 C12.3597973,6.2012012 11.7551802,5.6740991 11.042042,5.25551802 C10.2048799,4.69740991 9.21268769,4.18581081 8.06546547,3.67421171 C6.82522523,3.02308559 5.55397898,2.49598348 4.28273273,2.0774024 C4.26722973,3.51918168 4.98036787,4.6509009 6.36013514,5.48806306 L6.36013514,5.50356607 C5.87954204,5.50356607 5.39894895,5.58108108 4.93385886,5.72060811 C5.02687688,7.05386637 5.97256006,7.96854354 7.75540541,8.46463964 L7.7399024,8.49564565 C7.04226727,8.44913664 6.46865616,8.69718468 6.01906907,9.20878378 C6.60818318,10.356006 7.64688438,10.8986111 9.15067568,10.8676051 C8.85611862,11.0226351 8.62357357,11.1776652 8.46854354,11.3637012 C8.18948949,11.6582583 8.09647147,11.9993243 8.18948949,12.3868994 C8.51505255,12.9760135 9.08866366,13.2395646 9.94132883,13.1930556 L9.98783784,13.2550676 L9.97233483,13.2860736 C8.49954955,14.8053679 6.7167042,15.4875 4.6393018,15.347973 L4.6082958,15.363476 C3.33704955,15.347973 1.97278529,14.7433559 0.5,13.5341216 C1.97278529,15.658033 3.94166667,17.1928303 6.37563814,18.1695195 C9.15067568,19.0841967 11.9412162,19.1617117 14.7162538,18.3710586 L14.7627628,18.3710586 C17.4602853,17.5959084 19.7392267,15.9835961 21.6305931,13.5651276 C22.4987613,12.3093844 23.0413664,11.1001502 23.2584084,9.93742492 C24.6691817,9.98393393 25.6768769,9.58085586 26.3125,8.71268769 L26.296997,8.68168168 C25.8164039,8.85221471 24.9017267,8.80570571 23.5529655,8.52665165 L23.5529655,8.37162162 C25.0412538,8.20108859 25.9249249,7.7204955 26.203979,6.92984234 C25.1652778,7.33292042 24.1420796,7.34842342 23.1343844,6.96084835 C22.9483483,5.56557808 22.2817192,4.27882883 21.134497,3.1161036" id="path-1"></path>
    </defs>
    <g id="web_final" stroke="none" stroke-width="1" fill="none" fill-rule="evenodd">
        <g id="mob_01-11-account-settings" transform="translate(-297.000000, -930.000000)">
            <g id="Group-4" transform="translate(0.000000, 699.000000)">
                <g id="img" transform="translate(297.000000, 231.000000)">
                    <mask id="mask-2" fill="white">
                        <use xlink:href="#path-1"></use>
                    </mask>
                    <use id="Mask" fill="#C2D1D9" xlink:href="#path-1"></use>
                    <g id="↪🎨" mask="url(#mask-2)" fill="#FFFFFF" fill-rule="nonzero">
                        <g transform="translate(-2.000000, -5.000000)" id="Atoms-/-Colors-/-Black">
                            <rect x="0" y="0" width="30" height="30"></rect>
                        </g>
                    </g>
                </g>
            </g>
        </g>
    </g>
</svg>