<?xml version="1.0" standalone="no"?>
<!DOCTYPE svg PUBLIC "-//W3C//DTD SVG 20010904//EN"
 "http://www.w3.org/TR/2001/REC-SVG-20010904/DTD/svg10.dtd">
<svg version="1.0" xmlns="http://www.w3.org/2000/svg"
 width="1934.000000pt" height="1934.000000pt" viewBox="0 0 1934.000000 1934.000000"
 preserveAspectRatio="xMidYMid meet">
<metadata>
Created by potrace 1.14, written by Peter Selinger 2001-2017
</metadata>
<g transform="translate(0.000000,1934.000000) scale(0.100000,-0.100000)"
fill="#000000" stroke="none">
<path d="M10270 15789 c-79 -13 -177 -65 -236 -124 -148 -148 -172 -389 -54
-560 17 -25 32 -45 34 -45 1 0 -10 26 -26 58 -143 289 69 632 392 632 101 0
195 -34 284 -102 l41 -32 -44 47 c-95 100 -249 149 -391 126z"/>
<path d="M8760 15571 c-474 -103 -798 -554 -742 -1032 21 -179 104 -376 209
-494 l35 -40 -27 45 c-49 83 -94 186 -117 271 -19 71 -23 108 -23 239 0 131 4
167 23 233 82 284 260 498 514 617 140 65 230 85 398 85 168 0 258 -20 397
-85 100 -47 160 -87 237 -159 65 -61 65 -53 2 23 -100 120 -278 231 -451 282
-123 36 -329 43 -455 15z"/>
<path d="M13208 13945 c-271 -52 -494 -246 -584 -510 -35 -104 -44 -289 -20
-405 19 -89 70 -200 132 -287 51 -72 68 -84 29 -20 -36 57 -69 130 -91 202
-15 47 -19 91 -18 205 0 132 2 152 28 225 112 324 388 525 721 525 181 0 334
-54 480 -170 l80 -64 -43 52 c-84 100 -249 201 -387 237 -88 23 -235 27 -327
10z"/>
<path d="M9188 13533 c-172 -228 -356 -609 -448 -925 -76 -265 -105 -471 -104
-758 0 -242 13 -366 59 -555 14 -55 25 -104 25 -108 0 -4 -20 -16 -44 -27 -24
-10 -47 -23 -50 -29 -14 -22 -45 -10 -87 37 -367 400 -963 692 -1579 773 l-95
12 -72 68 c-525 496 -1322 617 -1983 303 -443 -211 -775 -587 -929 -1050 -66
-198 -91 -356 -91 -571 0 -421 142 -813 412 -1140 33 -40 62 -73 64 -73 2 0
-21 37 -50 82 -145 224 -246 503 -277 769 -18 154 -6 403 25 555 134 638 585
1143 1202 1344 433 141 897 111 1312 -86 93 -44 312 -175 312 -187 0 -2 -87
-2 -192 0 -106 3 -220 1 -253 -4 -58 -8 -60 -9 -60 -38 0 -28 3 -30 45 -37 25
-3 86 -7 135 -8 87 -1 231 -15 405 -40 76 -12 88 -16 118 -47 32 -35 46 -36
15 -1 -9 10 -14 20 -12 23 3 2 53 -7 112 -20 366 -83 702 -224 995 -418 133
-88 351 -258 406 -315 30 -33 30 -30 4 -140 -16 -67 0 -148 48 -251 54 -117
51 -131 -57 -247 -50 -54 -113 -132 -141 -174 -66 -99 -240 -455 -318 -649
-298 -744 -585 -1951 -690 -2906 -37 -330 -38 -551 -3 -641 3 -10 -2 -14 -18
-14 -46 0 -187 -57 -257 -104 -151 -100 -268 -269 -306 -443 -20 -90 -20 -238
-1 -321 82 -347 427 -586 783 -542 259 33 481 201 577 439 15 35 25 64 23 65
-2 2 -131 8 -288 14 -315 13 -520 30 -805 67 -271 36 -245 26 -245 94 0 77 32
199 75 285 56 114 165 228 282 297 45 27 210 86 217 78 1 -2 15 -25 30 -52 35
-62 113 -123 184 -143 71 -21 147 -15 275 21 l98 28 36 -34 37 -34 -28 38
c-19 27 -23 38 -14 42 7 2 60 18 118 36 247 75 499 183 678 291 50 31 92 55
92 53 0 -2 -14 -35 -30 -74 -143 -335 -127 -761 40 -1091 143 -283 418 -522
728 -634 263 -94 601 -94 864 0 429 154 748 521 837 962 23 112 37 283 27 335
l-6 35 -142 -54 c-566 -215 -1199 -378 -1794 -463 -217 -31 -496 -63 -502 -57
-2 2 -13 48 -24 102 -27 129 -29 350 -5 476 74 377 294 690 622 885 221 132
507 197 760 173 296 -27 563 -146 773 -343 93 -88 63 -40 -47 76 -173 181
-394 306 -645 365 -95 22 -135 26 -279 26 -108 1 -159 4 -145 10 85 33 250
120 286 151 78 68 106 154 77 240 -10 28 -110 248 -223 490 -238 512 -262 565
-258 565 2 0 39 -46 82 -102 278 -363 452 -522 574 -522 80 0 120 45 141 160
20 107 -4 233 -94 499 -36 105 -64 191 -63 192 3 4 305 -459 337 -516 62 -112
242 -372 271 -395 52 -39 115 -51 179 -33 30 8 62 18 73 22 13 6 8 -6 -18 -42
-46 -65 -92 -166 -111 -246 -21 -90 -19 -247 5 -341 23 -90 85 -214 136 -271
30 -34 32 -35 14 -8 -87 133 -131 323 -109 478 37 268 219 495 469 581 247 86
515 33 709 -141 45 -41 51 -44 33 -18 -32 46 -131 133 -195 171 -156 94 -369
124 -548 77 l-53 -14 104 97 c56 53 109 101 117 106 9 4 48 3 92 -3 73 -12 81
-11 216 23 503 126 862 318 1294 694 256 223 308 289 318 403 10 103 -57 265
-145 352 -160 158 -953 527 -1717 800 -1001 357 -1826 541 -2349 524 -120 -4
-198 -12 -260 -26 -50 -12 -97 -21 -105 -21 -9 0 -31 26 -49 58 -66 116 -164
204 -266 238 -24 8 -51 23 -60 33 -25 28 -56 295 -63 541 -6 246 8 407 57 650
70 340 212 709 398 1032 65 113 70 126 50 146 -22 22 -44 12 -80 -35z m352
-6697 c0 -2 -7 -7 -16 -10 -8 -3 -12 -2 -9 4 6 10 25 14 25 6z"/>
<path d="M5715 13101 c-80 -37 -125 -111 -125 -203 0 -51 27 -129 48 -142 5
-3 1 11 -10 32 -30 58 -22 158 18 214 66 94 188 121 289 65 l50 -28 -33 29
c-60 53 -163 67 -237 33z"/>
<path d="M13173 12315 c-89 -45 -137 -147 -114 -242 7 -26 21 -59 32 -73 l20
-25 -17 35 c-25 50 -23 134 4 187 63 120 225 158 323 75 34 -28 39 -22 7 9
-65 62 -170 76 -255 34z"/>
<path d="M15311 10964 c-219 -59 -360 -277 -323 -497 13 -76 48 -156 87 -202
l26 -30 -25 45 c-98 179 -64 395 83 533 161 151 394 160 576 22 l50 -37 -49
50 c-109 112 -273 157 -425 116z"/>
<path d="M3231 9884 c-81 -22 -147 -62 -206 -126 -128 -138 -157 -322 -77
-492 16 -34 39 -72 50 -86 18 -20 16 -14 -8 35 -51 106 -63 203 -35 308 21 80
46 125 105 191 154 167 417 184 599 39 l46 -36 -49 50 c-108 113 -272 158
-425 117z"/>
<path d="M16691 9202 c-59 -163 -310 -687 -451 -937 -1044 -1858 -2717 -3254
-4716 -3935 -703 -239 -1377 -376 -2144 -437 -413 -32 -1034 -23 -1485 23
-1353 136 -2630 586 -3799 1339 l-59 38 24 -34 c13 -19 76 -100 141 -181 536
-672 1202 -1249 1943 -1683 1951 -1143 4347 -1273 6415 -348 1197 536 2235
1413 2967 2508 644 963 1031 2041 1147 3195 15 144 37 482 32 487 -1 1 -8 -14
-15 -35z"/>
<path d="M4149 8987 c-78 -41 -132 -153 -113 -233 7 -29 41 -104 48 -104 1 0
-6 26 -17 58 -25 76 -12 140 40 202 73 85 169 102 269 49 46 -24 54 -26 40
-10 -56 62 -186 81 -267 38z"/>
<path d="M11702 6219 c-115 -57 -159 -229 -82 -321 l20 -23 -16 33 c-40 82
-22 181 44 245 39 38 105 67 152 67 36 0 108 -26 135 -48 l20 -17 -20 24 c-50
60 -173 79 -253 40z"/>
<path d="M11920 6001 c-52 -26 -138 -66 -190 -90 -90 -40 -94 -44 -75 -58 92
-71 208 -70 292 2 47 40 76 104 71 157 l-3 35 -95 -46z"/>
</g>
</svg>
